SplineFontDB: 3.0
FontName: GrazhdanskiyShrift
FullName: Grazhdanskiy Shrift
FamilyName: Grazhdanskiy Shrift
Weight: Regular
Copyright: Copyright (c) 2018, Context
UComments: "2018-4-19: Created with FontForge (http://fontforge.org)"
Version: 001.000
ItalicAngle: 0
UnderlinePosition: -100
UnderlineWidth: 50
Ascent: 800
Descent: 200
InvalidEm: 0
LayerCount: 2
Layer: 0 0 "Back" 1
Layer: 1 0 "Fore" 0
XUID: [1021 1017 285194369 3308]
FSType: 0
OS2Version: 0
OS2_WeightWidthSlopeOnly: 0
OS2_UseTypoMetrics: 1
CreationTime: 1524147800
ModificationTime: 1524303268
PfmFamily: 17
TTFWeight: 400
TTFWidth: 5
LineGap: 90
VLineGap: 0
OS2TypoAscent: 0
OS2TypoAOffset: 1
OS2TypoDescent: 0
OS2TypoDOffset: 1
OS2TypoLinegap: 90
OS2WinAscent: 0
OS2WinAOffset: 1
OS2WinDescent: 0
OS2WinDOffset: 1
HheadAscent: 0
HheadAOffset: 1
HheadDescent: 0
HheadDOffset: 1
OS2Vendor: 'Cont'
MarkAttachClasses: 1
DEI: 91125

StartChar: uni041D
Encoding: 189 1053 0
Width: 911
VWidth: 0
Flags: HW
LayerCount: 2
Fore
SplineSet
98 690 m 1
 301 690 l 1
 305 685 308 680 308 673 c 0
 308 667 305.37260274 656.460273973 301 656 c 2
 263 652 l 2
 246.967123288 650.312328767 240 639 240 617 c 2
 240 73 l 2
 240 52 246.967123288 39.6876712329 263 38 c 2
 301 34 l 2
 305.37260274 33.5397260274 308 23 308 17 c 0
 308 10 305 5 301 0 c 1
 97 0 l 1
 92.625 5 90 12 90 17 c 0
 90 23.375 93.1357066911 33.5932322833 97 34 c 2
 136 38 l 2
 152.033628406 39.6877503585 158 49 158 73 c 2
 158 617 l 2
 158 641 152.029372708 650.31269761 136 652 c 2
 98 656 l 2
 94.0760311559 656.413049352 91 666.625 91 673 c 0
 91 678 93.625 685 98 690 c 1
611 690 m 1
 814 690 l 1
 818 685 821 680 821 673 c 0
 821 667 818.37260274 656.460273973 814 656 c 2
 776 652 l 2
 759.967123288 650.312328767 753 638 753 617 c 2
 753 73 l 2
 753 51 759.967123288 39.6876712329 776 38 c 2
 814 34 l 2
 818.37260274 33.5397260274 821 23 821 17 c 0
 821 10 818 5 814 0 c 1
 611 0 l 1
 606 5 604 12 604 17 c 0
 604 23.375 606.610279766 33.5497722837 611 34 c 2
 650 38 l 2
 666.036434613 39.6447625244 672 49 672 73 c 2
 672 617 l 2
 672 641 666.035154419 650.355368778 650 652 c 2
 611 656 l 2
 606.544989862 656.456924117 604 666.625 604 673 c 0
 604 678 606 685 611 690 c 1
210 361 m 1
 704 361 l 1
 704 322 l 1
 210 322 l 1
 210 361 l 1
EndSplineSet
Validated: 524293
EndChar

StartChar: uni0412
Encoding: 178 1042 1
Width: 665
VWidth: 0
Flags: HW
LayerCount: 2
Back
SplineSet
98 690 m 5
 240 690 l 5
 240 0 l 5
 97 0 l 5
 92.625 5 90 12 90 17 c 4
 90 23.375 93.1357066911 33.5932322833 97 34 c 6
 136 38 l 6
 152.033628406 39.6877503585 158 49 158 73 c 6
 158 617 l 6
 158 641 152.029372708 650.31269761 136 652 c 6
 98 656 l 6
 94.0760311559 656.413049352 91 666.625 91 673 c 4
 91 678 93.625 685 98 690 c 5
EndSplineSet
Fore
SplineSet
311 690 m 0
 382 690 545 666 545 531 c 0
 543 463 498 401 425 371 c 1
 511 355 588 287 588 185 c 0
 588 113 553 59 491 29 c 0
 458 13 424 -1.28785870857e-014 302 0 c 0
 97 0 l 1
 92.625 5 90 12 90 17 c 0
 90 23.375 93.1357066911 33.5932322833 97 34 c 2
 136 38 l 2
 152.033628406 39.6877503585 158 49 158 73 c 2
 158 617 l 2
 158 641 152.029372708 650.31269761 136 652 c 2
 98 656 l 2
 94.0760311559 656.413049352 91 666.625 91 673 c 0
 91 678 93.625 685 98 690 c 1
 311 690 l 0
240 654 m 1
 240 386 l 1
 336 386 l 2
 387 386 455 437 455 521 c 0
 455 594 395 657 303 657 c 1
 240 654 l 1
240 28 m 1
 303 28 l 2
 397 28 499 72 499 183 c 0
 499 285 431 346 315 346 c 2
 240 346 l 1
 240 28 l 1
EndSplineSet
Validated: 524289
EndChar

StartChar: uni0413
Encoding: 179 1043 2
Width: 627
VWidth: 0
Flags: HW
LayerCount: 2
Back
SplineSet
98 690 m 1
 240 690 l 1
 240 0 l 1
 97 0 l 1
 92.625 5 90 12 90 17 c 0
 90 23.375 93.1357066911 33.5932322833 97 34 c 6
 136 38 l 2
 152.033628406 39.6877503585 158 49 158 73 c 2
 158 617 l 2
 158 641 152.029372708 650.31269761 136 652 c 2
 98 656 l 2
 94.0760311559 656.413049352 91 666.625 91 673 c 0
 91 678 93.625 685 98 690 c 1
EndSplineSet
Fore
SplineSet
544 709 m 0
 559 709 562.764584347 694.941662613 577 638 c 0
 584.735327542 607.058689832 588.39490456 581.79824665 588.39490456 566.000001352 c 3
 588.39490456 554.48773114 586.603748572 548.000000488 583.12057036 548.000000488 c 3
 577.17112822 548.000000488 566.965006808 556.337411657 552 584 c 0
 522.437578005 638.645689143 499.224761049 650 397 650 c 0
 240 650 l 1
 240 73 l 2
 240 52.5619486552 246.963565387 39.6447625244 263 38 c 2
 302 34 l 2
 306.364346129 33.552374756 309 23 309 17 c 0
 309 10 306 5 302 0 c 1
 97 0 l 1
 92 5 90 12 90 17 c 0
 90 23.375 92.601369863 33.5369863014 97 34 c 2
 135 38 l 2
 151.753657347 39.7635428786 158 49 158 73 c 2
 158 617 l 2
 158 641 151.748741632 650.236974565 135 652 c 2
 98 656 l 2
 94.0462093863 656.427436823 91 666.625 91 673 c 0
 91 678 94 685 98 690 c 1
 238 690 l 2
 397 690 485.733384694 691.577794898 529 706 c 0
 535 708 540 709 544 709 c 0
EndSplineSet
Validated: 524289
EndChar

StartChar: uni0415
Encoding: 181 1045 3
Width: 677
VWidth: 0
Flags: HW
LayerCount: 2
Fore
SplineSet
484 703 m 1
 505 655 l 2
 526.209118397 605.91604028 536.034867163 579.598819824 536.034867163 566.480096167 c 0
 536.034867163 557.949861136 531.880503773 555 524 555 c 0
 514 555 496 575 484 599 c 0
 459 648 439 657 348 657 c 0
 275 657 246 646 240 623 c 1
 240 357 l 1
 359 357 l 2
 394 357 396 373 408 398 c 1
 412 417 419 424 428 424 c 0
 440 424 447 421 447 408 c 2
 447 262 l 2
 447 250 440 246 428 246 c 0
 415 246 413 259 408 278 c 0
 403 298 395 312 359 312 c 2
 240 312 l 1
 240 28 l 1
 296 28 l 1
 355 31 l 1
 489 41 519 54 562 117 c 0
 577 138 595 156 604 156 c 0
 612.770852616 156 617.568158971 154.728465197 617.568158971 148.320059762 c 0
 617.568158971 138.654210419 606.654320126 117.302015845 582 71 c 2
 546 3 l 1
 343 0 l 1
 97 0 l 1
 92 5 90 12 90 17 c 0
 90 23 93 34 97 34 c 2
 135 38 l 2
 152 40 158 49 158 73 c 2
 158 617 l 2
 158 641 152 650 135 652 c 2
 98 656 l 2
 94 656 91 667 91 673 c 0
 91 678 93 685 98 690 c 1
 221 690 l 2
 253 690 292 695 340 697 c 2
 484 703 l 1
EndSplineSet
Validated: 524289
EndChar

StartChar: uni0416
Encoding: 182 1046 4
Width: 879
VWidth: 0
Flags: HW
LayerCount: 2
Back
SplineSet
334 690 m 5
 537 690 l 5
 541 685 544 680 544 673 c 4
 544 667 541.37260274 656.460273973 537 656 c 6
 499 652 l 6
 482.967123288 650.312328767 476 639 476 617 c 6
 476 73 l 6
 476 52 482.967123288 39.6876712329 499 38 c 6
 537 34 l 6
 541.37260274 33.5397260274 544 23 544 17 c 4
 544 10 541 5 537 0 c 5
 333 0 l 5
 328.625 5 326 12 326 17 c 4
 326 23.375 329.135706691 33.5932322833 333 34 c 6
 372 38 l 6
 388.033628406 39.6877503585 394 49 394 73 c 6
 394 617 l 6
 394 641 388.029372708 650.31269761 372 652 c 6
 334 656 l 6
 330.076031156 656.413049352 327 666.625 327 673 c 4
 327 678 329.625 685 334 690 c 5
EndSplineSet
Fore
SplineSet
334 690 m 1
 538 690 l 1
 542 685 544 680 544 673 c 0
 544 667 542 656 538 656 c 2
 499 652 l 2
 483 650 476 639 476 617 c 2
 476 596 l 1
 481 600 511 625 551 645 c 0
 603 671 645 673 686 673 c 0
 757 673 789 618 789 583 c 0
 789 557 780 549 746 549 c 0
 727 549 715 559 715 588 c 0
 715 625 696 637 654 637 c 3
 631 637 603 633 571 617 c 0
 537 600 488 572 476 562 c 1
 476 556 l 1
 526 528 564 493 604 452 c 0
 701 352 737 270 766 77 c 0
 770 50 774 39 786 38 c 2
 822 34 l 2
 828 33 829 24 829 17 c 0
 829 9 825 4 822 0 c 1
 633 0 l 1
 629 4 625 10 625 17 c 0
 625 26 627 33 633 34 c 2
 659 38 l 2
 672.5 40.25 674.1875 57.125 674.1875 73.4375 c 0
 674.1875 78.875 674 84.25 674 89 c 0
 674 160 630 342 578 416 c 0
 550 456 495 502 476 517 c 1
 476 73 l 2
 476 51 483 40 499 38 c 2
 538 34 l 2
 542 34 544 23 544 17 c 0
 544 10 542 5 538 0 c 1
 333 0 l 1
 328 5 326 12 326 17 c 0
 326 23 328 33 334 34 c 2
 372 38 l 2
 388 40 394 49 394 73 c 2
 394 522 l 1
 351 477 288 410 265 358 c 0
 235 289 209 160 209 74 c 2
 209 0 l 1
 62 0 l 0
 56 0 50 9 50 17 c 0
 50 24 55 32 62 33 c 2
 89 38 l 2
 114 43 118 59 122 117 c 0
 130 237 174 347 248 434 c 0
 262 450 325 519 394 556 c 1
 394 561 l 1
 385 570 361 590 322 608 c 0
 271 632 244 639 223 639 c 3
 184 639 171 624 170 588 c 0
 169 552 155 549 135 549 c 0
 113 549 98 557 98 583 c 0
 98 643 141 673 209 673 c 3
 247 673 289 660 333 639 c 0
 366 623 394 602 394 602 c 1
 394 617 l 2
 394 641 388 650 372 652 c 2
 334 656 l 2
 330 656 327 667 327 673 c 0
 327 678 329 685 334 690 c 1
EndSplineSet
Validated: 524289
EndChar

StartChar: uni0414
Encoding: 180 1044 5
Width: 719
VWidth: 0
Flags: HW
LayerCount: 2
Fore
SplineSet
398 690 m 1
 602 690 l 1
 606 684.705882353 608 679.411764706 608 672 c 0
 608 666 606.364346129 655.447625244 602 655 c 2
 563 651 l 2
 546.963565387 649.355237476 540 639 540 616 c 2
 540 39 l 1
 645 39 l 1
 644 -9 l 2
 643.24989154 -45.0052060738 636.019992006 -64.9800079936 611 -90 c 0
 593 -108 572 -124 564 -124 c 0
 554.73954284 -124 550.321289062 -123.35678795 550.321289062 -118 c 3
 550.321289062 -111.787996386 558.227000434 -99.3912691133 573 -74 c 0
 583.503646712 -55.9467319991 593 -42.3108680211 593 -31.99609375 c 3
 593 -10.8866243234 574.299236049 -1 497 -1 c 0
 479.597365944 -1 411.035087719 0 397 0 c 1
 382 0 366 0 350 0 c 0
 157.176551079 0 80.999999916 -0.896529765958 80.999999916 -24.5987094226 c 3
 80.999999916 -36.2979696806 87.0694794783 -53.6042192174 104 -79 c 0
 115.482613412 -96.2239201179 122.354510385 -108.613325174 122.354510385 -115.999994359 c 3
 122.354510385 -121.110812288 120.320906773 -124.09196754 116 -124.09196754 c 3
 110.249918605 -124.09196754 100.449213296 -120.458076076 86 -112 c 1
 86 -112 l 1
 54.2953593142 -93.7866957763 32.4457396302 -37.8050384498 32.4457396302 0.999999016059 c 3
 32.4457396302 19.7208227947 38.0466399234 34.2186559694 50 39 c 0
 60 43 86.0075570891 45.4104501818 109 46 c 0
 148 47 156 53 241 168 c 1
 458 503 l 1
 458 616 l 2
 458 640.685714286 452.041100522 650.354758921 436 652 c 2
 397 656 l 2
 394.098641506 656.29757523 391 666 391 672 c 0
 391 677.294117647 393 684.705882353 398 690 c 1
458 439 m 1
 202 45 l 1
 235 38 259 34 330 34 c 2
 413 34 l 1
 436 37 l 2
 451.988847584 39.0855018587 458 48 458 72 c 2
 458 439 l 1
EndSplineSet
Validated: 524289
EndChar

StartChar: uni0410
Encoding: 176 1040 6
Width: 819
VWidth: 0
Flags: HW
LayerCount: 2
Fore
SplineSet
491 296 m 0
 470 352 l 0
 420 487 405 520 398 520 c 0
 389 520 296 304 290 292 c 1
 295 292 324 291 359 291 c 0
 415 291 487 292 491 296 c 0
60 0 m 2
 57 3 55 8 55 12 c 3
 55 20 60 27 67 27 c 0
 77 27 94 28 106 36 c 0
 111 40 124 56 138 84 c 2
 369 569 l 2
 382 597 415 671 421 671 c 0
 425 671 443 633 471 567 c 2
 674 88 l 0
 697 36 708 34 727 34 c 0
 748 34 759 28 759 17 c 0
 759 4 756 -0 745 0 c 2
 615 0 l 1
 506 255 l 1
 480 257 444 255 388 257 c 2
 274 261 l 1
 185 76 l 2
 179 62 178 50 178 42 c 3
 178 32 181 25 188 24 c 2
 207 22 l 2
 211 21 215 18 215 12 c 3
 215 6 212 -0 206 0 c 2
 60 0 l 2
EndSplineSet
Validated: 33
EndChar

StartChar: uni0411
Encoding: 177 1041 7
Width: 831
VWidth: 0
Flags: HW
LayerCount: 2
Fore
SplineSet
653 319 m 3
 653 470.6125 573 630 412 630 c 7
 255 630 167 484.35483871 167 329 c 3
 167 172.993485342 243 18 413 18 c 3
 583 18 653 152.791245791 653 319 c 3
80 323 m 3
 80 594 162.359725613 799.125999064 327 892 c 0
 366 914 400 926 434 926 c 3
 469 926 503.938316791 913.892390405 544 891 c 0
 579 871 604 861 624 861 c 3
 646 861 660.743488018 875.110022441 672 901 c 0
 682 924 695 937 705 937 c 3
 712 937 718 930 718 915 c 0
 718 878 683.20344802 800.60172401 660 789 c 0
 644 781 625 777 605 777 c 3
 571 777 533.391450198 788.631291184 495 812 c 0
 449 840 410 854 375 854 c 3
 330 854 292.934703605 831.042580536 261 782 c 0
 233 739 191 581 191 556 c 1
 239 602.576576577 311 666 428 666 c 0
 619 666 751 541.363372093 751 323 c 3
 751 129 599 -18 409 -18 c 3
 226 -18 80 110 80 323 c 3
EndSplineSet
Validated: 524289
EndChar

StartChar: uni041A
Encoding: 186 1050 8
Width: 832
VWidth: 0
Flags: HW
LayerCount: 2
Back
SplineSet
98 690 m 5
 301 690 l 5
 305 685 308 680 308 673 c 4
 308 667 305.37260274 656.460273973 301 656 c 6
 263 652 l 6
 246.967123288 650.312328767 240 639 240 617 c 6
 240 73 l 6
 240 52 246.967123288 39.6876712329 263 38 c 6
 301 34 l 6
 305.37260274 33.5397260274 308 23 308 17 c 4
 308 10 305 5 301 0 c 5
 97 0 l 5
 92.625 5 90 12 90 17 c 4
 90 23.375 93.1357066911 33.5932322833 97 34 c 6
 136 38 l 6
 152.033628406 39.6877503585 158 49 158 73 c 6
 158 617 l 6
 158 641 152.029372708 650.31269761 136 652 c 6
 98 656 l 6
 94.0760311559 656.413049352 91 666.625 91 673 c 4
 91 678 93.625 685 98 690 c 5
EndSplineSet
Fore
SplineSet
539 700 m 0
 602 700 669 695 669 685 c 0
 669 679 647.02640958 666.923340427 621 658 c 0
 586 646 538.342963533 607.648635765 440 512 c 0
 367 441 311 379 307 374 c 1
 314.166666667 372.652173913 346.645367024 359.644781226 362 349 c 0
 409.371934048 316.158845479 442.913107763 281.919172225 512 181 c 0
 579.367637538 80.8349599757 616.045802066 48.5264845544 673 48.5264845544 c 3
 701.67312351 48.5264845544 746.831914878 59.6208362914 759.999999803 59.6208362914 c 3
 765.205313243 59.6208362914 772 56.4321994122 772 51.0000003277 c 3
 772 32.4254804276 678.205568377 -10 635 -10 c 0
 555 -10 499.819654628 30.8815101579 423 148 c 0
 362 241 262 323 240 323 c 1
 240 76 l 2
 240 63 242.242464257 51.9469196782 247 46 c 0
 251 41 255.973347831 38.7396475967 263 38 c 2
 301 34 l 2
 305.363119758 33.540724236 308 23 308 17 c 0
 308 10 305 5 301 0 c 1
 97 0 l 1
 92 5 90 12 90 17 c 0
 90 23.375 92.4706532609 33.523226659 97 34 c 2
 135 38 l 2
 151.750743734 39.7632361826 158 49 158 73 c 2
 158 617 l 2
 158 641 151.741336902 650.19012574 135 652 c 2
 98 656 l 2
 93.536073117 656.48258669 91 666.625 91 673 c 0
 91 678 93 685 98 690 c 1
 301 690 l 1
 305 685 308 680 308 673 c 0
 308 667 305.3640207 656.4593706 301 656 c 2
 263 652 l 2
 246.968071586 650.312428588 240 639 240 617 c 2
 240 386 l 1
 266 398 396.92276428 514.062366346 447 576 c 0
 466.114439695 599.641543833 475.589361474 615.8976256 475.589361474 628.658642267 c 0
 475.589361474 641.266856458 466.339989665 650.463205374 448 660 c 0
 433.008708625 667.795471515 426.088260763 672.599038106 426.088260763 677.636761934 c 0
 426.088260763 681.000121944 429.172955573 684.467854334 435 689 c 0
 444 696 490 700 539 700 c 0
EndSplineSet
Validated: 524289
EndChar

StartChar: uni041E
Encoding: 190 1054 9
Width: 867
VWidth: 0
Flags: HW
LayerCount: 2
Back
SplineSet
700.9921875 320.985351562 m 4
 700.9921875 517.985351562 582.38228741 672 419.4375 672 c 4
 285.769399769 672 165.9921875 582.026367188 165.9921875 366.78125 c 4
 165.9921875 189.607421875 284.702113942 18 439.13671875 18 c 4
 630.406279315 18 700.9921875 164.436523438 700.9921875 320.985351562 c 4
79.9921875 345.251953125 m 4
 79.9921875 551.69140625 186.30385041 708 438.606445312 708 c 4
 626.84840274 708 786.9921875 542.5 786.9921875 340.5 c 4
 786.9921875 134.532226563 658.411573763 -18 439.239257812 -18 c 4
 216.078125 -18 79.9921875 165.196289062 79.9921875 345.251953125 c 4
EndSplineSet
Fore
SplineSet
700.954101562 321 m 0
 700.954101562 518 628.16015625 672 419.955078125 672 c 0
 286.287109375 672 165.954101562 520.309570312 165.954101562 367 c 0
 165.954101562 152.903320312 284.51953125 18 438.955078125 18 c 0
 613.549804688 18 700.954101562 164.452148438 700.954101562 321 c 0
79.955078125 345 m 4
 79.955078125 534.763671875 211.665039062 708 438.955078125 708 c 4
 627.196289062 708 786.955078125 555.1015625 786.955078125 340 c 4
 786.955078125 147.133789062 654.598632812 -18 444.955078125 -18 c 4
 240.850585938 -18 79.955078125 155.415039062 79.955078125 345 c 4
EndSplineSet
Validated: 524289
EndChar

StartChar: uni0417
Encoding: 183 1047 10
Width: 585
VWidth: 0
Flags: HW
LayerCount: 2
Fore
SplineSet
176 21 m 0
 159 32 147 38 139 38 c 3
 129 38 125 31 125 16 c 0
 125 3 117 -6 108 -6 c 0
 94 -6 91 11 91 84 c 0
 91 134 90 178 90 183 c 0
 90 188 95 195 101 195 c 0
 107 195 116 185 120 167 c 0
 133 112 163 71 206 49 c 0
 234 35 263 28 290 28 c 3
 367 28 430 84.5333333333 430 172 c 0
 430 231.571428571 380 279.462184874 299 311 c 0
 196 347.75879397 125 387.668341709 125 520 c 3
 125 641.460674157 203 708 308 708 c 3
 329 708 350 705 371 699 c 0
 382 696 392 695 399 695 c 3
 407 695 412 696 414 699 c 0
 418 705 427 709 436 709 c 0
 449 709 453 691 453 624 c 0
 453 564 449 542 440 542 c 0
 433 542 425 556 423 568 c 0
 412 643 377 678 312 678 c 0
 234 678 180 617.52 180 543 c 3
 180 455.571428571 237 430.746031746 302 407 c 0
 340 392.571428571 438 347.065934066 464 306 c 0
 486 272.280701754 495 227.684210526 495 182 c 3
 495 62.6281182912 413.032389323 -18 304 -18 c 3
 256 -18 203 3 176 21 c 0
EndSplineSet
Validated: 524289
EndChar

StartChar: uni0418
Encoding: 184 1048 11
Width: 398
VWidth: 0
Flags: HW
LayerCount: 2
Fore
SplineSet
98 690 m 5
 301 690 l 5
 305 685 308 680 308 673 c 4
 308 667 305.37260274 656.460273973 301 656 c 6
 263 652 l 6
 246.967123288 650.312328767 240 639 240 617 c 6
 240 73 l 6
 240 52 246.967123288 39.6876712329 263 38 c 6
 301 34 l 6
 305.37260274 33.5397260274 308 23 308 17 c 4
 308 10 305 5 301 0 c 5
 97 0 l 5
 92.625 5 90 12 90 17 c 4
 90 23.375 93.1357066911 33.5932322833 97 34 c 6
 136 38 l 6
 152.033628406 39.6877503585 158 49 158 73 c 6
 158 617 l 6
 158 641 152.029372708 650.31269761 136 652 c 6
 98 656 l 6
 94.0760311559 656.413049352 91 666.625 91 673 c 4
 91 678 93.625 685 98 690 c 5
EndSplineSet
Validated: 524289
EndChar

StartChar: uni041B
Encoding: 187 1051 12
Width: 891
VWidth: 0
Flags: HW
LayerCount: 2
Fore
SplineSet
64 3 m 0
 54 13 50 25 50 35 c 3
 50 57 70 75 99 75 c 3
 104 75 109 74 114 73 c 0
 120 72 127 72 132 72 c 3
 146 72 156 77 166 88 c 0
 190 115 244 223 340 440 c 0
 385 541 405 593 405 621 c 3
 405 645 390 651 361 656 c 0
 344 659 325 668 325 677 c 0
 325 686.222597604 331.039501058 689.40569415 355.972323482 689.40569415 c 0
 366.184338273 689.40569415 379.565835097 688.871708245 397 688 c 2
 475 685 l 1
 698 169 l 0
 756 34 763 23 787 23 c 3
 792 23 797 23 804 23 c 0
 830 23 841 19 841 13 c 3
 841 5 817 -6 778 -8 c 0
 765 -9 754 -9 744 -9 c 3
 680 -9 668 13 614 143 c 0
 494 431 446 548 446 551 c 0
 446 553 443 555 438 555 c 0
 433 555 414 520 396 478 c 0
 325 311 197 61 165 26 c 0
 143 2 118 -10 97 -10 c 3
 85 -10 73 -6 64 3 c 0
EndSplineSet
Validated: 524289
EndChar

StartChar: uni041C
Encoding: 188 1052 13
Width: 1016
VWidth: 0
Flags: HW
LayerCount: 2
Back
SplineSet
98 690 m 1
 301 690 l 1
 305 685 308 680 308 673 c 0
 308 667 305.37260274 656.460273973 301 656 c 2
 263 652 l 2
 246.967123288 650.312328767 240 639 240 617 c 2
 240 73 l 2
 240 52 246.967123288 39.6876712329 263 38 c 2
 301 34 l 2
 305.37260274 33.5397260274 308 23 308 17 c 0
 308 10 305 5 301 0 c 1
 97 0 l 1
 92.625 5 90 12 90 17 c 0
 90 23.375 93.1357066911 33.5932322833 97 34 c 2
 136 38 l 2
 152.033628406 39.6877503585 158 49 158 73 c 2
 158 617 l 2
 158 641 152.029372708 650.31269761 136 652 c 2
 98 656 l 2
 94.0760311559 656.413049352 91 666.625 91 673 c 0
 91 678 93.625 685 98 690 c 1
611 690 m 5
 814 690 l 5
 818 685 821 680 821 673 c 4
 821 667 818.37260274 656.460273973 814 656 c 6
 776 652 l 6
 759.967123288 650.312328767 753 638 753 617 c 6
 753 73 l 6
 753 51 759.967123288 39.6876712329 776 38 c 6
 814 34 l 6
 818.37260274 33.5397260274 821 23 821 17 c 4
 821 10 818 5 814 0 c 5
 611 0 l 5
 606 5 604 12 604 17 c 4
 604 23.375 606.610279766 33.5497722837 611 34 c 6
 650 38 l 6
 666.036434613 39.6447625244 672 49 672 73 c 6
 672 617 l 6
 672 641 666.035154419 650.355368778 650 652 c 6
 611 656 l 6
 606.544989862 656.456924117 604 666.625 604 673 c 4
 604 678 606 685 611 690 c 5
210 361 m 1
 704 361 l 1
 704 322 l 1
 210 322 l 1
 210 361 l 1
EndSplineSet
Fore
SplineSet
90 16 m 0
 90 25.4736842105 93.6931697021 33.7124495393 97 34 c 2
 120 36 l 2
 159.902011355 38.6200078441 166.095459153 48.9062360652 169.951171875 73 c 0
 175.839305493 124.204917837 179.621810101 216.852441815 182.127915829 320.999994631 c 0
 186.227155825 586 l 3
 186.227155825 635.518880932 176.980467043 647.066912361 123 653 c 0
 97 656 l 1
 92.9077279442 660.747493361 91 667.413031767 91 672 c 0
 91 679.02584445 94.1925878458 685.213594702 98 690 c 1
 194 690 l 2
 270 690 l 1
 518 339 l 1
 719.467405755 622.000000001 l 2
 767.507687527 687.46689694 778.307489421 690 800 690 c 1
 919 690 l 1
 923 685 926 680 926 673 c 0
 926 667 923.37260274 656.460273973 919 656 c 2
 881 652 l 2
 864.967123288 650.312328767 858 638 858 617 c 2
 858 73 l 2
 858 51 864.967123288 39.6876712329 881 38 c 2
 919 34 l 2
 923.37260274 33.5397260274 926 23 926 17 c 0
 926 10 923 5 919 0 c 1
 716 0 l 1
 711 5 709 12 709 17 c 0
 709 23.375 711.610279766 33.5497722837 716 34 c 2
 755 38 l 2
 771.036434613 39.6447625244 777 49 777 73 c 0
 777 641 l 1
 485 232 l 1
 220 602 l 1
 220 316 l 0
 220 179.757322176 220.804131519 109.399839016 223 73 c 0
 224.531373151 47.6151754341 232.770761058 38.7920416563 245 36 c 1
 268 34 l 2
 273.671401769 33.5068346288 276 21.5234435261 276 16 c 0
 276 8.61538461538 272.764705882 3 269 0 c 1
 97 0 l 1
 93.75 3.2 90 11.6 90 16 c 0
EndSplineSet
Validated: 524289
EndChar

StartChar: uni0445
Encoding: 229 1093 14
Width: 616
VWidth: 0
Flags: HW
LayerCount: 2
Fore
SplineSet
90.03125 8.3896484375 m 0
 90.03125 11.6533203125 89.4716796875 16.2265625 94.91015625 21.39453125 c 0
 100.629882812 23.265625 114.03125 24.4130859375 122.397460938 24.4130859375 c 0
 140.44921875 24.4130859375 153.438476562 30.59765625 173.868164062 53.40234375 c 0
 183.029296875 63.62890625 194.625 79.3935546875 207.905273438 97.24609375 c 2
 266.33203125 180.6875 l 1
 207.325195312 276.548828125 l 2
 172.984375 325.781905748 149.838867188 350.964498157 132.709960938 353.21875 c 0
 116.1328125 355.575195312 109.7421875 359.900390625 111.038085938 364.3671875 c 0
 113.166992188 371.70703125 136.737304688 384 169.264648438 384 c 2
 196.732421875 384 l 2
 221.495117188 384 229.390625 365.030273438 260.59375 313.928710938 c 2
 321.157226562 221.66796875 l 1
 399.637695312 334.211914062 l 2
 409.173828125 348.008789062 414.791015625 357.626953125 409.654296875 359.423828125 c 0
 398.981916954 363.156024267 394.043620524 368.238505758 394.043620524 372.813105504 c 0
 394.043620524 378.848580239 402.639569428 384 418.00390625 384 c 2
 464.702148438 384 l 1
 518.5390625 384 l 2
 524.459960938 382.41796875 526.015625 378.26171875 526.015625 373.77734375 c 0
 526.015625 368.73828125 523.372070312 365.184570312 519.53515625 362.889648438 c 0
 515.451420895 361.949410542 509.450653274 361.763828899 503.318054934 361.763828899 c 0
 499.318236064 361.763828899 495.262337165 361.842774261 491.645665466 361.842774261 c 0
 490.406050473 361.842774261 489.218034885 361.833499941 488.1015625 361.80859375 c 0
 464.954101562 361.243164062 434.813476562 343.270507812 419.465820312 321.3515625 c 2
 334.5390625 201.0625 l 1
 401.732421875 97.59375 l 2
 431.67578125 51.4853515625 447.579101562 35.71484375 481.950195312 35.71484375 c 0
 493.403320312 35.71484375 502.06640625 34.708984375 508.1875 32.595703125 c 0
 516.04296875 29.8818359375 519.709960938 25.3427734375 519.709960938 18.76171875 c 0
 519.709960938 5.583984375 516.92578125 0 507.95703125 0 c 2
 384.076171875 0 l 1
 278.905273438 161.326171875 l 1
 230.166992188 91.7197265625 l 2
 216.423828125 71.0185546875 208.090820312 57.494140625 203.123046875 45.345703125 c 0
 198.758789062 34.6708984375 198.111328125 28.05859375 201.76171875 26.8427734375 c 0
 205.5625 25.576171875 208.590820312 24.27734375 210.892578125 22.9697265625 c 0
 217.180664062 19.3955078125 221.73828125 13.3720703125 221.62890625 8.3896484375 c 0
 221.52734375 3.7412109375 217.362304688 0 206.75 0 c 2
 152.532226562 0 l 1
 97.388671875 0 l 2
 92.5322265625 0 90.03125 5.431640625 90.03125 8.3896484375 c 0
EndSplineSet
Validated: 524289
Colour: ff0000
EndChar

StartChar: exclam
Encoding: 33 33 15
Width: 411
Flags: HW
HStem: -8 110<193 222.5> 661 20G 694 20G
VStem: 150 116<30 60.5> 185 45
LayerCount: 2
Fore
SplineSet
264 683 m 0xe8
 251 560 236 381 230 231 c 1
 218 226 202 225 185 225 c 1
 174 416 163 543 145 681 c 1
 172 687 224 702 246 714 c 1
 258.25 709.625 264.375 702.1875 264.375 689.0078125 c 0
 264.375 687.125 264.25 685.125 264 683 c 0xe8
266 50 m 0xf0
 266 10 238 -8 207 -8 c 0
 171 -8 150 14 150 45 c 0
 150 76 175 102 211 102 c 0
 245 102 266 73 266 50 c 0xf0
EndSplineSet
Validated: 524289
EndChar

StartChar: quotedbl
Encoding: 34 34 16
Width: 343
Flags: HW
HStem: 694 20G
VStem: 79 39 224 41
LayerCount: 2
Fore
SplineSet
136 681 m 0
 135 677 135 672 134 667 c 0
 128 614 124 554 118 479 c 1
 105 479 85 482 79 488 c 1
 76 557 70 628 60 693 c 1
 78 696 103 704 116 714 c 1
 128.570820663 711.306252715 136.304125036 701.356230995 136.304125036 686.321775901 c 0
 136.304125036 684.61250543 136.204168477 682.83751629 136 681 c 0
283 687 m 2
 283 681 l 1
 276 624 271 563 265 478 c 1
 251 478 231 481 224 487 c 1
 221 556 216 628 206 693 c 1
 224 696 249 705 263 714 c 1
 275 711 283 702 283 687 c 2
EndSplineSet
Validated: 524289
EndChar

StartChar: numbersign
Encoding: 35 35 17
Width: 592
Flags: W
HStem: -8 21G<146 146 354 354> 214 49<320.5 353 411 508> 443 49<252 401 95 241 459 484 484 550> 694 20
VStem: 30 532<212 492>
LayerCount: 2
Fore
SplineSet
484 443 m 1
 449 443 l 1
 411 263 l 1
 520 263 l 1
 520 243 518 232 508 214 c 1
 411 214 l 1
 401 214 l 1
 354 -8 l 1
 329 -4 320 3 310 14 c 1
 353 214 l 1
 288 214 236 214 193 213 c 1
 146 -8 l 1
 124 -5 111 3 103 18 c 1
 144 213 l 1
 86 212 52 212 30 212 c 1
 30 227 34 246 42 263 c 1
 155 263 l 1
 193 442 l 1
 154 442 118 442 83 441 c 1
 83 456 86 475 95 492 c 1
 204 492 l 1
 251 714 l 1
 269 711 283 706 294 692 c 1
 252 492 l 1
 412 492 l 1
 459 714 l 1
 479 710 493 704 502 694 c 1
 459 492 l 1
 562 492 l 1
 562 472 560 460 550 443 c 1
 484 443 l 1
363 263 m 1
 401 443 l 1
 241 443 l 1
 203 263 l 1
 363 263 l 1
EndSplineSet
Validated: 1
EndChar

StartChar: dollar
Encoding: 36 36 18
Width: 552
Flags: W
HStem: -8 47<300 300> 640 44<300 300>
VStem: 77 54 80 87<512 557> 255 44<235.5 278 235.5 299 235.5 299 418 436.5> 413 86<136 178>
LayerCount: 2
Fore
SplineSet
499 183 m 0xdc
 499 89 438 3 300 -8 c 1
 300 -34 301 -61 301 -91 c 1
 286 -91 264 -86 255 -80 c 1
 255 -9 l 1
 181 -6 128 19 68 55 c 1
 76 105 77 160 77 197 c 1
 92 201 114 203 131 203 c 1xec
 136 111 170 52 255 41 c 1
 255 299 l 1
 169 340 80 385 80 505 c 0
 80 609 146 675 255 684 c 1
 255 744 l 1
 275 744 287 742 301 733 c 1
 301 717 300 701 300 684 c 1
 362 681 416 662 448 641 c 1
 448 602 449 545 454 509 c 1
 439 503 416 500 398 500 c 1
 380 602 348 634 300 640 c 1
 299 560 299 478 299 395 c 1
 392 350 499 308 499 183 c 0xdc
167 542 m 0
 167 482 205 447 255 418 c 1
 255 639 l 1
 199 632 167 597 167 542 c 0
300 39 m 1
 381 44 413 88 413 143 c 0
 413 213 361 248 299 278 c 1
 299 193 299 122 300 39 c 1
EndSplineSet
Validated: 1
EndChar

StartChar: percent
Encoding: 37 37 19
Width: 863
Flags: W
HStem: -8 42<597 640.5 597 666.5> 268 42<592 637.5> 359 42<227 270.5 227 296.5> 635 42<222 267.5> 657 20
VStem: 90 77<489 555> 327 76<481 548> 460 77<122 188> 697 76<114 181>
LayerCount: 2
Fore
SplineSet
174 -7 m 1xf780
 156 3 142 17 138 30 c 1
 691 686 l 1
 710 682 721 671 733 657 c 1xef80
 174 -7 l 1xf780
246 359 m 0
 142 359 90 436 90 512 c 0
 90 598 146 677 256 677 c 0
 353 677 403 598 403 526 c 0
 403 436 347 359 246 359 c 0
254 401 m 0
 287 401 327 438 327 512 c 0
 327 584 292 635 243 635 c 0
 201 635 167 588 167 525 c 0
 167 453 200 401 254 401 c 0
616 -8 m 0
 512 -8 460 69 460 145 c 0
 460 231 516 310 626 310 c 0
 723 310 773 231 773 159 c 0
 773 69 717 -8 616 -8 c 0
624 34 m 0
 657 34 697 71 697 145 c 0
 697 217 662 268 613 268 c 0
 571 268 537 221 537 158 c 0
 537 86 570 34 624 34 c 0
EndSplineSet
Validated: 1
EndChar

StartChar: ampersand
Encoding: 38 38 20
Width: 742
Flags: HW
HStem: -10 77<242 305> 10 45 420 41 662 20G 673 44<277 327>
VStem: 54 84<181.5 254.5> 142 79<557.5 606> 384 53 550.6 116.4
LayerCount: 2
Fore
SplineSet
572 102 m 0x6b80
 605 67 627 59 687 55 c 1
 687 42 686 24 681 10 c 1x6d
 643 10 568 1 535 -9 c 1
 509 26 483 58 457 89 c 1
 400 19 342 -10 268 -10 c 0
 108 -10 54 106 54 208 c 0xad
 54 301 110 372 182 421 c 1
 156 468 142 514 142 568 c 0
 142 644 201 717 306 717 c 0xab
 363 717 400 706 442 682 c 1xb5
 438.291713066 656.041991463 436.23359317 626.23359317 436.23359317 596.246380842 c 0
 436.23359317 585.80089087 436.483314774 575.333704529 437 565 c 1
 421 558 400 557 384 557 c 1
 379 642 354 673 300 673 c 0
 254 673 221 641 221 587 c 0
 221 528 238 487 315 391 c 0
 348 350 391 298 485 196 c 1
 518 251 537 293 547 334 c 0
 549.555636658 344.222546634 550.913228106 353.169754817 550.913228106 361.054352866 c 0
 550.913228106 393.277089441 528.238879532 407.752224094 472 419 c 1
 468 432 465 448 465 461 c 1
 493 459 534 458 567 458 c 0
 600 458 644 459 667 461 c 1
 667 449 666 432 663 420 c 1
 622 405 607 385 594 338 c 0
 578 281 556 230 517 161 c 1
 534 143 552 123 572 102 c 0x6b80
281 67 m 0xad
 336 67 378 84 424 127 c 1
 371 188 318 245 265 307 c 0
 241 336 220 362 202 389 c 1
 167 352 138 305 138 237 c 0
 138 126 203 67 281 67 c 0xad
EndSplineSet
Validated: 524289
EndChar

StartChar: quotesingle
Encoding: 39 39 21
Width: 198
Flags: W
HStem: 694 20G
VStem: 80 40
LayerCount: 2
Fore
SplineSet
138 690 m 2
 138 681 l 1
 130 623 126 564 120 477 c 1
 106 477 86 480 80 487 c 1
 77 557 71 627 60 693 c 1
 79 696 103 705 117 714 c 1
 129 712 137 703 138 690 c 2
EndSplineSet
Validated: 1
EndChar

StartChar: parenleft
Encoding: 40 40 22
Width: 291
Flags: HW
HStem: -271.87 1013.11
VStem: 35 85<142.5 327>
LayerCount: 2
Fore
SplineSet
250 729 m 1
 156 588 120 442 120 240 c 0
 120 33 161 -117 256 -266 c 1
 250.134983296 -270.561679659 241.721935412 -272.150656273 233.25156392 -272.150656273 c 0
 228.723959911 -272.150656273 224.179977728 -271.696662955 220 -271 c 1
 103 -115 35 45 35 240 c 0
 35 414 87 556 215 741 c 1
 217.507848362 741.295040984 219.798073769 741.437745899 221.915621605 741.437745899 c 0
 234.152336069 741.437745899 240.622725411 736.672315573 250 729 c 1
EndSplineSet
Validated: 524289
EndChar

StartChar: parenright
Encoding: 41 41 23
Width: 291
Flags: HW
HStem: -271.87 1012.87
VStem: 171 85<142.5 327 142.5 341>
LayerCount: 2
Fore
SplineSet
76 741 m 1
 204 556 256 414 256 240 c 0
 256 45 188 -115 71 -271 c 1
 67.1683537491 -271.696662955 62.7300334076 -272.150656273 58.1922158129 -272.150656273 c 0
 49.7027364515 -272.150656273 40.8650167038 -270.561679659 35 -266 c 1
 130 -117 171 33 171 240 c 0
 171 442 135 588 41 729 c 1
 49.2336879396 736.318833724 58.3043341149 741.126792741 72.0404123762 741.126792741 c 0
 73.3188337241 741.126792741 74.6376674482 741.085145784 76 741 c 1
EndSplineSet
Validated: 524289
EndChar

StartChar: asterisk
Encoding: 42 42 24
Width: 443
Flags: HW
HStem: 574 29
VStem: 217 164
LayerCount: 2
Fore
SplineSet
233 603 m 1
 281 611 322 621 373 635 c 1
 378.856406461 622.555136271 382.569219382 603.679491924 382.569219382 586.219163867 c 0
 382.569219382 579.82824024 382.07179677 573.626933041 381 568 c 1
 338 571 285 573 236 574 c 1
 259 530 281 495 309 451 c 1
 293 436 275 427 248 424 c 1
 239 464 224 515 209 561 c 1
 175 527 148 495 116 455 c 1
 99 464 77 484 71 505 c 1
 106 526 150 556 190 585 c 1
 147 606 108 622 60 640 c 1
 64 659 75 685 93 698 c 1
 124 671 166 639 205 610 c 1
 212 658 215 699 217 751 c 1
 220.536672571 751.372281323 224.454476947 751.571320917 228.60507541 751.571320917 c 0
 246.752659547 751.571320917 269.350531909 747.76631206 284 738 c 1
 267 699 249 649 233 603 c 1
EndSplineSet
Validated: 524289
EndChar

StartChar: plus
Encoding: 43 43 25
Width: 550
Flags: W
HStem: 234 49<218 250 298 328.5> 483 20G<288 298> 493 10
VStem: 250 48<197.5 234 283 316>
LayerCount: 2
Fore
SplineSet
501 283 m 1xd0
 501 263 500 247 491 233 c 1
 402 234 359 234 298 234 c 1
 298 13 l 1
 289 7 263 3 248 3 c 1
 249 71 250 161 250 234 c 1
 186 234 111 233 49 232 c 1
 49 246 52 274 58 283 c 1
 250 283 l 1
 250 349 250 397 249 493 c 1xb0
 263 502 278 503 298 503 c 1
 298 283 l 1
 501 283 l 1xd0
EndSplineSet
Validated: 1
EndChar

StartChar: comma
Encoding: 44 44 26
Width: 259
Flags: W
HStem: -185 282
VStem: 124 75<-60 44>
LayerCount: 2
Fore
SplineSet
199 25 m 0
 199 -54 149 -130 92 -185 c 1
 80 -185 67 -179 60 -170 c 1
 101 -124 124 -77 124 -43 c 0
 124 -15 109 3 77 7 c 1
 77 20 79 50 85 67 c 1
 115 73 143 83 165 97 c 1
 188 88 199 63 199 25 c 0
EndSplineSet
Validated: 1
EndChar

StartChar: hyphen
Encoding: 45 45 27
Width: 419
Flags: W
HStem: 229 65<309.5 346>
VStem: 60 299<225 294>
LayerCount: 2
Fore
SplineSet
359 294 m 1
 359 273 355 247 346 229 c 1
 273 229 131 227 60 225 c 1
 60 248 67 277 76 294 c 1
 359 294 l 1
EndSplineSet
Validated: 1
EndChar

StartChar: period
Encoding: 46 46 28
Width: 236
Flags: W
HStem: -10 132<99.5 135>
VStem: 48 139<36 72.5>
LayerCount: 2
Fore
SplineSet
116 -10 m 0
 73 -10 48 17 48 54 c 0
 48 91 78 122 121 122 c 0
 162 122 187 88 187 60 c 0
 187 12 154 -10 116 -10 c 0
EndSplineSet
Validated: 1
EndChar

StartChar: slash
Encoding: 47 47 29
Width: 365
Flags: W
HStem: -9 21G<76 76> 693 20G<291 291>
VStem: 33 301
LayerCount: 2
Fore
SplineSet
76 -9 m 1
 57 -3 40 8 33 17 c 1
 291 713 l 1
 305 709 325 697 334 687 c 1
 76 -9 l 1
EndSplineSet
Validated: 1
EndChar

StartChar: zero
Encoding: 48 48 30
Width: 601
Flags: W
HStem: -9 57<268 372.5> 455 51<239 336.5>
VStem: 40 91<219.5 320.5 219.5 335.5> 467 94<183.5 278>
LayerCount: 2
Fore
SplineSet
561 255 m 0
 561 94 441 -9 304 -9 c 0
 165 -9 40 94 40 255 c 0
 40 416 174 506 304 506 c 0
 434 506 561 416 561 255 c 0
131 269 m 0
 131 170 206 48 330 48 c 0
 427 48 467 134 467 233 c 0
 467 323 398 455 275 455 c 0
 181 455 131 372 131 269 c 0
EndSplineSet
Validated: 1
EndChar

StartChar: one
Encoding: 49 49 31
Width: 388
Flags: W
HStem: -3 43 460 43
VStem: 149 90<127 373>
LayerCount: 2
Fore
SplineSet
239 127 m 2
 239 61 255 42 308 40 c 1
 312 26 313 11 313 -3 c 1
 274 -1 219 0 194 0 c 0
 158 0 111 -1 75 -3 c 1
 75 11 76 26 80 40 c 1
 130 42 149 61 149 127 c 2
 149 373 l 2
 149 438 135 457 80 460 c 1
 77 472 75 488 75 503 c 1
 107 501 162 500 194 500 c 0
 236 500 281 501 313 503 c 1
 313 486 311 472 308 460 c 1
 255 457 239 438 239 373 c 2
 239 127 l 2
EndSplineSet
Validated: 1
EndChar

StartChar: two
Encoding: 50 50 32
Width: 537
Flags: HW
HStem: -2 92 460 46<227 274.5>
VStem: 100.12 50.88 333 97<342.5 391> 414 47
LayerCount: 2
Fore
SplineSet
461 144 m 1xe8
 461 93 464 58 472 21 c 1
 466 9 456 -2 440 -2 c 0
 376 -1 305 0 247 0 c 0xe8
 188 0 116 -1 78 -2 c 1
 67 10 65 21 65 39 c 1
 122 92 183 147 236 194 c 0
 314 263 333 306 333 358 c 0
 333 424 303 460 246 460 c 0
 194 460 166 431 151 321 c 1
 134 321 110 323 97 328 c 1
 98.9081318457 344.69615365 100.133582353 366.853758011 100.133582353 389.370782904 c 0
 100.133582353 414.055999184 98.66076927 439.173186611 95 458 c 1
 134 486 191 506 263 506 c 0
 355 506 430 473 430 374 c 0xf0
 430 311 399 277 320 204 c 2
 198 90 l 1
 344 90 l 2
 399 90 411 95 414 151 c 1
 432 151 448 149 461 144 c 1xe8
EndSplineSet
Validated: 524289
EndChar

StartChar: three
Encoding: 51 51 33
Width: 513
Flags: HW
HStem: -171 50<163 229.5 157.5 279> 172 76 420 82
VStem: 362 101<-8.5 74.5> 426 12
LayerCount: 2
Fore
SplineSet
426 502 m 1xe8
 434.803670188 494.076696831 438.182017762 481.503117134 438.182017762 467.69088598 c 0
 438.182017762 465.813943348 438.119632981 463.914127699 438 462 c 1xa8
 394 409 335 335 268 248 c 1
 271.275424549 248.167113497 274.549732021 248.250446232 277.819338187 248.250446232 c 0
 372.375647246 248.250446232 463 178.554780969 463 50 c 0
 463 -67 362 -171 196 -171 c 0
 130 -171 79 -151 50 -126 c 1
 50 -116 54 -104 64 -93 c 1
 81 -105 124 -121 191 -121 c 0
 268 -121 362 -68 362 36 c 0xf0
 362 113 314 172 217 172 c 0
 206 172 194 170 185 165 c 1
 174 176 167 191 167 200 c 1
 246 301 299 371 334 420 c 1
 212 420 l 2
 153 420 138 411 118 350 c 1
 104 350 88 354 77 363 c 1
 88 412 88 455 88 502 c 1
 121 501 178 500 263 500 c 0
 346 500 390 501 426 502 c 1xe8
EndSplineSet
Validated: 524289
EndChar

StartChar: four
Encoding: 52 52 34
Width: 597
Flags: W
HStem: -6 21G 0 79<279 330 330 337 431 518 518 525> 486 20G<386 394>
VStem: 337 94<-138 0 -152 0 79 357 357 357>
LayerCount: 2
Fore
SplineSet
547 70 m 1x70
 538 52 529 19 529 0 c 1
 431 0 l 1
 431 -152 l 1
 406 -152 352 -167 348 -171 c 1
 340 -163 337 -152 337 -138 c 2
 337 0 l 1
 330 0 l 2x70
 228 0 148 -3 63 -6 c 1
 55 2 45 17 45 32 c 1xb0
 386 506 l 1
 402 506 421 502 431 496 c 1
 431 79 l 1
 518 79 l 2
 532 79 541 76 547 70 c 1x70
152 79 m 1
 337 79 l 1
 337 357 l 1
 152 79 l 1
EndSplineSet
Validated: 1
EndChar

StartChar: five
Encoding: 53 53 35
Width: 481
Flags: W
HStem: -171 50<151 211 151 228.5> 410 143<331 404> 482 20G<134 134>
VStem: 321 100<-9.5 97> 359 39
LayerCount: 2
Fore
SplineSet
134 502 m 1xb0
 204 500 249 500 307 500 c 0xa8
 346 500 359 521 359 548 c 1
 371 552 389 553 404 553 c 1
 399 517 398 475 398 428 c 1
 392 417 379 410 353 410 c 0
 309 410 187 409 160 407 c 1xc8
 136 306 l 1
 307 269 421 208 421 67 c 0
 421 -87 282 -171 175 -171 c 0
 125 -171 81 -157 60 -139 c 1
 60 -128 64 -117 73 -106 c 1
 90 -113 131 -121 171 -121 c 0
 251 -121 321 -59 321 40 c 0
 321 154 195 212 90 222 c 1
 79 229 73 242 73 253 c 2
 134 502 l 1xb0
EndSplineSet
Validated: 1
EndChar

StartChar: six
Encoding: 54 54 36
Width: 506
Flags: W
HStem: -9 48<240.5 304.5 240.5 312> 336 59<255.5 263.5> 607 31
VStem: 35 96<163 254.5 163 389> 377 89<145.5 239>
LayerCount: 2
Fore
SplineSet
279 395 m 0
 393 395 466 330 466 212 c 0
 466 79 369 -9 255 -9 c 0
 112 -9 35 78 35 240 c 0
 35 538 252 631 409 638 c 1
 416 630 419 623 419 607 c 1
 258 574 163 507 138 343 c 1
 194 380 232 395 279 395 c 0
264 39 m 0
 345 39 377 113 377 175 c 0
 377 303 293 336 234 336 c 0
 203 336 174 330 133 304 c 1
 132 285 131 265 131 244 c 0
 131 82 217 39 264 39 c 0
EndSplineSet
Validated: 1
EndChar

StartChar: seven
Encoding: 55 55 37
Width: 485
Flags: W
HStem: 338 165 409 21G<162.5 191 191 347> 465 38
VStem: 120 106<-121 -69>
LayerCount: 2
Fore
SplineSet
149 -176 m 1x70
 130 -169 120 -155 120 -132 c 0
 120 -6 211 177 347 409 c 1
 191 409 l 2x70
 134 409 115 399 99 338 c 1
 78 338 61 342 48 350 c 1x90
 60 401 65 446 67 503 c 1
 119 500 165 500 245 500 c 0
 315 500 369 500 427 503 c 1
 436 492 441 481 442 465 c 1
 392 392 342 303 304 230 c 0
 240 105 226 21 226 -121 c 1
 190 -136 163 -158 149 -176 c 1x70
EndSplineSet
Validated: 1
EndChar

StartChar: eight
Encoding: 56 56 38
Width: 508
Flags: HW
HStem: -9 45<224 292.5 224 312.5> 592 45<229 280.5>
VStem: 50 90<114.5 186> 77 94 341 90<465.5 522> 363 95<105.5 170.5>
LayerCount: 2
Fore
SplineSet
315 354 m 1xe4
 405 294 458 239 458 156 c 0
 458 55 377 -9 248 -9 c 0
 126 -9 50 49 50 141 c 0xe4
 50 231 101 283 191 336 c 1
 115 387 77 431 77 492 c 0
 77 581 143 637 249 637 c 0
 361 637 431 586 431 504 c 0xd8
 431 427 373 386 315 354 c 1xe4
170.971287569 509.043535928 m 0
 170.971287569 458.811577923 196.336825563 428.178807154 265 386 c 0
 269 383 274 381 278 378 c 1
 324 407 341 438 341 491 c 0
 341 553 307 592 254 592 c 0
 202.982971983 592 170.971287569 560.060123317 170.971287569 509.043535928 c 0
261 36 m 0xe4
 324 36 363 75 363 136 c 0
 363 205 316 252 227 312 c 1
 161 263 140 226 140 149 c 0
 140 80 187 36 261 36 c 0xe4
EndSplineSet
Validated: 524289
EndChar

StartChar: nine
Encoding: 57 57 39
Width: 519
Flags: W
HStem: 93 63<260 270> 462 44<215 292>
VStem: 40 93<248 354.5> 392 92<227.5 315.5>
LayerCount: 2
Fore
SplineSet
263 506 m 0
 415 506 484 414 484 242 c 0
 484 -21 240 -150 90 -170 c 1
 81 -158 80 -149 80 -134 c 1
 253 -69 352 18 382 145 c 1
 338 108 295 93 245 93 c 0
 133 93 40 169 40 283 c 0
 40 426 139 506 263 506 c 0
293 156 m 0
 329 156 364 168 390 192 c 1
 391 206 392 220 392 235 c 0
 392 396 335 462 249 462 c 0
 181 462 133 396 133 318 c 0
 133 178 227 156 293 156 c 0
EndSplineSet
Validated: 1
EndChar

StartChar: colon
Encoding: 58 58 40
Width: 236
Flags: W
HStem: 25 110<103 132.5> 311 110<103 132.5>
VStem: 60 116<63 93.5 349 379.5>
LayerCount: 2
Fore
SplineSet
117 311 m 0
 81 311 60 333 60 364 c 0
 60 395 85 421 121 421 c 0
 155 421 176 392 176 369 c 0
 176 329 148 311 117 311 c 0
117 25 m 0
 81 25 60 47 60 78 c 0
 60 109 85 135 121 135 c 0
 155 135 176 106 176 83 c 0
 176 43 148 25 117 25 c 0
EndSplineSet
Validated: 1
EndChar

StartChar: semicolon
Encoding: 59 59 41
Width: 259
Flags: W
HStem: 311 110<125 154.5>
VStem: 82 116<349 379.5> 124 75<-60 44>
LayerCount: 2
Fore
SplineSet
139 311 m 0xc0
 103 311 82 333 82 364 c 0
 82 395 107 421 143 421 c 0
 177 421 198 392 198 369 c 0
 198 329 170 311 139 311 c 0xc0
199 25 m 0xa0
 199 -54 149 -130 92 -185 c 1
 80 -185 67 -179 60 -170 c 1
 101 -124 124 -77 124 -43 c 0
 124 -15 109 3 77 7 c 1
 77 20 79 50 85 67 c 1
 115 73 143 83 165 97 c 1
 188 88 199 63 199 25 c 0xa0
EndSplineSet
Validated: 1
EndChar

StartChar: less
Encoding: 60 60 42
Width: 550
Flags: HW
HStem: 485 20G<435 435>
VStem: 64.15 408.85
LayerCount: 2
Fore
SplineSet
456 18 m 1
 323 97 187 172 66 234 c 1
 64.7335008386 240.332495807 64.0685092244 246.464489098 64.0685092244 252.364237841 c 0
 64.0685092244 265.097738679 67.1662479036 276.749371855 74 287 c 1
 435 505 l 1
 452 499 462 490 473 472 c 1
 117 260 l 1
 466 74 l 1
 467.033370453 69.0914903487 467.532813659 63.7157943568 467.532813659 58.2522364645 c 0
 467.532813659 42.5672976994 463.416573868 26.1582312545 456 18 c 1
EndSplineSet
Validated: 524289
EndChar

StartChar: equal
Encoding: 61 61 43
Width: 550
Flags: W
HStem: 149 48<240 325> 315 47<240 325>
VStem: 57 437<147 197 186.5 320.5>
LayerCount: 2
Fore
SplineSet
57 313 m 1
 57 328 62 353 68 362 c 1
 493 362 l 1
 493 342 491 328 483 314 c 1
 405 315 367 315 283 315 c 0
 197 315 146 315 57 313 c 1
57 147 m 1
 57 162 61 188 67 197 c 1
 494 197 l 1
 494 176 492 162 484 148 c 1
 406 149 367 149 283 149 c 0
 197 149 145 149 57 147 c 1
EndSplineSet
Validated: 1
EndChar

StartChar: greater
Encoding: 62 62 44
Width: 550
Flags: HW
HStem: 486 20G<117 117>
VStem: 75 412.12
LayerCount: 2
Fore
SplineSet
486 277 m 1
 486.75 272.75 487.125 268.5 487.125 264.28125 c 0
 487.125 251.625 483.75 239.25 477 228 c 1
 329 153 237 98 96 14 c 1
 88.5834261323 22.8998886413 84.4671863407 37.3003340761 84.4671863407 51.897949154 c 0
 84.4671863407 56.98275798 84.9666295471 62.0914903487 86 67 c 1
 436 259 l 1
 75 472 l 1
 87 490 98 500 117 506 c 1
 486 277 l 1
EndSplineSet
Validated: 524289
EndChar

StartChar: question
Encoding: 63 63 45
Width: 537
Flags: HW
HStem: -10 132<255.5 291> 673 41<240 286>
VStem: 123.37 53.63 204 139<36 72.5> 219 71<286.5 339 261 381.5> 346 89<527.5 605.5>
LayerCount: 2
Fore
SplineSet
274 714 m 0x6c
 368 714 435 669 435 586 c 0
 435 455 290 409 290 269 c 0
 290 253 295 220 301 201 c 1
 289 194 278 193 265 193 c 1
 243 208 219 258 219 315 c 0
 219 448 346 478 346 577 c 0
 346 634 307 673 265 673 c 0
 215 673 188 636 177 544 c 1
 158 544 133 547 120 554 c 1
 122.110100927 578.793685888 123.385353243 598.299997245 123.385353243 617.363374842 c 0
 123.385353243 634.437373153 122.362373842 651.156059729 120 671 c 1
 153 692 199 714 274 714 c 0x6c
272 -10 m 0xf0
 229 -10 204 17 204 54 c 0
 204 91 234 122 277 122 c 0
 318 122 343 88 343 60 c 0
 343 12 310 -10 272 -10 c 0xf0
EndSplineSet
Validated: 524289
EndChar

StartChar: at
Encoding: 64 64 46
Width: 997
Flags: W
HStem: -202 45<420.5 595 420.5 595> -9 78<684.5 698> -9 82<449 471> 422 45<464 510> 619 41<413 624.5>
VStem: 125 62<132.5 347 132.5 347.5> 315 90<170 277> 580 85<58.5 180> 823 49<259 423>
LayerCount: 2
Fore
SplineSet
822 -43 m 1xdf80
 839 -46 849 -54 853 -68 c 1
 792 -153 664 -202 526 -202 c 0
 253 -202 125 -21 125 228 c 0
 125 467 275 660 536 660 c 0
 761 660 872 524 872 359 c 0
 872 144 748 -9 648 -9 c 0
 596 -9 580 28 580 89 c 0
 580 107 580 133 581 165 c 1
 551 62 503 -9 439 -9 c 0
 365 -9 315 47 315 198 c 0
 315 356 391 467 502 467 c 0
 534 467 560 465 592 458 c 0
 608 458 626 461 643 467 c 1
 661 461 665 445 665 371 c 2
 665 180 l 2
 665 81 668 69 701 69 c 0
 741 69 823 167 823 351 c 0
 823 495 723 619 526 619 c 0
 300 619 187 457 187 237 c 0
 187 28 301 -157 540 -157 c 0
 650 -157 752 -122 822 -43 c 1xdf80
465 73 m 0xbf80
 498 73 567 162 584 339 c 0
 584 357 585 376 585 393 c 1
 557 413 524 422 496 422 c 0
 432 422 405 365 405 228 c 0
 405 112 433 73 465 73 c 0xbf80
EndSplineSet
Validated: 1
EndChar

StartChar: D
Encoding: 68 68 50
Width: 730
Flags: W
HStem: -3 21G 0 45<278 371.5> 640 38<295.5 374>
VStem: 131 94<138 549 549 582.5> 592 103<227 448.5>
LayerCount: 2
Fore
SplineSet
315 678 m 0x78
 492 678 695 630 695 355 c 0
 695 31 428 0 315 0 c 0x78
 241 0 106 -1 56 -3 c 1
 56 15 57 29 61 40 c 1xb8
 114 43 131 60 131 138 c 2
 131 549 l 2
 131 616 115 633 62 636 c 1
 58 647 57 663 57 679 c 1
 88 677 153 676 197 676 c 0
 236 676 276 678 315 678 c 0x78
315 45 m 0
 474 45 592 114 592 340 c 0
 592 557 449 640 299 640 c 0
 275 640 242 636 225 631 c 1
 225 138 l 2
 225 64 240 45 315 45 c 0
EndSplineSet
Validated: 1
EndChar

StartChar: F
Encoding: 70 70 52
Width: 561
Flags: W
HStem: -3 43 299 43<224 293 224 293> 636 43
VStem: 130 94<127 147 147 299 342 549 549 582.5> 406 46
LayerCount: 2
Fore
SplineSet
313 636 m 2
 224 636 l 1
 224 342 l 1
 293 342 l 2
 375 342 403 358 404 423 c 1
 421 428 434 430 452 430 c 1
 450 396 450 356 450 321 c 0
 450 286 450 239 452 205 c 1
 434 205 421 206 406 210 c 1
 401 279 375 299 293 299 c 2
 224 299 l 1
 224 147 l 2
 224 60 250 43 313 40 c 1
 317 29 318 15 318 -3 c 1
 287 -1 239 0 192 0 c 0
 145 0 82 -1 56 -3 c 1
 56 15 57 29 61 40 c 1
 114 43 130 60 130 127 c 2
 130 549 l 2
 130 616 114 633 61 636 c 1
 57 647 56 661 56 679 c 1
 100 677 175 676 223 676 c 0
 379 676 468 678 501 679 c 1
 505 634 512 564 522 521 c 1
 511 512 495 509 477 509 c 1
 472 571 442 636 313 636 c 2
EndSplineSet
Validated: 1
EndChar

StartChar: G
Encoding: 71 71 53
Width: 731
Flags: W
HStem: -9 49<302.5 404 302.5 420.5> 644 41<304.5 430 294.5 436>
VStem: 35 106<278 440.5 278 459> 519 94<131 136 136 181 122 226.5> 558 53
LayerCount: 2
Fore
SplineSet
364 -9 m 0xf0
 167 -9 35 132 35 347 c 0
 35 571 207 685 382 685 c 0
 478 685 563 666 622 638 c 1
 613 591 611 542 611 483 c 1
 595 477 579 474 558 474 c 1xe8
 553 614 482 644 390 644 c 0
 219 644 141 512 141 369 c 0
 141 187 221 40 384 40 c 0
 424 40 453 43 485 56 c 0
 508 66 519 80 519 131 c 2
 519 181 l 2
 519 272 509 279 433 281 c 1
 429 291 427 311 427 327 c 1
 452 325 508 324 549 324 c 0
 590 324 645 325 666 326 c 1
 666 314 665 294 660 281 c 1
 620 279 613 271 613 181 c 2
 613 136 l 2
 613 108 615 86 626 66 c 1
 569 24 477 -9 364 -9 c 0xf0
EndSplineSet
Validated: 1
EndChar

StartChar: J
Encoding: 74 74 56
Width: 329
Flags: W
HStem: -249 21G 636 43
VStem: 120 94<34 125 125 549>
LayerCount: 2
Fore
SplineSet
214 125 m 2
 214 -61 191 -156 20 -249 c 1
 11 -244 5 -234 3 -223 c 1
 78 -160 120 -93 120 34 c 2
 120 549 l 2
 120 616 104 633 51 636 c 1
 47 647 46 661 46 679 c 1
 75 677 123 676 167 676 c 0
 211 676 264 677 288 679 c 1
 288 661 287 647 283 636 c 1
 232 633 214 616 214 549 c 2
 214 125 l 2
EndSplineSet
Validated: 1
EndChar

StartChar: K
Encoding: 75 75 57
Width: 678
Flags: HW
HStem: -6 21G -3 43 0 43 636 43
VStem: 130 94<127 326 355 549> 450.25 167.75
LayerCount: 2
Fore
SplineSet
505 142 m 0x3c
 554 78 578 48 656 43 c 1
 656 32 655 14 651 0 c 1x38
 601 0 541 -1 492 -6 c 1x98
 447 68 320 239 224 326 c 1
 224 127 l 2
 224 60 240 43 293 40 c 1
 297 29 298 15 298 -3 c 1
 258 -1 216 0 177 0 c 0
 138 0 90 -1 56 -3 c 1
 56 15 57 29 61 40 c 1
 114 43 130 60 130 127 c 2x58
 130 549 l 2
 130 616 114 633 61 636 c 1
 57 647 56 661 56 679 c 1
 93 677 134 676 177 676 c 0
 220 676 258 677 298 679 c 1
 298 661 297 647 293 636 c 1
 240 633 224 616 224 549 c 2
 224 355 l 1
 413 553 l 2
 438.021512788 579.042799024 450.265962266 599.348957379 450.265962266 613.385861231 c 0
 450.265962266 626.837634605 439.021059684 634.531929354 417 636 c 1
 413 649 412 664 412 679 c 1
 434 677 475 676 515 676 c 0
 555 676 591 677 618 679 c 1
 618 666 617 648 612 636 c 1
 567 633 534 618 470 549 c 2
 307 376 l 1
 361 324 430 240 505 142 c 0x3c
EndSplineSet
Validated: 524289
EndChar

StartChar: L
Encoding: 76 76 58
Width: 560
Flags: W
HStem: -2 21G 0 45<315 321 321 352> 636 43
VStem: 131 94<138 546>
LayerCount: 2
Fore
SplineSet
321 45 m 2x70
 432 45 463 78 496 171 c 1
 516 165 528 159 540 147 c 1
 525 101 515 44 509 -2 c 1
 470 -1 389 0 315 0 c 0x70
 241 0 106 -1 56 -3 c 1
 56 15 57 29 61 40 c 1xb0
 114 43 131 60 131 138 c 2
 131 549 l 2
 131 616 115 633 62 636 c 1
 58 647 57 663 57 679 c 1
 96 677 149 676 178 676 c 0
 221 676 259 677 299 679 c 1
 299 661 298 647 294 636 c 1
 241 633 225 616 225 546 c 2
 225 138 l 2
 225 64 240 45 315 45 c 2
 321 45 l 2x70
EndSplineSet
Validated: 1
EndChar

StartChar: M
Encoding: 77 77 59
Width: 931
Flags: HW
HStem: -9 21G<437 445> -3 43 636 43
VStem: 35 134.21 724.26 171.74
LayerCount: 2
Fore
SplineSet
891 41 m 1x78
 895 27 896 10 896 -3 c 1
 865 -1 812 0 776 0 c 0
 740 0 688 -1 654 -3 c 1
 654 9 656 27 660 40 c 1x78
 709.505289297 44.6411208716 724.307240516 58.2572429701 724.307240516 104.915159705 c 0
 724.307240516 118.576184915 723.038318693 135.069772783 721 155 c 2
 685 498 l 1
 478 -2 l 1
 466 -7 453 -9 437 -9 c 1xb8
 204 497 l 1
 172 176 l 2
 169.93609698 156.111479986 168.857908662 139.074491789 168.857908662 124.486114654 c 0
 168.857908662 61.322704565 189.070025291 44.0618622635 237 40 c 1
 241 26 242 6 242 -3 c 1
 210 -1 164 0 135 0 c 0
 106 0 62 -1 35 -3 c 1
 35 6 36 26 40 40 c 1
 93 45 110 64 121 185 c 2
 153 541 l 2
 153.726195556 549.593314082 154.100817788 557.498130404 154.100817788 564.755227805 c 0
 154.100817788 617.457991126 134.343207402 636 86 636 c 1
 82 649 81 667 81 679 c 1
 101 677 132 676 157 676 c 0
 182 676 207 677 233 679 c 1
 483 126 l 1
 701 679 l 1
 724 677 753 676 779 676 c 0
 805 676 828 677 855 679 c 1
 855 665 854 651 850 636 c 1
 808.230538263 636 780.677637327 619.4140124 780.677637327 559.569356927 c 0
 780.677637327 552.075370955 781.109695615 543.903043853 782 535 c 2
 818 168 l 2
 828 69 844 45 891 41 c 1x78
EndSplineSet
Validated: 524289
EndChar

StartChar: N
Encoding: 78 78 60
Width: 742
Flags: W
HStem: -6 21G<594 601> -3 43 636 40 636 43
VStem: 130 51<187 533> 586 51<163 494 0 548.5>
LayerCount: 2
Fore
SplineSet
606 676 m 0x6c
 634 676 674 677 701 679 c 1x5c
 701 666 700 650 696 636 c 1
 652 636 637 603 637 494 c 2
 637 0 l 1
 626 -4 608 -6 594 -6 c 1xac
 181 533 l 1
 181 187 l 2
 181 74 196 40 250 40 c 1
 254 28 255 16 255 -3 c 1
 225 -1 185 0 156 0 c 0
 127 0 81 -1 56 -3 c 1
 56 14 57 28 61 40 c 1
 115 40 130 74 130 187 c 2
 130 600 l 1
 126 605 l 2
 107 629 94 633 61 636 c 1x6c
 57 650 56 668 56 679 c 1
 76 677 105 676 130 676 c 0
 155 676 179 677 197 679 c 1x5c
 586 163 l 1
 586 494 l 2
 586 603 571 636 517 636 c 1x6c
 513 659 512 667 512 679 c 1x5c
 541 677 578 676 606 676 c 0x6c
EndSplineSet
Validated: 1
EndChar

StartChar: Q
Encoding: 81 81 63
Width: 731
Flags: HW
HStem: -9 21G<266 365> -9 49<305.5 365> 637 48<285 415.5>
VStem: 35 103<282.5 442> 593 103<263 404>
LayerCount: 2
Fore
SplineSet
483 12 m 1xb8
 588.330917201 -20.624620372 632.840928435 -99.2993552616 741.25488311 -99.2993552616 c 0
 749.148440074 -99.2993552616 757.38076535 -98.8822838618 766 -98 c 1
 766 -110 764 -125 760 -138 c 1
 721 -150 687 -161 636 -184 c 1
 506 -151 515 -25 365 -9 c 1x78
 167 -9 35 141 35 340 c 0
 35 544 180 685 365 685 c 0
 556 685 696 545 696 340 c 0
 696 186 612 60 483 12 c 1xb8
138 367 m 0x78
 138 198 226 40 385 40 c 0
 515 40 593 161 593 314 c 0
 593 494 487 637 344 637 c 0
 226 637 138 529 138 367 c 0x78
EndSplineSet
Validated: 524289
EndChar

StartChar: R
Encoding: 82 82 64
Width: 684
Flags: HW
HStem: -9 21G -3 43 0 43 307 44 634 44<315 358>
VStem: 130 94<127 308 354 549 549 582.5> 463 98<465.5 539.5>
LayerCount: 2
Fore
SplineSet
523 140 m 0x3e
 565 69 584 47 658 43 c 1
 658 27 658 14 654 0 c 1x3e
 604 0 546 -1 497 -9 c 1x9e
 456 57 443 84 418 131 c 0
 382 197 355 242 294 307 c 1
 283.230447378 306.585786438 272.975613382 306.343145751 263.1644302 306.343145751 c 0
 249.289321881 306.343145751 236.30151519 306.828427125 224 308 c 1
 224 127 l 2
 224 60 239 43 290 40 c 1
 294 28 295 11 295 -3 c 1
 252 0 201 0 176 0 c 0
 141 0 86 -1 56 -3 c 1
 56 11 57 27 61 40 c 1
 115 43 130 60 130 127 c 2x5e
 130 549 l 2
 130 616 115 636 61 636 c 1
 57 649 56 662 56 678 c 1
 76 677 129 676 176 676 c 0
 231 676 287 678 343 678 c 0
 494 678 561 605 561 510 c 0
 561 421 497 355 393 328 c 1
 443 275 467 235 523 140 c 0x3e
224 354 m 1x5e
 240 352 253 351 268 351 c 0
 377 351 463 396 463 500 c 0
 463 579 418 634 298 634 c 0
 269 634 248 631 224 626 c 1
 224 354 l 1x5e
EndSplineSet
Validated: 524289
EndChar

StartChar: U
Encoding: 85 85 67
Width: 675
Flags: W
HStem: -9 53<303.5 385> 636 43
VStem: 106 94<231 245 245 549> 519 51<261 269 269 509>
LayerCount: 2
Fore
SplineSet
570 269 m 2
 570 154 559 94 513 48 c 0
 475 10 419 -9 351 -9 c 0
 165 -9 106 76 106 231 c 2
 106 549 l 2
 106 620 96 630 47 636 c 1
 43 650 42 666 42 679 c 1
 69 677 117 676 158 676 c 0
 199 676 244 677 274 679 c 1
 274 666 273 650 269 636 c 1
 210 631 200 622 200 549 c 2
 200 245 l 2
 200 132 237 44 370 44 c 0
 403 44 448 54 476 82 c 0
 507 113 519 154 519 261 c 2
 519 509 l 2
 519 605 509 631 450 636 c 1
 446 656 445 665 445 679 c 1
 468 677 509 676 539 676 c 0
 569 676 608 677 634 679 c 1
 634 670 633 658 629 636 c 1
 583 631 570 606 570 509 c 2
 570 269 l 2
EndSplineSet
Validated: 1
EndChar

StartChar: V
Encoding: 86 86 68
Width: 686
Flags: HW
HStem: -6 21G<322 330> 636 40 636 43
VStem: 25 174.4 533.82 127.18
LayerCount: 2
Fore
SplineSet
559 676 m 0xd8
 590 676 632 677 661 679 c 1xd8
 661 664 660 651 656 636 c 1
 614 626 595 584 570 518 c 0
 503 346 433 172 361 -2 c 1
 348 -5 338 -6 322 -6 c 1
 250 188 174 382 115 521 c 0
 73 619 66 632 30 636 c 1
 26 652 25 668 25 679 c 1
 51 677 104 676 146 676 c 0
 188 676 229 677 267 679 c 1
 267 667 265 650 262 636 c 1
 220.193646882 633.504098321 199.411941279 626.725398075 199.411941279 599.87267497 c 0
 199.411941279 583.690492759 206.959016787 560.21823681 222 526 c 0
 274 403 322 277 371 142 c 1
 425 265 474 385 520 514 c 0
 528.90416944 540.356341542 533.875840902 562.526475559 533.875840902 580.465220596 c 0
 533.875840902 612.892613465 517.629993345 631.493167443 479 636 c 1xb8
 475 651 474 668 474 679 c 1
 503 677 528 676 559 676 c 0xd8
EndSplineSet
Validated: 524289
EndChar

StartChar: W
Encoding: 87 87 69
Width: 1003
Flags: HW
HStem: -9 21G<277 284.5 691 698.5> 636 43 656 20G<122.5 153.5 865 898.5> 664 20G<533.5 544>
VStem: 25 164.78 856.56 121.44
LayerCount: 2
Fore
SplineSet
883 676 m 0xa4
 914 676 951 677 978 679 c 1
 978 666 976 650 971 636 c 1xa4
 936 628 922 601 887 491 c 2
 731 -3 l 1
 720 -7 706 -9 691 -9 c 1
 632 158 560 355 496 522 c 1
 320 -3 l 1
 309 -7 292 -9 277 -9 c 1
 223 168 167 346 109 521 c 0
 72 628 66 632 30 636 c 1
 26 649 25 665 25 679 c 1
 57 677 107 676 138 676 c 0
 169 676 222 677 259 679 c 1
 259 668 258 652 254 636 c 1xcc
 209.154984499 633.437427686 189.756229354 628.412314046 189.756229354 601.730403407 c 0
 189.756229354 586.76367765 195.859935436 564.982766005 207 533 c 0
 243 422 289 278 324 160 c 1
 500 679 l 1
 510 683 523 684 544 684 c 1x98
 606 522 677 325 735 158 c 1
 841 494 l 2
 851.443237541 527.687863034 856.77955056 553.885570104 856.77955056 574.122377865 c 0
 856.77955056 613.957079362 836.102889028 630.695029043 793 636 c 1
 788 649 786 668 786 679 c 1
 814 677 847 676 883 676 c 0xa4
EndSplineSet
Validated: 524289
EndChar

StartChar: X
Encoding: 88 88 70
Width: 667
Flags: HW
HStem: -3 43 0 40 636 40 636 43
VStem: 40 156.62 56 191.62 434.79 192.21 469.62 145.38
LayerCount: 2
Fore
SplineSet
621 40 m 1x9a
 625 28 627 12 627 -3 c 1x9a
 598 -1 546 0 505 0 c 0
 464 0 414 -1 384 -2 c 1x59
 384 10 385 26 388 40 c 1
 417.406141095 42.8829550093 435.17628077 48.425567486 435.17628077 69.0878057607 c 0
 435.17628077 84.2607404386 425.593858905 107.58682616 404 144 c 0
 377 191 348 237 320 284 c 1
 232 155 l 2
 208.578476742 120.556583445 196.334996868 96.0257713991 196.334996868 78.4049701175 c 0
 196.334996868 57.6567526349 213.310206569 46.4890533511 249 40 c 1
 253 26 254 10 254 -3 c 1
 220 -1 181 0 144 0 c 0
 107 0 67 -1 40 -3 c 1
 40 8 41 28 46 42 c 1x9a
 78 50 116 76 165 144 c 2
 293 327 l 1
 253 390 213 453 171 516 c 0
 100 624 94 629 62 635 c 1
 57 651 56 665 56 679 c 1
 91 677 140 676 178 676 c 0
 216 676 268 677 299 678 c 1xa5
 299 666 298 651 295 636 c 1
 263.687197494 630.408428124 247.069262729 621.064975122 247.069262729 600.801845726 c 0
 247.069262729 584.826275441 257.398702193 562.06321093 279 529 c 0
 307 487 334 445 361 403 c 1
 434 518 l 2
 458.310483333 556.716695679 470.055131552 582.867556243 470.055131552 600.649759159 c 0
 470.055131552 622.36652236 452.538157716 631.601553086 419 636 c 1
 415 651 414 668 414 679 c 1
 447 677 486 676 516 676 c 0
 546 676 590 677 615 679 c 1
 615 666 615 651 611 636 c 1x95
 580 628 556 612 496 521 c 2
 389 358 l 1
 431 291 472 224 512 157 c 0
 568 64 589 45 621 40 c 1x9a
EndSplineSet
Validated: 524289
EndChar

StartChar: Y
Encoding: 89 89 71
Width: 630
Flags: HW
HStem: 0 40 639 37 639 39
VStem: 25 186.96 271 94<150 163 163 259 259 259> 476.24 128.76
LayerCount: 2
Fore
SplineSet
519 676 m 0xdc
 549 676 582 677 605 678 c 1xcc
 605 664 604 653 601 639 c 1
 565 629 534 599 500 531 c 2
 365 260 l 1
 365 163 l 2
 365 57 374 49 442 40 c 1
 446 28 448 13 448 -3 c 1
 404 -2 358 0 321 0 c 0
 277 0 213 -1 185 -2 c 1
 185 12 187 28 191 40 c 1
 262 46 271 56 271 150 c 2
 271 259 l 1
 105 578 l 2
 84 619 68 635 31 637 c 1
 26 652 25 664 25 678 c 1
 53 677 91 676 129 676 c 0
 167 676 232 676 263 678 c 1
 263 663 262 653 258 639 c 1
 226.539837297 635.974984355 211.916998749 627.459536921 211.916998749 608.581789359 c 0
 211.916998749 596.256809762 218.150093867 579.514821652 230 557 c 0xbc
 265 490 307 404 347 314 c 1
 388 405 425 482 455 542 c 0
 469.271443942 569.750029888 476.313714149 589.170794385 476.313714149 603.003545242 c 0
 476.313714149 624.064182389 459.989263085 632.171431987 428 637 c 1
 424 651 421 663 421 678 c 1
 445 676 489 676 519 676 c 0xdc
EndSplineSet
Validated: 524289
EndChar

StartChar: Z
Encoding: 90 90 72
Width: 631
Flags: W
HStem: -3 45 508 170 636 42
VStem: 58 510
LayerCount: 2
Fore
SplineSet
516 169 m 1xb0
 537 167 554 162 568 152 c 1
 557 108 551 50 550 -3 c 1
 452 0 381 0 289 0 c 0
 197 0 107 -1 66 -3 c 1
 61 7 58 16 58 29 c 1
 183 231 307 431 425 636 c 1
 283 636 l 2xb0
 195 636 161 617 140 508 c 1
 123 508 96 510 83 518 c 1xd0
 95 560 102 624 102 678 c 1
 143 677 280 676 346 676 c 0
 412 676 467 676 538 678 c 1
 544 671 549 658 549 645 c 1
 428 434 310 237 185 42 c 1
 339 42 l 2
 462 42 494 60 516 169 c 1xb0
EndSplineSet
Validated: 1
EndChar

StartChar: bracketleft
Encoding: 91 91 73
Width: 272
Flags: W
HStem: 704 38
VStem: 35 70<-189 -157 -157 610>
LayerCount: 2
Fore
SplineSet
35 742 m 1
 70 740 104 740 130 740 c 0
 165 740 188 740 226 742 c 1
 235 734 237 718 237 704 c 1
 130 695 105 688 105 610 c 2
 105 -157 l 2
 105 -221 145 -225 226 -229 c 1
 235 -239 237 -250 237 -269 c 1
 209 -267 168 -267 141 -267 c 0
 108 -267 69 -267 35 -269 c 1
 35 742 l 1
EndSplineSet
Validated: 1
EndChar

StartChar: backslash
Encoding: 92 92 74
Width: 380
Flags: HW
HStem: -3 21G<295 295> 0 21G<347 347> 693 20G<52 62.5>
VStem: 31 316
LayerCount: 2
Fore
SplineSet
57 713 m 0x70
 68 713 78 712 84 709 c 1
 347 0 l 1
 340.333333333 -2.66666666667 323.444444444 -4.44444444444 310.259259259 -4.44444444444 c 0
 303.666666667 -4.44444444444 298 -4 295 -3 c 1xb0
 31 709 l 1
 37 712 47 713 57 713 c 0x70
EndSplineSet
Validated: 524289
EndChar

StartChar: bracketright
Encoding: 93 93 75
Width: 272
Flags: W
HStem: 704 38
VStem: 167 70<-157 610 610 649>
LayerCount: 2
Fore
SplineSet
237 -269 m 1
 203 -267 164 -267 131 -267 c 0
 104 -267 63 -267 35 -269 c 1
 35 -250 37 -239 46 -229 c 1
 127 -225 167 -221 167 -157 c 2
 167 610 l 2
 167 688 142 695 35 704 c 1
 35 718 37 734 46 742 c 1
 84 740 107 740 142 740 c 0
 168 740 202 740 237 742 c 1
 237 -269 l 1
EndSplineSet
Validated: 1
EndChar

StartChar: asciicircum
Encoding: 94 94 76
Width: 550
Flags: HW
HStem: 404 21G
VStem: 42 465
LayerCount: 2
Fore
SplineSet
276 644 m 1
 202 556 126 462 69 383 c 1
 54 396 47 409 42 430 c 1
 248 685 l 1
 259.25 691.75 275 695.125 289.34375 695.125 c 0
 294.125 695.125 298.75 694.75 303 694 c 1
 357 612 445 486 507 404 c 1
 498.100111359 396.583426132 482.049498886 392.467186341 466.599266878 392.467186341 c 0
 461.217464737 392.467186341 455.908509651 392.966629547 451 394 c 1
 276 644 l 1
EndSplineSet
Validated: 524289
EndChar

StartChar: underscore
Encoding: 95 95 77
Width: 550
Flags: W
HStem: -141 49<226 305>
VStem: 32 486<-143 -92>
LayerCount: 2
Fore
SplineSet
32 -143 m 1
 32 -122 35 -105 44 -92 c 1
 518 -92 l 1
 518 -106 513 -131 506 -142 c 1
 396 -141 347 -141 263 -141 c 0
 189 -141 131 -142 32 -143 c 1
EndSplineSet
Validated: 1
EndChar

StartChar: grave
Encoding: 96 96 78
Width: 300
Flags: HW
HStem: 692 20G 704 10.75
VStem: 66 167
LayerCount: 2
Fore
SplineSet
193 535 m 1x60
 147 607 108 659 66 704 c 1
 82.047662318 712.023831159 102.285860323 715.095211051 123.187585189 715.095211051 c 0
 136.150284669 715.095211051 149.368186788 713.913911093 162 712 c 1xa0
 179 655 201 597 233 537 c 1
 227 534 220.25 533 213.375 533 c 0
 206.5 533 199.5 534 193 535 c 1x60
EndSplineSet
Validated: 524289
EndChar

StartChar: b
Encoding: 98 98 80
Width: 547
Flags: W
HStem: -9 46<243.5 290.5 243.5 333> 404 21G<266.5 318> 447 20G<286.5 378.5> 646 37<19 34 19 44> 697 20G
VStem: 85 90<186 213 407 416 416 575 575 598.5> 408 99<175 296>
LayerCount: 2
Fore
SplineSet
320 467 m 0
 437 467 507 399 507 245 c 0
 507 105 408 -9 258 -9 c 0
 167 -9 103 21 63 59 c 1
 77 77 85 107 85 186 c 2
 85 575 l 2
 85 622 78 646 10 646 c 1
 10 661 12 672 19 683 c 1
 49 683 129 700 153 717 c 1
 165 713 175 702 175 677 c 2
 175 416 l 2
 175 398 173 385 171 373 c 1
 176 382 180 388 183 393 c 0
 201 423 253 467 320 467 c 0
263 37 m 0
 318 37 408 73 408 232 c 0
 408 360 340 404 296 404 c 0
 237 404 175 353 175 213 c 2
 175 72 l 1
 198 51 224 37 263 37 c 0
EndSplineSet
Validated: 1
EndChar

StartChar: d
Encoding: 100 100 82
Width: 564
Flags: W
HStem: -9 63<229 260.5> 22 46 421 46<256.5 303.5> 646 37<306 321 306 331> 697 20G
VStem: 40 99<162 283> 372 90<245 386 386 386 453 575 575 598.5>
LayerCount: 2
Fore
SplineSet
462 136 m 2x7e
 462 89 469 68 524 68 c 1
 524 54 523 36 518 22 c 1x7e
 485 20 435 8 404 -9 c 1
 390 -3 379 3 379 49 c 0
 379 69 382 81 387 107 c 1
 377 85 369 73 364 65 c 0
 346 35 294 -9 227 -9 c 0xbe
 110 -9 40 59 40 213 c 0
 40 353 139 467 289 467 c 0
 322 467 345 462 372 453 c 1
 372 575 l 2
 372 622 365 646 297 646 c 1
 297 661 299 672 306 683 c 1
 336 683 416 700 440 717 c 1
 452 713 462 702 462 677 c 2
 462 136 l 2x7e
251 54 m 0xbe
 310 54 372 105 372 245 c 2
 372 386 l 1
 349 407 323 421 284 421 c 0
 229 421 139 385 139 226 c 0
 139 98 207 54 251 54 c 0xbe
EndSplineSet
Validated: 1
EndChar

StartChar: f
Encoding: 102 102 84
Width: 342
Flags: W
HStem: -3 43 403 45<36 116 280.5 298> 659 55<273 309>
VStem: 116 90<127 147 147 392 448 488 488 519> 359 57<572 590 572 591>
LayerCount: 2
Fore
SplineSet
325 714 m 0
 377 714 398 702 420 689 c 1
 417 647 416 608 416 572 c 1
 399 567 377 564 359 564 c 1
 359 618 337 659 281 659 c 0
 227 659 206 608 206 519 c 2
 206 448 l 1
 308 448 l 1
 308 435 306 416 298 403 c 1
 263 403 232 399 206 392 c 1
 206 147 l 2
 206 60 232 43 295 40 c 1
 299 29 300 15 300 -3 c 1
 269 -1 221 0 174 0 c 0
 127 0 68 -1 42 -3 c 1
 42 15 43 29 47 40 c 1
 100 43 116 60 116 127 c 2
 116 395 l 1
 87 401 56 403 36 403 c 1
 36 420 40 435 50 448 c 1
 116 448 l 1
 116 488 l 2
 116 638 221 714 325 714 c 0
EndSplineSet
Validated: 1
EndChar

StartChar: g
Encoding: 103 103 85
Width: 511
Flags: W
HStem: -249 53<198 283 198 287> -17 80<218 283.5> -6 21G 139 46<225.5 273 219 298> 412 46 422 36 422 45<200.5 249 177.5 258.5>
VStem: 41 86<-127 -89.5> 57 92<272.5 341.5 272.5 347> 67 70<49 111.5> 326 94<260.5 322 260.5 327.5> 380 83<-93.5 -61.5>
LayerCount: 2
Fore
SplineSet
282 63 m 0xd250
 416 63 463 33 463 -48 c 0
 463 -139 359 -249 215 -249 c 0
 92 -249 41 -202 41 -114 c 0xb310
 41 -65 67 -28 115 -6 c 1
 78 7 67 30 67 68 c 0xb260
 67 106 88 143 120 174 c 1
 82 201 57 244 57 301 c 0
 57 393 118 467 237 467 c 0xb2a0
 261 467 282 464 300 458 c 1
 464 458 l 1xb4a0
 469 441 471 417 471 396 c 1
 446 402 405 409 374 412 c 1
 406 379 420 337 420 307 c 0xb8a0
 420 214 357 139 239 139 c 0
 212 139 186 143 162 152 c 1
 144 134 137 118 137 105 c 0
 137 69 154 63 282 63 c 0xd250
227 422 m 0xb2a0
 174 422 149 369 149 314 c 0
 149 231 187 185 251 185 c 0
 295 185 326 222 326 292 c 0
 326 363 290 422 227 422 c 0xb2a0
239 -196 m 0xd310
 327 -196 380 -144 380 -87 c 0
 380 -36 352 -17 215 -17 c 0
 194 -17 176 -16 161 -15 c 1
 135 -37 127 -60 127 -93 c 0
 127 -161 157 -196 239 -196 c 0xd310
EndSplineSet
Validated: 1
EndChar

StartChar: h
Encoding: 104 104 86
Width: 596
Flags: W
HStem: -3 43 401 61<317.5 340> 646 37<44 59 44 69> 697 20G
VStem: 110 90<127 234 415 423 423 575 575 598.5> 406 90<127 279 279 299>
LayerCount: 2
Fore
SplineSet
555 40 m 1
 559 28 560 15 560 -3 c 1
 531 -1 492 0 451 0 c 0
 410 0 363 -2 332 -3 c 1
 332 15 333 29 337 40 c 1
 385 40 406 60 406 127 c 2
 406 279 l 2
 406 373 367 401 313 401 c 0
 261 401 200 356 200 234 c 2
 200 127 l 2
 200 60 217 40 269 40 c 1
 273 28 274 15 274 -3 c 1
 246 -2 196 0 155 0 c 0
 114 0 65 -1 36 -3 c 1
 36 15 37 29 41 40 c 1
 93 40 110 60 110 127 c 2
 110 575 l 2
 110 622 103 646 35 646 c 1
 35 661 37 672 44 683 c 1
 74 683 154 700 178 717 c 1
 190 713 200 702 200 677 c 2
 200 423 l 2
 200 407 199 387 193 364 c 1
 197 371 200 379 208 390 c 0
 230 421 282 462 353 462 c 0
 429 462 496 421 496 299 c 2
 496 127 l 2
 496 58 515 40 555 40 c 1
EndSplineSet
Validated: 1
EndChar

StartChar: i
Encoding: 105 105 87
Width: 301
Flags: W
HStem: -3 43 396 37<45 60 45 70> 447 20G 580 119<132.5 164.5>
VStem: 89 119<622.5 656 622.5 656> 111 90<127 325 325 348.5>
LayerCount: 2
Fore
SplineSet
148 580 m 0xf8
 114 580 89 606 89 638 c 0
 89 674 117 699 148 699 c 0
 184 699 208 674 208 638 c 0
 208 607 181 580 148 580 c 0xf8
37 -3 m 1
 37 10 38 27 42 40 c 1
 95 40 111 60 111 127 c 2
 111 325 l 2
 111 372 104 396 36 396 c 1
 36 411 38 422 45 433 c 1
 75 433 155 450 179 467 c 1
 191 463 201 452 201 427 c 2
 201 127 l 2
 201 60 217 40 260 40 c 1
 264 26 265 6 265 -3 c 1
 230 -1 190 0 152 0 c 0xf4
 114 0 70 -1 37 -3 c 1
EndSplineSet
Validated: 1
EndChar

StartChar: j
Encoding: 106 106 88
Width: 283
Flags: W
HStem: -249 21G 396 37<45 60 45 70> 447 20G 580 119<132.5 164.5>
VStem: 89 119<622.5 656 622.5 656> 111 90<19 33 33 325 325 348.5>
LayerCount: 2
Fore
SplineSet
148 580 m 0xf8
 114 580 89 606 89 638 c 0
 89 674 117 699 148 699 c 0
 184 699 208 674 208 638 c 0
 208 607 181 580 148 580 c 0xf8
35 -249 m 1
 25 -244 15 -234 13 -221 c 1
 90 -134 111 -79 111 19 c 2
 111 325 l 2
 111 372 104 396 36 396 c 1
 36 411 38 422 45 433 c 1
 75 433 155 450 179 467 c 1
 191 463 201 452 201 427 c 2
 201 33 l 2xf4
 201 -111 115 -203 35 -249 c 1
EndSplineSet
Validated: 1
EndChar

StartChar: k
Encoding: 107 107 89
Width: 545
Flags: W
HStem: -9 21G -3 43 0 43 418 42 646 37<44 59 44 69> 697 20G
VStem: 110 90<127 225 256 575 575 598.5>
LayerCount: 2
Fore
SplineSet
421 106 m 0x3e
 461 57 479 47 525 43 c 1
 525 24 524 11 520 0 c 1x3e
 472 0 436 -2 392 -9 c 1x9e
 351 53 269 154 200 225 c 1
 200 127 l 2
 200 60 216 40 259 40 c 1
 263 26 264 6 264 -3 c 1
 229 -1 189 0 151 0 c 0
 113 0 69 -1 36 -3 c 1
 36 10 37 27 41 40 c 1
 94 40 110 60 110 127 c 2x5e
 110 575 l 2
 110 622 103 646 35 646 c 1
 35 661 37 672 44 683 c 1
 74 683 154 700 178 717 c 1
 190 713 200 702 200 677 c 2
 200 256 l 1
 274 323 l 2
 320 364 338 389 338 403 c 0
 338 414 327 419 309 419 c 1
 305 432 303 445 303 460 c 1
 346 458 380 458 407 458 c 0
 429 458 465 458 501 460 c 1
 501 447 499 430 494 418 c 1
 455 417 422 402 372 357 c 2
 277 271 l 1
 318 228 360 180 421 106 c 0x3e
EndSplineSet
Validated: 1
EndChar

StartChar: l
Encoding: 108 108 90
Width: 299
Flags: W
HStem: -3 43 646 37<44 59 44 69> 697 20G
VStem: 110 90<127 575 575 598.5>
LayerCount: 2
Fore
SplineSet
36 -3 m 1
 36 10 37 27 41 40 c 1
 94 40 110 60 110 127 c 2
 110 575 l 2
 110 622 103 646 35 646 c 1
 35 661 37 672 44 683 c 1
 74 683 154 700 178 717 c 1
 190 713 200 702 200 677 c 2
 200 127 l 2
 200 60 216 40 259 40 c 1
 263 26 264 6 264 -3 c 1
 229 -1 189 0 151 0 c 0
 113 0 69 -1 36 -3 c 1
EndSplineSet
Validated: 1
EndChar

StartChar: m
Encoding: 109 109 91
Width: 885
Flags: W
HStem: -3 43 396 37 401 61<608 630> 406 21G<285.5 338> 447 20G<316 379>
VStem: 111 89<127 239> 403 89<127 234> 695 89<127 279 279 299>
LayerCount: 2
Fore
SplineSet
844 40 m 1xa7
 848 28 849 15 849 -3 c 1
 819 -1 780 0 740 0 c 0
 700 0 654 -1 621 -3 c 1
 621 15 622 29 626 40 c 1
 679 43 695 60 695 127 c 2
 695 279 l 2
 695 373 657 401 603 401 c 0xa7
 552 401 492 356 492 234 c 2
 492 127 l 2
 492 58 511 43 562 40 c 1
 566 28 567 15 567 -3 c 1
 533 -1 487 0 448 0 c 0
 409 0 365 -1 329 -3 c 1
 329 15 330 29 334 40 c 1
 387 43 403 60 403 127 c 2
 403 284 l 2
 403 378 365 406 311 406 c 0x97
 260 406 200 361 200 239 c 2
 200 127 l 2
 200 60 217 43 270 40 c 1
 274 28 275 15 275 -3 c 1
 241 -1 191 0 156 0 c 0
 121 0 69 -1 37 -3 c 1
 37 15 38 29 42 40 c 1
 95 43 111 60 111 127 c 2
 111 325 l 2
 111 372 102 394 36 396 c 1
 36 411 38 422 45 433 c 1
 79 435 148 452 174 467 c 1
 186 463 196 452 196 427 c 0
 196 410 195 393 192 363 c 1
 201 384 205 392 208 395 c 0
 229 426 281 467 351 467 c 0
 407 467 458 444 479 383 c 0xcf
 481 376 483 367 483 358 c 1
 488 372 493 381 500 390 c 0
 522 421 573 462 643 462 c 0
 718 462 784 421 784 299 c 2
 784 127 l 2
 784 58 803 43 844 40 c 1xa7
EndSplineSet
Validated: 1
EndChar

StartChar: n
Encoding: 110 110 92
Width: 597
Flags: W
HStem: -3 43 396 37 401 61<318.5 341> 447 20G
VStem: 111 90<127 234> 407 90<127 279 279 299>
LayerCount: 2
Fore
SplineSet
556 40 m 1xac
 560 28 561 15 561 -3 c 1
 532 -1 493 0 452 0 c 0
 411 0 364 -2 333 -3 c 1
 333 15 334 29 338 40 c 1
 386 40 407 60 407 127 c 2
 407 279 l 2
 407 373 368 401 314 401 c 0xac
 262 401 201 356 201 234 c 2
 201 127 l 2
 201 60 218 40 270 40 c 1
 274 28 275 15 275 -3 c 1
 247 -2 197 0 156 0 c 0
 115 0 66 -1 37 -3 c 1
 37 15 38 29 42 40 c 1
 94 40 111 60 111 127 c 2
 111 325 l 2
 111 372 102 394 36 396 c 1
 36 411 38 422 45 433 c 1
 86 436 148 451 179 467 c 1
 191 463 201 452 201 423 c 0xdc
 201 407 200 387 194 364 c 1
 198 371 201 379 209 390 c 0
 231 421 283 462 354 462 c 0
 430 462 497 421 497 299 c 2
 497 127 l 2
 497 58 516 40 556 40 c 1xac
EndSplineSet
Validated: 1
EndChar

StartChar: q
Encoding: 113 113 95
Width: 546
Flags: W
HStem: -245 43 -1 61<232.5 250.5> 421 46<244.5 304.5>
VStem: 40 99<164.5 282> 372 90<-115 20 20 35.5 233 291>
LayerCount: 2
Fore
SplineSet
531 -202 m 1
 535 -214 536 -227 536 -245 c 1
 511 -243 455 -242 412 -242 c 0
 369 -242 322 -243 288 -245 c 1
 288 -227 289 -213 293 -202 c 1
 356 -199 372 -182 372 -115 c 2
 372 20 l 2
 372 51 376 79 387 123 c 1
 379 101 368 76 358 63 c 0
 331 28 277 -1 224 -1 c 0
 127 -1 40 71 40 214 c 0
 40 350 138 467 284 467 c 0
 375 467 440 441 482 400 c 1
 469 380 462 350 462 291 c 2
 462 -115 l 2
 462 -182 478 -199 531 -202 c 1
261 60 m 0
 307 60 372 103 372 233 c 2
 372 386 l 1
 357 402 321 421 288 421 c 0
 201 421 139 352 139 227 c 0
 139 102 204 60 261 60 c 0
EndSplineSet
Validated: 1
EndChar

StartChar: r
Encoding: 114 114 96
Width: 419
Flags: W
HStem: -3 43 385 73<268.5 343.5> 396 37 447 20G
VStem: 111 90<127 147 147 243> 335 57
LayerCount: 2
Fore
SplineSet
330 458 m 0xcc
 357 458 378 450 399 434 c 1
 394 401 392 351 392 316 c 1
 380 312 357 307 335 307 c 1
 332 371 312 385 286 385 c 0xcc
 251 385 201 321 201 243 c 2
 201 147 l 2
 201 60 227 43 290 40 c 1
 294 29 295 15 295 -3 c 1
 264 -1 216 0 169 0 c 0
 122 0 63 -1 37 -3 c 1
 37 15 38 29 42 40 c 1
 95 43 111 60 111 127 c 2
 111 325 l 2
 111 372 102 394 36 396 c 1
 36 411 38 422 45 433 c 1
 86 436 148 451 179 467 c 1
 191 463 201 452 201 423 c 0xbc
 201 385 194 355 188 325 c 1
 196 348 201 365 209 377 c 0
 238 423 278 458 330 458 c 0xcc
EndSplineSet
Validated: 1
EndChar

StartChar: t
Encoding: 116 116 98
Width: 351
Flags: W
HStem: -9 54<222 229> 391 57<29 92> 404 21G
VStem: 92 90<120 141 141 391 448 568>
LayerCount: 2
Fore
SplineSet
208 -9 m 0xb0
 129 -9 92 29 92 120 c 2
 92 391 l 1xd0
 72 398 53 402 20 404 c 1xb0
 20 421 22 432 29 448 c 1
 92 448 l 1
 92 580 l 1
 118 587 146 603 166 620 c 1
 179 614 182 610 182 568 c 2
 182 448 l 1
 312 448 l 1xd0
 312 435 309 419 303 404 c 1xb0
 255 402 215 398 182 391 c 1xd0
 182 141 l 2
 182 74 204 45 240 45 c 0
 268 45 287 53 306 69 c 1
 314 60 320 47 321 36 c 1
 299 11 250 -9 208 -9 c 0xb0
EndSplineSet
Validated: 1
EndChar

StartChar: u
Encoding: 117 117 99
Width: 564
Flags: W
HStem: -9 21G -4 61<224 252> 22 46 396 37 401 37 447 20G
VStem: 82 90<174 196 196 325 325 348.5> 372 90<228 330 330 353.5>
LayerCount: 2
Fore
SplineSet
462 136 m 2x37
 462 89 469 68 524 68 c 1
 524 54 523 36 518 22 c 1
 485 20 435 8 404 -9 c 1
 390 -3 379 3 379 49 c 0
 379 58 379 71 382 91 c 1xb7
 375 75 364 61 350 47 c 0
 315 12 279 -4 225 -4 c 0
 135 -4 82 41 82 174 c 2
 82 325 l 2
 82 372 77 394 16 396 c 1
 16 411 17 421 23 433 c 1
 64 436 119 451 150 467 c 1
 162 463 172 452 172 423 c 2x57
 172 196 l 2
 172 106 193 57 255 57 c 0
 321 57 372 112 372 228 c 2
 372 330 l 2
 372 377 363 399 297 401 c 1
 297 416 297 426 304 438 c 1x4f
 356 441 410 453 440 467 c 1
 452 463 462 452 462 423 c 2
 462 136 l 2x37
EndSplineSet
Validated: 1
EndChar

StartChar: v
Encoding: 118 118 100
Width: 528
Flags: HW
HStem: -9 21G<243 251> 420 41 438 20G<99 141 404.5 435.5>
VStem: 15 158.84 388.93 124.07
LayerCount: 2
Fore
SplineSet
420 458 m 0xb8
 451 458 489 459 513 461 c 1
 513 443 510 430 504 418 c 1xb8
 471 411 457 388 424 309 c 2
 289 0 l 1
 277 -6 259 -9 243 -9 c 1
 217 57 103 312 83 355 c 0
 57 408 48 415 21 418 c 1
 16 435 15 442 15 461 c 1
 43 459 78 458 120 458 c 0
 162 458 211 459 243 461 c 1
 243 446 240 432 236 420 c 1
 191.782581855 416.700192676 173.698111815 411.222639676 173.698111815 392.356960837 c 0
 173.698111815 382.636608759 178.499036621 369.362080898 187 351 c 0xd8
 204 314 258 187 291 100 c 1
 371 300 l 2
 383.218656962 331.265386931 388.979892732 354.911016856 388.979892732 372.561322425 c 0
 388.979892732 404.025284588 370.672014558 416.437489054 338 419 c 1
 331 432 327 447 327 461 c 1
 353 459 389 458 420 458 c 0xb8
EndSplineSet
Validated: 524289
EndChar

StartChar: w
Encoding: 119 119 101
Width: 774
Flags: HW
HStem: -9 21G<215 226 530 539.5> 438 20G<91 135 393 393 656.5 689> 440 20G 441 20G 442 20G<426.5 433>
VStem: 15 152.24 644.87 114.13
LayerCount: 2
Fore
SplineSet
671 458 m 0xc6
 707 458 736 459 759 461 c 1
 759 443 757 431 751 417 c 1x96
 721 409 710 389 677 291 c 2
 576 0 l 1
 564 -7 549 -9 530 -9 c 1
 487 101 436 224 390 328 c 1
 259 0 l 1
 248 -7 237 -9 215 -9 c 1
 170 120 126 238 77 358 c 0
 62 395 50 408 21 417 c 1
 16 430 15 448 15 460 c 1
 41 459 69 458 113 458 c 0xa6
 157 458 189 459 223 461 c 1
 223 448 222 427 218 417 c 1x96
 180.240377654 412.954326177 167.031970328 403.907478924 167.031970328 387.10039691 c 0
 167.031970328 378.981472404 170.114184557 369.051678093 175 357 c 0
 204 285 236 194 262 119 c 1
 393 458 l 1
 403 461 420 462 433 462 c 1x8e
 475 366 526 240 574 118 c 1
 631 288 l 2
 640.83071046 318.760610149 645.331481262 342.381112454 645.331481262 360.487953519 c 0
 645.331481262 399.478926013 624.461135079 412.902718154 591 417 c 1
 585 431 582 447 582 461 c 1x96
 607 459 642 458 671 458 c 0xc6
EndSplineSet
Validated: 524289
EndChar

StartChar: z
Encoding: 122 122 104
Width: 501
Flags: W
HStem: -2 47 414 47
VStem: 395 53
LayerCount: 2
Fore
SplineSet
448 150 m 1
 448 117 450 53 456 17 c 1
 451 6 440 -2 424 -2 c 0
 373 -1 332 0 245 0 c 0
 157 0 103 -1 67 -2 c 1
 58 7 51 22 51 38 c 1
 117 129 263 334 315 414 c 1
 223 414 l 2
 151 414 131 396 112 308 c 1
 96 308 75 310 60 316 c 1
 64 360 67 410 67 461 c 1
 108 459 189 458 250 458 c 0
 309 458 388 459 427 461 c 1
 436 450 440 432 440 418 c 1
 374 323 241 139 170 45 c 1
 297 45 l 2
 368 45 388 60 395 156 c 1
 411 156 428 155 448 150 c 1
EndSplineSet
Validated: 1
EndChar

StartChar: braceleft
Encoding: 123 123 105
Width: 327
Flags: HW
HStem: -271 1012
VStem: 123 77<561 587.5> 124 80<-105.5 -82 -142 -38> 133 91<61 116.5>
LayerCount: 2
Fore
SplineSet
286 -271 m 1xa0
 150 -229 124 -148 124 -63 c 0
 124 -13 133 38 133 84 c 0
 133 149 116 202 35 228 c 1
 35 240 35 248 40 260 c 1
 117 286 135 335 135 394 c 0x90
 135 442 123 497 123 549 c 0
 123 626 149 699 277 741 c 1
 283 732 286 723 286 714 c 1
 218 691 200 645 200 591 c 0xc0
 200 529.451234931 223.030744411 458.979526736 223.030744411 394.803522472 c 0
 223.030744411 327.614676948 198.864957836 270.491656628 96 246 c 1
 199 219 224 158 224 86 c 0x90
 224 21 204 -51 204 -113 c 0
 204 -171 222 -220 292 -242 c 1
 292 -255 292 -263 286 -271 c 1xa0
EndSplineSet
Validated: 524289
EndChar

StartChar: bar
Encoding: 124 124 106
Width: 170
Flags: W
HStem: 692 20G<100 110>
VStem: 60 49<145 325 145 701>
LayerCount: 2
Fore
SplineSet
60 -241 m 1
 60 701 l 1
 74 710 90 712 110 712 c 1
 110 597 109 416 109 234 c 0
 109 56 110 -113 110 -230 c 1
 101 -236 75 -241 60 -241 c 1
EndSplineSet
Validated: 1
EndChar

StartChar: braceright
Encoding: 125 125 107
Width: 327
Flags: HW
HStem: -271 1012
VStem: 103 91<61 116.5 61 122> 123 80<-105.5 -82> 127 77<561 587.5 523 618>
LayerCount: 2
Fore
SplineSet
41 -271 m 1xa0
 35 -263 35 -255 35 -242 c 1
 105 -220 123 -171 123 -113 c 0xa0
 123 -51 103 21 103 86 c 0
 103 158 128 219 231 246 c 1
 128.135042164 270.491656628 103.969255589 327.614676948 103.969255589 394.803522472 c 0
 103.969255589 458.993824602 127 529.437055026 127 591 c 0
 127 645 109 691 41 714 c 1
 41 723 44 732 50 741 c 1
 178 699 204 626 204 549 c 0x90
 204 497 192 442 192 394 c 0
 192 335 210 286 287 260 c 1
 292 248 292 240 292 228 c 1xc0
 211 202 194 149 194 84 c 0
 194 38 203 -13 203 -63 c 0
 203 -148 177 -229 41 -271 c 1xa0
EndSplineSet
Validated: 524289
EndChar

StartChar: asciitilde
Encoding: 126 126 108
Width: 550
Flags: W
HStem: 198 62<347 390> 260 57<163 214>
VStem: 46 458
LayerCount: 2
Fore
SplineSet
68 195 m 1x60
 55 201 48 208 46 221 c 1
 96 294 141 317 184 317 c 0x60
 252 317 314 260 380 260 c 0
 410 260 440 272 473 305 c 1
 486 304 494 301 504 292 c 1
 453 220 409 198 371 198 c 0xa0
 304 198 248 260 180 260 c 0
 146 260 110 244 68 195 c 1x60
EndSplineSet
Validated: 1
EndChar

StartChar: uni0420
Encoding: 192 1056 111
Width: 940
VWidth: 0
Flags: HW
LayerCount: 2
Fore
SplineSet
751 335 m 0
 751 528.554501634 660.467196546 643 514 643 c 0
 430.526946108 643 362.766467066 593 350 495 c 1
 350 138 l 1
 367.037362288 80.0946106009 449.795746776 27 531 27 c 0
 694.646041018 27 751 137.448996939 751 335 c 0
268 441 m 1
 268 506 246.405141844 529.594858156 200 576 c 2
 160 616 l 1
 122 592 l 2
 99.9524752475 578.075247525 84 570 74 570 c 0
 65 570 60 573 60 583 c 0
 60 596 246 711 267 711 c 0
 274 711 277 706 277 700 c 0
 277 692 272.150539752 681.808107501 262 674 c 0
 257.35403523 670.426180946 254.763605067 666.862920447 254.763605067 662.157761452 c 0
 254.763605067 653.697287482 263.139142202 641.5447575 283 619 c 2
 320 577 l 1
 359 611 l 2
 423.101606276 666.883451625 461 682 546 682 c 0
 739.543176636 682 850 524.875690388 850 332 c 0
 850 125.518360132 734.504162505 -18 564 -18 c 0
 494.702591437 -18 399.945934835 17.8973037638 350 57 c 1
 350 -235 l 2
 350 -297 l 2
 350 -318 356.967123288 -330.312328767 373 -332 c 2
 411 -336 l 2
 415.37260274 -336.460273973 418 -347 418 -353 c 0
 418 -360 415 -365 411 -370 c 1
 207 -370 l 1
 202.625 -365 200 -358 200 -353 c 0
 200 -346.625 203.134648089 -336.39644635 207 -336 c 2
 246 -332 l 2
 262.03802073 -330.355074797 268 -321 268 -297 c 2
 268 -235 l 2
 268 441 l 1
EndSplineSet
Validated: 524289
EndChar

StartChar: uni0422
Encoding: 194 1058 112
Width: 767
VWidth: 0
Flags: HW
LayerCount: 2
Back
SplineSet
408 690 m 1
 611 690 l 1
 615 685 618 680 618 673 c 0
 618 667 615.37260274 656.460273973 611 656 c 2
 573 652 l 2
 556.967123288 650.312328767 550 639 550 617 c 2
 550 73 l 2
 550 52 556.967123288 39.6876712329 573 38 c 2
 611 34 l 2
 615.37260274 33.5397260274 618 23 618 17 c 0
 618 10 615 5 611 0 c 1
 407 0 l 1
 402.625 5 400 12 400 17 c 0
 400 23.375 403.135706691 33.5932322833 407 34 c 2
 446 38 l 2
 462.033628406 39.6877503585 468 49 468 73 c 2
 468 617 l 6
 468 641 462.029372708 650.31269761 446 652 c 2
 408 656 l 2
 404.076031156 656.413049352 401 666.625 401 673 c 0
 401 678 403.625 685 408 690 c 1
EndSplineSet
Fore
SplineSet
650 735 m 1
 650 735 l 1
 658 735 666.763970556 716.895480703 689 667 c 0
 712.331033595 614.647436812 722.061734411 593.381348546 722.061734411 584.774916333 c 0
 722.061734411 579.467064733 718.360595725 578.9744 711.866048 578.9744 c 0
 710.3856 578.9744 708.76 579 707 579 c 0
 697 579 690 584 690 589 c 0
 690 594 676.907875708 611.913763128 661 629 c 0
 634 658 627 659 529 659 c 2
 424 659 l 1
 424 75 l 0
 424 51.3611111111 429.974344924 39.7921742185 447 38 c 2
 485 34 l 2
 488.946554268 33.584573235 492 23 492 17 c 0
 492 10 489 5 485 0 c 1
 281 0 l 1
 276 6 274 12 274 17 c 0
 274 23 276.932139859 33.5827835753 281 34 c 2
 320 38 l 2
 336.040935353 39.6452241387 342 49.3055555556 342 75 c 0
 342 659 l 1
 242 659 l 2
 140 659 109.563115353 646.540925785 63 590 c 0
 49.8875215598 574.077704751 40.6904460529 566.918777334 35.4845142631 566.918777334 c 0
 32.110035989 566.918777334 30.4124829194 569.926683507 30.4124829194 575.505529414 c 0
 30.4124829194 588.887703606 40.1800856072 617.062886813 60 654 c 0
 82 695 101 729 104 729 c 0
 107 729 116.084634416 720.058713577 123 710 c 0
 132.56687777 696.084541426 161.800111352 692.803864371 309.379041191 692.803864371 c 0
 331.486425662 692.803864371 356.249506893 692.8774833 384 693 c 0
 610.503759398 694 615.15057007 695.765018661 634 720 c 0
 641 729 645 735 650 735 c 1
EndSplineSet
Validated: 524293
EndChar

StartChar: uni043D
Encoding: 221 1085 113
Width: 605
VWidth: 0
Flags: HW
LayerCount: 2
Fore
SplineSet
204.959960938 60 m 2
 204.959960938 45 204.959960938 39.5 214.959960938 37 c 2
 234.959960938 32 l 2
 244.952148438 29.501953125 244.959960938 22.1044921875 244.959960938 16 c 0
 244.959960938 9.232421875 244.959960938 0 234.959960938 0 c 2
 99.9599609375 0 l 2
 89.9599609375 0 89.9599609375 9.23046875 89.9599609375 16 c 0
 89.9599609375 22.7685546875 89.9599609375 29.384765625 99.9599609375 32 c 2
 119.959960938 37 l 2
 129.959960938 39.5 129.959960938 45 129.959960938 60 c 2
 129.959960938 199.999023438 l 1
 204.959960938 199.999023438 l 1
 204.959960938 60 l 2
204.959960938 323.999023438 m 2
 204.959960938 183.999023438 l 1
 129.959960938 183.999023438 l 1
 129.959960938 323.999023438 l 2
 129.959960938 338.999023438 129.959960938 344.499023438 119.959960938 346.999023438 c 2
 99.9599609375 351.999023438 l 2
 89.9599609375 354.614257812 89.9599609375 361.23046875 89.9599609375 367.999023438 c 0
 89.9599609375 374.768554688 89.9599609375 383.999023438 99.9599609375 383.999023438 c 2
 234.959960938 383.999023438 l 2
 244.959960938 383.999023438 244.959960938 374.766601562 244.959960938 367.999023438 c 0
 244.959960938 361.89453125 244.952148438 354.497070312 234.959960938 351.999023438 c 2
 214.959960938 346.999023438 l 2
 204.959960938 344.499023438 204.959960938 338.999023438 204.959960938 323.999023438 c 2
474.959960938 60 m 2
 474.959960938 45 474.959960938 39.5 484.959960938 37 c 2
 504.959960938 32 l 2
 514.952148438 29.501953125 514.959960938 22.1044921875 514.959960938 16 c 0
 514.959960938 9.232421875 514.959960938 0 504.959960938 0 c 2
 369.959960938 0 l 2
 359.959960938 0 359.959960938 9.23046875 359.959960938 16 c 0
 359.959960938 22.7685546875 359.959960938 29.384765625 369.959960938 32 c 2
 389.959960938 37 l 2
 399.959960938 39.5 399.959960938 45 399.959960938 60 c 2
 399.959960938 200 l 1
 474.959960938 200 l 1
 474.959960938 60 l 2
474.959960938 323.999023438 m 2
 474.959960938 184 l 1
 399.959960938 184 l 1
 399.959960938 323.999023438 l 2
 399.959960938 338.999023438 399.959960938 344.499023438 389.959960938 346.999023438 c 2
 369.959960938 351.999023438 l 2
 359.959960938 354.614257812 359.959960938 361.23046875 359.959960938 367.999023438 c 0
 359.959960938 374.768554688 359.959960938 383.999023438 369.959960938 383.999023438 c 2
 504.959960938 383.999023438 l 2
 514.959960938 383.999023438 514.959960938 374.766601562 514.959960938 367.999023438 c 0
 514.959960938 361.89453125 514.952148438 354.497070312 504.959960938 351.999023438 c 2
 484.959960938 346.999023438 l 2
 474.959960938 344.499023438 474.959960938 338.999023438 474.959960938 323.999023438 c 2
179.959960938 213.999023438 m 1
 419.959960938 213.999023438 l 1
 419.959960938 179.999023438 l 1
 179.959960938 179.999023438 l 1
 179.959960938 213.999023438 l 1
EndSplineSet
Validated: 524293
EndChar

StartChar: uni041F
Encoding: 191 1055 114
Width: 911
VWidth: 0
Flags: HW
LayerCount: 2
Fore
SplineSet
98 690 m 1
 301 690 l 1
 305 685 308 680 308 673 c 0
 308 667 305.37260274 656.460273973 301 656 c 2
 263 652 l 2
 246.967123288 650.312328767 240 639 240 617 c 2
 240 73 l 2
 240 52 246.967123288 39.6876712329 263 38 c 2
 301 34 l 2
 305.37260274 33.5397260274 308 23 308 17 c 0
 308 10 305 5 301 0 c 1
 97 0 l 1
 92.625 5 90 12 90 17 c 0
 90 23.375 93.1346480893 33.6035536502 97 34 c 2
 136 38 l 2
 152.03802073 39.6449252031 158 49 158 73 c 2
 158 617 l 2
 158 641 152.029372708 650.31269761 136 652 c 2
 98 656 l 2
 94.0760311559 656.413049352 91 666.625 91 673 c 0
 91 678 93.625 685 98 690 c 1
611 690 m 1
 814 690 l 1
 818 685 821 680 821 673 c 0
 821 667 818.37260274 656.460273973 814 656 c 2
 776 652 l 2
 759.967123288 650.312328767 753 638 753 617 c 2
 753 73 l 2
 753 51 759.967123288 39.6876712329 776 38 c 2
 814 34 l 2
 818.37260274 33.5397260274 821 23 821 17 c 0
 821 10 818 5 814 0 c 1
 611 0 l 1
 606 5 604 12 604 17 c 0
 604 23.375 606.610279766 33.5497722837 611 34 c 2
 650 38 l 2
 666.036434613 39.6447625244 672 49 672 73 c 2
 672 617 l 2
 672 641 666.035154419 650.355368778 650 652 c 2
 611 656 l 2
 606.544989862 656.456924117 604 666.625 604 673 c 0
 604 678 606 685 611 690 c 1
210 690 m 1
 704 690 l 1
 704 651 l 1
 210 651 l 1
 210 690 l 1
EndSplineSet
Validated: 524293
EndChar

StartChar: uni0421
Encoding: 193 1057 115
Width: 827
VWidth: 0
Flags: HW
LayerCount: 2
Fore
SplineSet
90 340 m 0
 90 589 278 708 444 708 c 0
 521 708 562 692 615 663 c 1
 630.823969427 656.766315074 640.669657661 652.602035177 647.403735576 652.602035177 c 0
 654.713199151 652.602035177 658.356599575 657.508341402 662 670 c 0
 666 683 672 689 678 689 c 0
 686 689 692 684 692 673 c 2
 692 514 l 2
 692 498 685 499 681 499 c 0
 676 499 672 500 667 517 c 0
 641 607 564 674 466 674 c 0
 276 674 187 534 187 355 c 0
 187 168 290 17 472 17 c 0
 558 17 635 81 688 164 c 0
 706 192 724 216 729 216 c 0
 735 216 737 212 737 205 c 0
 737 192 728 169 713 143 c 0
 662 56 580 -18 459 -18 c 0
 220 -18 90 117 90 340 c 0
EndSplineSet
Validated: 524289
EndChar

StartChar: uni0423
Encoding: 195 1059 116
Width: 890
VWidth: 0
Flags: HW
LayerCount: 2
Fore
SplineSet
66.0498046875 -440.229492188 m 0
 48.6283620485 -432.976244099 39.7296876994 -413.688178328 39.7296876994 -394.341724955 c 0
 39.7296876994 -376.309772653 47.460196727 -358.227097527 63.2255859375 -349.791015625 c 0
 70.2906042347 -346.010514415 77.8810025998 -344.246847503 85.4315080836 -344.246847503 c 0
 107.316642798 -344.246847503 128.866625526 -359.063938938 136.31640625 -382.533203125 c 0
 139.923346747 -393.896254276 147.114660852 -399.149974705 157.026151197 -399.149974705 c 0
 204.933142582 -399.149974705 316.390332753 -276.409774009 393.810546875 -127.546875 c 0
 429.5546875 -58.818359375 458.798828125 7.4111328125 458.798828125 19.62890625 c 0
 458.798828125 31.857421875 437.187898096 82.2674735479 410.763671875 131.655273438 c 0
 384.344726562 181.033203125 314.545826684 319.234820822 255.649414062 438.765625 c 0
 179.500976563 593.309570312 143.040039062 656.092773438 129.42578125 656.092773438 c 0
 102.158203125 656.092773438 74.52734375 668.073242188 74.52734375 679.907226562 c 0
 74.52734375 685.456054688 110.409179688 690 154.264648438 690 c 2
 234 690 l 1
 262.487304688 625.012695312 l 2
 289.824901235 562.648188184 428.723621827 271.0200125 475.750976562 177.258789062 c 0
 490.532355552 147.788277995 499.763509538 129.105833187 509.959721138 129.105833187 c 0
 510.233801156 129.105833187 510.50857849 129.119332472 510.784179688 129.146484375 c 0
 527.9921875 130.841796875 553.991276709 183.798587234 602.860351562 331.249023438 c 0
 625.952148438 400.922851562 640.380146481 440.756171406 661.940429688 508.250976562 c 0
 674.533203125 547.672851562 684.836914062 599.60546875 684.836914062 623.65625 c 0
 684.836914062 666.106445312 683.674804688 667.395507812 645.279296875 667.395507812 c 0
 617.23828125 667.395507812 605.723632812 672.447265625 605.723632812 684.755859375 c 0
 605.723632812 695.959131079 615.664462566 699.886466691 660.990842133 699.886466691 c 0
 674.834526336 699.886466691 691.979071664 699.520114055 713.149414062 698.8828125 c 0
 782.872066075 696.783916142 824.768262009 688.606827697 824.768262009 679.915636578 c 0
 824.768262009 675.646488043 814.659487193 671.253296071 792.774414062 667.395507812 c 0
 753.15234375 660.411132812 753.69378524 661.416881738 689.30078125 475.260742188 c 0
 538.44140625 39.1357421875 381.928455063 -272.009467018 261.48046875 -375.220703125 c 0
 207.380870785 -421.578359652 149.88426064 -447.228140768 103.845605058 -447.228140768 c 0
 90.0925018806 -447.228140768 77.3618985041 -444.939172354 66.0498046875 -440.229492188 c 0
EndSplineSet
Validated: 524289
Colour: ff0000
EndChar

StartChar: uni0424
Encoding: 196 1060 117
Width: 847
VWidth: 0
Flags: HW
LayerCount: 2
Fore
SplineSet
597 182 m 0
 645 216 689 299 689 356 c 0
 689 436 642.605368886 517.197315557 583 547 c 0
 557 560 521 570 504 570 c 2
 476 570 l 1
 476 151 l 1
 523 151 l 2
 550 151 581.155670586 170.776933332 597 182 c 0
394 570 m 1
 342 570 l 2
 231 570 172 483 172 357 c 3
 172 289 200.897876462 229.886521124 242 193 c 0
 281 158 304 151 359 151 c 2
 394 151 l 1
 394 570 l 1
340 0 m 0
 333 0 328 11 328 16 c 0
 328 28 339.634504792 35.2626198083 356 40 c 2
 394 51 l 1
 394 104 l 1
 284 120 184.956866554 135.356576376 131 224 c 0
 103 270 90 318 90 364 c 3
 90 486 184 593 325 593 c 2
 394 593 l 1
 394 634 l 1
 389 647 379.840236686 650.183431953 356 660 c 2
 339 667 l 2
 331.103550296 670.25147929 328 677 328 683 c 0
 328 688 333 694 339 694 c 1
 516 694 l 0
 524 694 531 690 531 683 c 0
 531 677 525.692307692 673.538461538 516 668 c 2
 502 660 l 2
 490.369230769 653.353846154 482 646 476 634 c 1
 476 593 l 1
 521 593 l 2
 610.206896552 593 674.738601244 552.477679422 720 486 c 0
 752 439 757 423 757 361 c 0
 757 280 744.351885034 237.672218122 708 199 c 0
 661 149 556 127 476 111 c 1
 476 52 l 1
 508 43 l 2
 528.358371041 37.2742081448 536 21 536 16 c 0
 536 8 532 0 522 0 c 3
 340 0 l 0
EndSplineSet
Validated: 524289
Colour: ff0000
EndChar

StartChar: uni0425
Encoding: 197 1061 118
Width: 1000
VWidth: 0
Flags: H
LayerCount: 2
Fore
SplineSet
165.140625 9.837890625 m 2
 165.140625 18.7099609375 178.321289062 24.72265625 197.794921875 24.72265625 c 0
 241.295898438 24.72265625 258.974609375 41.2236328125 383.734375 198.310546875 c 2
 490.185546875 332.353515625 l 1
 414.611328125 441.305664062 l 2
 281.461550909 633.266145372 276.019781871 646.213521435 243.943825802 646.213521435 c 0
 238.94219822 646.213521435 233.292976471 645.898713808 226.410993461 645.898713808 c 0
 225.776804399 645.898713808 225.132146721 645.901387157 224.4765625 645.907226562 c 0
 189.505859375 646.245117188 176.442382812 650.948242188 176.442382812 663.2890625 c 0
 176.442382812 676.942382812 194.043945312 680.2421875 267.033203125 680.2421875 c 2
 357.624023438 680.2421875 l 1
 448.9453125 541.791992188 l 2
 499.174804688 465.638671875 543.598632812 402.211914062 547.666015625 400.821289062 c 0
 547.831077518 400.765317066 548.015874528 400.737743364 548.219571939 400.737743364 c 0
 553.034091691 400.737743364 568.407201713 416.141618929 583.317382812 436.061523438 c 0
 598.857421875 456.811523438 640.81640625 508.51953125 676.559570312 550.958007812 c 0
 719.702167703 602.185410751 739.681071808 630.915506711 739.681071808 645.342821027 c 0
 739.681071808 654.16451017 732.211354339 657.638671875 718 657.638671875 c 0
 704.168945312 657.638671875 696.411132812 663.458984375 699.197265625 671.766601562 c 0
 702.473632812 681.51953125 732.467773438 685.893554688 796.2578125 685.893554688 c 0
 856.321944244 685.893554688 892.234406419 678.834711816 892.234406419 671.142988267 c 0
 892.234406419 666.374393149 878.431239254 661.362546602 848.022460938 657.638671875 c 0
 804.611328125 652.315429688 795.157226562 643.555664062 685.926757812 507.4453125 c 0
 624.126713512 430.446178794 575.721084365 361.222348679 575.721084365 350.109654533 c 0
 575.721084365 342.72065536 628.078749295 268.209889078 682.782226562 188.602539062 c 2
 783.748046875 41.67578125 l 1
 836.8359375 38.1943359375 l 2
 872.393810868 35.8701339851 888.552479006 30.5087046427 888.552479006 24.7024123946 c 0
 888.552479006 16.1953589203 853.865529802 6.73334202471 794.68359375 4.4697265625 c 2
 708.361328125 1.1806640625 l 1
 610.37109375 148.276367188 l 2
 557.764525824 227.243412562 510.503362913 289.734142531 503.511878137 289.734142531 c 0
 485.734470353 289.734142531 312.067382812 41.4445642041 312.067382812 36.9853515625 c 0
 312.067382812 30.23828125 325.206054688 24.72265625 341.265625 24.72265625 c 0
 357.320370585 24.72265625 366.302999093 20.6919314694 366.302999093 13.7316658064 c 0
 366.302999093 12.7439634306 366.12211349 11.697268103 365.754882812 10.5947265625 c 0
 362.247865034 0.0696953248719 310.301831939 -5.28389637406 260.153524285 -5.28389637406 c 0
 211.811808401 -5.28389637406 165.140625 -0.309082853916 165.140625 9.8037109375 c 2
 165.140625 9.837890625 l 2
EndSplineSet
Validated: 524289
Colour: ff0000
EndChar

StartChar: uni0426
Encoding: 198 1062 119
Width: 843
VWidth: 0
Flags: HW
LayerCount: 2
Fore
SplineSet
97 690 m 1
 315 690 l 1
 320 685 322 680 322 674 c 0
 322 668 319 661 315 657 c 2
 277 652 l 2
 260 650 253 640 253 617 c 2
 253 382 l 1
 253 357 l 1
 253 73 l 1
 253 50 l 1
 546 50 l 1
 546 73 l 1
 546 357 l 1
 546 382 l 1
 546 617 l 2
 546 642 540 651 524 652 c 2
 485 657 l 2
 481 661 479 668 479 674 c 0
 479 679 480 685 485 690 c 1
 703 690 l 1
 708 685 710 680 710 674 c 0
 710 668 707 661 703 657 c 2
 665 652 l 2
 649.054326439 650.124038405 641.906732647 641.209612995 641.906732647 621.130508831 c 0
 641.906732647 619.802880348 641.937980798 618.426441653 642 617 c 2
 642 382 l 1
 642 357 l 1
 642 73 l 1
 642 50 l 1
 645 50 l 1
 731 50 l 2
 733 50 735 50 737 50 c 0
 789 50 830 33 830 29 c 0
 830 24 793 -16 749 -61 c 2
 668 -142 l 1
 707 -159 l 2
 728 -168 763 -194 784 -216 c 0
 809 -243 830 -256 855 -256 c 0
 875 -256 898 -247 928 -229 c 0
 950 -217 966 -210 975 -210 c 0
 980 -210 982 -212 984 -214 c 0
 985 -216 986 -218 986 -220 c 0
 986 -234 958 -255 903 -281 c 0
 875 -294 852 -300 829 -300 c 0
 808 -300 788 -295 763 -285 c 1
 763 -285 l 1
 742 -276 708 -253 687 -234 c 0
 661 -212 646 -202 628 -202 c 0
 617 -202 604 -206 587 -214 c 0
 574 -220 564 -223 559 -223 c 0
 554 -223 552 -221 552 -218 c 0
 552 -207 576 -178 621 -135 c 0
 664 -93 710 -48 721 -34 c 2
 743 -8 l 1
 699 0 l 1
 645 0 l 1
 195 0 l 2
 165 0 158 17 158 50 c 2
 158 357 l 1
 158 382 l 1
 158 617 l 2
 158 642 152 651 136 652 c 2
 97 657 l 2
 93 661 90 668 90 674 c 0
 90 679 92 685 97 690 c 1
EndSplineSet
Validated: 524289
Colour: ff0000
EndChar

StartChar: uni0427
Encoding: 199 1063 120
Width: 696
VWidth: 0
Flags: HW
LayerCount: 2
Fore
SplineSet
98 690 m 1
 316 690 l 1
 320 685 322 680 322 673 c 0
 322 668 319 661 316 656 c 2
 277 652 l 2
 262 650 255 641 254 623 c 2
 254 449 l 2
 254 409 256 332 328 332 c 0
 357 332 388 344 414 366 c 0
 428 377 436 386 441 405 c 1
 441 617 l 2
 441 641 435 650 419 652 c 2
 380 657 l 2
 376 661 373 667 373 673 c 0
 373 679 375 685 380 690 c 1
 598 690 l 1
 602 685 605 680 605 673 c 0
 605 668 602 661 598 656 c 2
 559 652 l 2
 543 650 536 639 536 617 c 2
 536 382 l 1
 536 357 l 1
 536 73 l 2
 536 51 543 40 559 38 c 2
 598 34 l 2
 602 29 605 22 605 17 c 0
 605 10 602 5 598 0 c 1
 380 0 l 1
 375 5 373 11 373 17 c 0
 373 23 376 29 380 33 c 2
 419 38 l 2
 435 40 441 49 441 73 c 2
 441 340 l 2
 440 340 440 340 439 340 c 0
 437 340 422 332 402 322 c 0
 369 306 336 298 307 298 c 0
 304 298 301 298 299 298 c 0
 194 298 158 368 158 437 c 2
 158 617 l 2
 158 641 152 650 136 652 c 2
 97 657 l 2
 93 661 91 667 91 673 c 0
 91 679 93 685 98 690 c 1
EndSplineSet
Validated: 1
Colour: ff0000
EndChar

StartChar: uni0428
Encoding: 200 1064 121
Width: 1000
VWidth: 0
Flags: H
LayerCount: 2
Fore
SplineSet
41 690 m 1
 259 690 l 1
 263 685 266 680 266 673 c 0
 266 668 263 661 259 656 c 2
 221 652 l 2
 204 650 197 639 197 617 c 2
 197 382 l 1
 197 357 l 1
 197 73 l 1
 197 50 l 1
 451 50 l 1
 451 73 l 1
 451 357 l 1
 451 382 l 1
 451 617 l 2
 451 641 445 650 429 652 c 2
 390 657 l 2
 386 661 383 667 383 673 c 0
 383 679 385 685 390 690 c 1
 608 690 l 1
 613 685 615 680 615 673 c 0
 615 668 612 661 608 656 c 2
 570 652 l 2
 554.054326439 650.124038405 546.906732647 640.329805018 546.906732647 620.966813864 c 0
 546.906732647 619.686534706 546.937980798 618.364422451 547 617 c 2
 547 382 l 1
 547 357 l 1
 547 73 l 1
 547 50 l 1
 795 50 l 1
 795 73 l 1
 795 357 l 1
 795 382 l 1
 795 617 l 2
 795 641 789 650 773 652 c 2
 734 657 l 2
 730 661 728 667 728 673 c 0
 728 679 730 685 735 690 c 1
 952 690 l 1
 957 685 959 680 959 673 c 0
 959 668 956 661 952 656 c 2
 914 652 l 2
 898.054326439 650.124038405 890.906732647 640.329805018 890.906732647 620.966813864 c 0
 890.906732647 619.686534706 890.937980798 618.364422451 891 617 c 2
 891 382 l 1
 891 357 l 1
 891 50 l 2
 891 15 886 0 855 0 c 2
 138 0 l 2
 109 0 102 17 102 50 c 2
 102 357 l 1
 102 382 l 1
 102 617 l 2
 102 641 96 650 80 652 c 2
 41 657 l 2
 37 661 34 667 34 673 c 0
 34 679 36 685 41 690 c 1
EndSplineSet
Validated: 524289
Colour: ff0000
EndChar

StartChar: uni0429
Encoding: 201 1065 122
Width: 1000
VWidth: 0
Flags: H
LayerCount: 2
Fore
SplineSet
41 690 m 5
 259 690 l 5
 263 685 266 680 266 673 c 4
 266 668 263 661 259 656 c 6
 221 652 l 6
 204 650 197 639 197 617 c 6
 197 382 l 5
 197 357 l 5
 197 73 l 5
 197 50 l 5
 451 50 l 5
 451 73 l 5
 451 357 l 5
 451 382 l 5
 451 617 l 6
 451 641 445 650 429 652 c 6
 390 657 l 6
 386 661 383 667 383 673 c 4
 383 679 385 685 390 690 c 5
 608 690 l 5
 613 685 615 680 615 673 c 4
 615 668 612 661 608 656 c 6
 570 652 l 6
 553 650 546 639 547 617 c 6
 547 382 l 5
 547 357 l 5
 547 73 l 5
 547 50 l 5
 795 50 l 5
 795 73 l 5
 795 357 l 5
 795 382 l 5
 795 617 l 6
 795 641 789 650 773 652 c 6
 734 657 l 6
 730 661 728 667 728 673 c 4
 728 679 730 685 735 690 c 5
 952 690 l 5
 957 685 959 680 959 673 c 4
 959 668 956 661 952 656 c 6
 914 652 l 6
 897 650 890 639 891 617 c 6
 891 382 l 5
 891 357 l 5
 891 50 l 6
 891 50 l 6
 989 50 l 5
 1049 48 1077 47 1077 23 c 4
 1077 1 1053 -41 1007 -123 c 4
 945 -234 936 -245 906 -245 c 4
 888 -245 874 -239 874 -232 c 4
 874 -225 900 -171 931 -112 c 4
 961 -55 984 -13 984 -9 c 4
 984 -8 971 0 944 -0 c 6
 855 -0 l 5
 795 -0 l 5
 138 -0 l 6
 108 0 102 17 102 50 c 6
 102 357 l 5
 102 382 l 5
 102 617 l 6
 102 641 96 650 80 652 c 6
 41 657 l 6
 37 661 34 667 34 673 c 4
 34 678 36 685 41 690 c 5
EndSplineSet
Validated: 37
Colour: ff0000
EndChar

StartChar: uni042A
Encoding: 202 1066 123
Width: 922
VWidth: 0
Flags: HW
LayerCount: 2
Fore
SplineSet
574 53 m 0
 685 86 752 204 752 344 c 0
 752 386 746 431 732 476 c 0
 709 555 636 637 579 648 c 0
 571 650 562 650 553 650 c 0
 511 650 460 633 425 606 c 0
 383 572 375 520 375 258 c 0
 375 241 375 226 375 212 c 0
 375 52 378 35 394 31 c 0
 401 29 410 28 421 28 c 0
 461 28 523 38 574 53 c 0
190 8 m 0
 185 12 182 17 182 20 c 0
 182 29 198 34 230 36 c 2
 278 40 l 1
 286 209 l 2
 292 352 296 572 296 735 c 0
 296 849 294 935 290 947 c 0
 285 963 274 971 258 971 c 0
 243 971 224 965 201 954 c 0
 150 928 114 892 114 867 c 0
 114 856 110 850 104 850 c 0
 96 850 85 860 83 877 c 0
 83 879 82 881 82 883 c 0
 82 937 199 1012 305 1025 c 0
 319 1026 330 1027 338 1027 c 0
 357 1027 363 1023 368 1010 c 0
 374 995 386 737 386 625 c 0
 386 624.842329219 386.124300376 624.765453683 386.365061712 624.765453683 c 0
 389.178275691 624.765453683 407.892049369 635.261366246 430 650 c 0
 475 678 515 691 559 691 c 0
 579 691 599 688 621 683 c 0
 762 651 847 522 847 346 c 0
 847 334 847 322 846 310 c 0
 839 198 812 133 750 77 c 0
 679 13 618 0 391 0 c 0
 285 0 194 3 190 8 c 0
EndSplineSet
Validated: 524289
Colour: ff0000
EndChar

StartChar: uni042B
Encoding: 203 1067 124
Width: 1140
VWidth: 0
Flags: HW
LayerCount: 2
Fore
SplineSet
434.370117188 57.7890625 m 1
 524.541992188 85.8515625 564.726000749 116.368921669 596.498046875 180.879882812 c 0
 619.314453125 227.20703125 622.8984375 251.359375 622.8984375 358.807617188 c 0
 622.8984375 471.975585938 620.069063113 488.882695932 591.375 547.315429688 c 0
 565.623046875 599.756835938 550.478172335 616.053978329 508.661132812 636.296875 c 0
 479.804271833 650.265976154 450.890032803 657.118255514 422.93551221 657.118255514 c 0
 366.346540416 657.118255514 313.690382071 629.038419387 273.404296875 575.073242188 c 0
 252.193359375 546.66015625 249.910991413 523.775340214 246 307.53125 c 0
 245.141269529 260.050862069 244.732023643 214.859223452 244.732023643 176.098092618 c 0
 244.732023643 108.053869729 245.9931946 59.8265098627 248.297851562 53.822265625 c 0
 252.679574026 42.4067134257 275.467019394 36.7995893255 307.160410644 36.7995893255 c 0
 342.803975742 36.7995893255 389.711858774 43.8915287323 434.37109375 57.7890625 c 1
 434.370117188 57.7890625 l 1
83.2236328125 11.3603515625 m 1
 55.5068674054 14.0379550284 42.1648667568 19.2548006982 42.1648667568 24.4947773491 c 0
 42.1648667568 30.5799720268 60.158182766 36.6963616551 94.52734375 38.9033203125 c 2
 148.211914062 42.3505859375 l 1
 154.215820312 172.3125 l 2
 157.403760679 241.319378977 159.875866595 419.064403118 159.875866595 573.894936709 c 0
 159.875866595 579.457994381 159.872675197 584.991470287 159.866210938 590.489257812 c 2
 159.52734375 878.692382812 l 1
 116.770507812 884.342773438 l 2
 93.3833128622 887.43343214 74.3859077552 893.744132149 74.3859077552 898.392812128 c 0
 74.3859077552 903.098808578 74.7724609375 911.992244039 74.7724609375 918.249023438 c 0
 74.7724609375 925.166015625 127.514648438 929.55078125 210.396484375 929.55078125 c 0
 318.788085938 929.55078125 346.021484375 926.3984375 346.021484375 913.806640625 c 0
 346.021484375 895.588867188 321.952148438 884.342773438 282.935546875 884.342773438 c 0
 255.616210938 884.342773438 255.60546875 884.342773438 255.60546875 754.606445312 c 2
 255.60546875 624.870117188 l 1
 303.731445312 658.788085938 l 2
 348.927222859 690.640924673 400.819150046 705.770526621 452.193196113 705.770526621 c 0
 541.854872642 705.770526621 629.939096829 659.686154913 678.095703125 575.989257812 c 0
 709.190478235 521.946076764 721.371265568 461.101991152 721.371265568 358.416652108 c 0
 721.371265568 356.027135049 721.364669597 353.614960694 721.3515625 351.1796875 c 0
 720.447265625 183.163085938 669.240979597 88.3844049859 550.037109375 33.9873046875 c 0
 506.669921875 14.197265625 474.041351773 10.750515462 312.694335938 9.15625 c 0
 298.670106395 9.01767697046 284.639090639 8.95783490533 270.804676383 8.95783490533 c 0
 183.146850796 8.95783490533 103.38210805 11.3603515625 83.2490234375 11.3603515625 c 2
 83.2236328125 11.3603515625 l 1
839.767578125 690.709960938 m 1
 1057.703125 690.709960938 l 1
 1061.97460938 685.681640625 1064.52929688 680.659179688 1064.52929688 674.063476562 c 0
 1064.52929688 668.221679688 1061.8558365 657.655745571 1057.703125 657.170898438 c 2
 1019.09375 652.663085938 l 2
 1002.60947605 650.73847524 995.93359375 640.002929688 995.93359375 617.659179688 c 2
 995.93359375 382.709960938 l 1
 995.93359375 357.709960938 l 1
 995.93359375 73.7607421875 l 2
 995.93359375 51.4169921875 1002.60947605 40.6833997603 1019.09375 38.7587890625 c 2
 1057.703125 34.2509765625 l 2
 1061.8558365 33.7661294286 1064.52929688 23.1982421875 1064.52929688 17.3564453125 c 0
 1064.52929688 10.7607421875 1061.97460938 5.73828125 1057.703125 0.7099609375 c 1
 839.767578125 0.7099609375 l 1
 834.747070312 6.1240234375 832.841796875 12.18359375 832.841796875 17.3564453125 c 0
 832.841796875 23.3974609375 835.083157283 33.6335023215 839.66796875 34.1845703125 c 2
 878.27734375 38.8251953125 l 2
 894.413195416 40.7646319554 900.224609375 49.3408203125 900.224609375 73.7568359375 c 2
 900.224609375 357.709960938 l 1
 900.224609375 382.709960938 l 1
 900.224609375 617.663085938 l 2
 900.224609375 642.079101562 894.413086149 650.654486797 878.27734375 652.594726562 c 2
 839.66796875 657.237304688 l 2
 835.08288798 657.788636992 832.841796875 668.022460938 832.841796875 674.063476562 c 0
 832.841796875 679.236328125 834.747070312 685.295898438 839.767578125 690.709960938 c 1
EndSplineSet
Validated: 524289
Colour: ff0000
EndChar

StartChar: uni042C
Encoding: 204 1068 125
Width: 804
VWidth: 0
Flags: HW
LayerCount: 2
Fore
SplineSet
459.248046875 50.875 m 1
 537.420898438 68.4609375 615.6015625 145.439453125 640.193359375 229.041015625 c 0
 651.958509051 269.036462123 657.478539655 312.191427851 657.478539655 354.986470566 c 0
 657.478539655 465.230381559 620.846273937 573.0857559 559.977539062 618.385742188 c 0
 528.976534392 641.458610197 493.078180051 652.754141008 456.670614626 652.754141008 c 0
 407.333251606 652.754141008 357.06077054 632.010965852 316.7734375 591.723632812 c 0
 277.8671875 552.822265625 273.771484375 542.91015625 271.678710938 482.61328125 c 0
 269.349123015 415.543561049 268.191359816 307.276497163 268.191359816 213.850218717 c 0
 268.191359816 118.387244339 269.400151784 38.4191675744 271.802734375 33.7294921875 c 0
 273.421597617 30.5659252773 283.026646077 29.1070604242 297.925175456 29.1070604242 c 0
 333.643591026 29.1070604242 399.787590399 37.4922450557 459.251953125 50.875 c 1
 459.248046875 50.875 l 1
78.1318359375 1.7783203125 m 1
 64.3177223502 4.4495865527 58.1760983717 8.33642041322 58.1760983717 12.2350646808 c 0
 58.1760983717 19.2896035575 78.2852276459 26.3828125 109.43359375 26.3828125 c 0
 137.040039062 26.3828125 162.661132812 31.2890625 166.369140625 37.2890625 c 0
 170.077148438 43.291015625 175.71875 236.556640625 178.90234375 466.768554688 c 2
 184.69140625 885.340820312 l 1
 153.047851562 885.453125 l 2
 124.807135876 885.653610735 91.8520216289 898.772412421 91.8520216289 908.32162043 c 0
 91.8520216289 909.517152158 92.3685692039 910.656733088 93.4755859375 911.708007812 c 0
 96.4013671875 914.48828125 161.880859375 918.580078125 238.98046875 920.794921875 c 0
 265.890151509 921.571408228 288.295084975 921.979535339 306.797905306 921.979535339 c 0
 360.479915516 921.979535339 381.315997904 918.544136837 384.0234375 910.702148438 c 0
 384.379237747 909.669095785 384.558411034 908.694941107 384.558411034 907.778745343 c 0
 384.558411034 900.124924486 372.054286556 896.515933485 345.561523438 896.404296875 c 0
 321.732421875 896.291992188 296.34765625 892.483398438 289.150390625 887.90625 c 0
 280.284386407 882.268130834 268.467252133 723.943684485 268.467252133 650.628783019 c 0
 268.467252133 628.419854745 269.551635539 614.011712824 272.130923461 614.011712824 c 0
 274.231081766 614.016055857 297.108518589 629.209475297 322.993164062 647.771484375 c 0
 349.981445312 667.130859375 397.5703125 687.034179688 434.583984375 694.448242188 c 0
 456.89576506 698.919918664 471.807792527 701.701670246 485.400423346 701.701670246 c 0
 509.976425976 701.701670246 530.239315739 692.60811331 582.126953125 667.967773438 c 0
 651.166992188 635.180664062 671.14453125 619.176757812 700.83984375 572.90625 c 0
 740.643228826 510.8786709 759.699705553 431.486745903 759.699705553 352.703659394 c 0
 759.699705553 243.377274013 723.003039895 135.223316395 654.126953125 76.2705078125 c 0
 585.315429688 17.3759765625 524.056640625 4.513671875 295.696289062 1.06640625 c 0
 248.239504208 0.350056615805 202.926444475 8.17252214913e-005 165.995373957 8.17252214913e-005 c 0
 117.891673536 8.17252214913e-005 84.0086502586 0.59384053351 78.1318359375 1.7451171875 c 1
 78.1318359375 1.7783203125 l 1
EndSplineSet
Validated: 524289
Colour: ff0000
EndChar

StartChar: uni042D
Encoding: 205 1069 126
Width: 761
VWidth: 0
Flags: HW
LayerCount: 2
Fore
SplineSet
100.368164062 36.8251953125 m 2
 100.096679688 69.4541015625 95.673828125 117.883789062 90.5380859375 144.432617188 c 0
 87.4825910687 160.2322529 86.0155429102 172.413423435 86.0155429102 180.974622052 c 0
 86.0155429102 191.095707931 88.0658997205 196.157495631 91.9660317285 196.157495631 c 0
 99.1552035482 196.157495631 112.629560361 178.958501867 131.1328125 144.544921875 c 0
 157.048828125 96.3984375 174.6640625 79.3994140625 225.182617188 53.7333984375 c 0
 268.268894527 31.8464555231 311.138427802 21.6373080974 351.6859672 21.6373080974 c 0
 489.196965873 21.6373080974 600.002082076 139.055486533 601.986328125 316.607421875 c 0
 602.012584069 318.95769747 602.025444042 321.304423199 602.025444042 323.641593325 c 0
 602.025444042 361.552369299 598.641799317 396.948927965 594.162109375 404.19921875 c 0
 588.514831938 413.332909463 568.983833267 417.747875916 546.766168668 417.747875916 c 0
 521.450394189 417.747875916 492.646436467 412.015785507 476.918945312 401.000976562 c 0
 463.420898438 391.541015625 438.524414062 358.357421875 421.59375 327.25390625 c 0
 382.107307362 254.695273719 333.805962911 223.620203335 259.703001266 223.620203335 c 0
 257.313396172 223.620203335 254.896960622 223.652517524 252.453125 223.716796875 c 0
 187.165039062 225.434570312 95.544921875 261.961914062 84.533203125 290.658203125 c 0
 81.9937946728 297.275293349 80.62158013 302.376901312 80.62158013 305.980195785 c 0
 80.62158013 310.343245903 82.633464005 312.509531117 87.0212045373 312.509531117 c 0
 94.3470280669 312.509531117 108.295798371 306.470786472 130.561523438 294.53515625 c 0
 158.397298963 279.614384534 190.251609891 271.964948843 218.644550323 271.964948843 c 0
 241.524355016 271.964948843 262.156492701 276.932167535 276.626953125 287.064453125 c 0
 289.040039062 295.766601562 316.524414062 328.271484375 337.704101562 359.306640625 c 0
 387.751384299 432.646996825 423.508793513 453.602858071 502.019973819 453.602858071 c 0
 504.208523279 453.602858071 506.430294615 453.586574291 508.686523438 453.5546875 c 0
 511.797318108 453.506937153 514.860268035 453.483766117 517.861205913 453.483766117 c 0
 550.334120409 453.483766117 575.545898437 456.196917158 575.545898438 459.838867188 c 0
 575.545898438 488.456054688 510.68359375 568.112304688 461.88671875 599.430664062 c 0
 421.4892337 625.354134276 376.476721461 638.479494144 332.116008433 638.479494144 c 0
 297.083885899 638.479494144 262.458253207 630.293958842 230.833007812 613.76171875 c 0
 169.581054688 581.731445312 150.171875 557.737304688 134.224609375 494.288085938 c 0
 127.214597601 466.393276431 116.603341028 434.975077014 111.669926933 434.975077014 c 0
 107.014914557 434.975077014 101.079969053 478.562746064 98.2724609375 534.1953125 c 0
 95.373046875 591.610351562 90.95703125 646.209960938 88.4541015625 655.534179688 c 0
 85.904296875 665.0390625 91.287109375 672.487304688 100.705078125 672.487304688 c 0
 109.944335938 672.487304688 119.337890625 662.315429688 121.581054688 649.8828125 c 0
 125.597954969 627.610191288 131.697540822 616.947085453 146.797435919 616.947085453 c 0
 159.274000011 616.947085453 177.895248409 624.226992988 206.563476562 638.252929688 c 0
 258.865009642 663.843006419 301.70050781 675.857927567 346.774418905 675.857927567 c 0
 369.804427602 675.857927567 393.418792856 672.721331155 419.178710938 666.65625 c 0
 542.512695312 637.620117188 610.1015625 581.698242188 664.21875 463.908203125 c 0
 687.156685225 413.984663224 697.75442126 362.052418816 697.75442126 311.528527653 c 0
 697.75442126 145.966214998 583.954362946 -4.4729920388 417.66796875 -19.5498046875 c 0
 407.542100833 -20.4683779408 396.560325089 -20.9008508815 385.052937486 -20.9008508815 c 0
 311.608502353 -20.9008508815 216.753436475 -3.28420412575 186.359375 18.0068359375 c 0
 172.190990375 27.9302571479 160.955796733 32.9489076712 152.108955716 32.9489076712 c 0
 140.259503837 32.9489076712 132.694733271 23.9454975823 128.10546875 5.6650390625 c 0
 123.35415821 -13.2687721431 118.130141464 -22.1331860372 113.508573266 -22.1331860372 c 0
 106.378029931 -22.1331860372 100.681609848 -1.03152994194 100.368164062 36.74609375 c 2
 100.368164062 36.8251953125 l 2
EndSplineSet
Validated: 524289
Colour: ff0000
EndChar

StartChar: uni042E
Encoding: 206 1070 127
Width: 1048
VWidth: 0
Flags: HW
LayerCount: 2
Fore
SplineSet
811 62 m 0
 872 108 901 182 907 302 c 0
 908 320 909 336 909 351 c 0
 909 441 892 490 847 549 c 0
 795 617 742 646 665 646 c 0
 658 646 650 645 643 645 c 0
 556 639 505 603 459 517 c 0
 435 470 429 442 425 355 c 0
 425 333 424 316 424 301 c 0
 424 249 431 231 456 179 c 0
 481 128 505 98 540 75 c 0
 597 36 611 28 658 28 c 0
 669 28 681 28 696 29 c 0
 757 31 778 37 811 62 c 0
28 17 m 2
 28 31 37 37 64 37 c 2
 100 37 l 1
 92 259 l 2
 88 381 85 518 85 563 c 0
 85 644 84 645 54 649 c 0
 35 651 23 659 23 670 c 0
 23 683 41 686 124 686 c 0
 207 686 226 683 226 670 c 0
 226 660 216 651 203 649 c 0
 191 646 177 639 173 632 c 0
 169 626 167 575 167 518 c 0
 167 446 170 366 175 361 c 0
 177 360 186 359 199 359 c 0
 214 359 234 360 256 362 c 2
 331 367 l 1
 339 408 l 2
 358 511 413 593 497 641 c 0
 551 672 610 686 667 686 c 0
 813 686 953 594 996 445 c 0
 1006 410 1011 374 1011 339 c 0
 1011 196 934 58 815 9 c 0
 785 -3 738 -9 689 -9 c 0
 633 -9 574 -1 534 14 c 0
 435 51 364 139 341 254 c 2
 326 325 l 1
 255 324 l 2
 186 322 169 315 169 276 c 0
 169 271 169 265 170 259 c 0
 171 239 173 181 174 131 c 0
 175 38 175 38 206 34 c 0
 223 33 237 24 237 16 c 0
 237 4 213 -0 133 -1 c 0
 118 -2 105 -2 95 -2 c 0
 37 -2 28 2 28 17 c 2
 28 17 l 2
EndSplineSet
Validated: 5
Colour: ff0000
EndChar

StartChar: uni042F
Encoding: 207 1071 128
Width: 799
VWidth: 0
Flags: HW
LayerCount: 2
Fore
SplineSet
550.901367188 494.795898438 m 2
 550.901367188 624.205078125 549.158203125 635.868164062 528.852539062 642.310546875 c 0
 523.287681901 644.077622438 516.670129346 644.903236923 509.348663751 644.903236923 c 0
 471.947933601 644.903236923 416.178304734 623.358489178 388.534179688 595.711914062 c 0
 365.468070433 572.643372238 353.95047175 535.403564308 353.95047175 497.83437598 c 0
 353.95047175 459.992229755 365.636040002 421.815899538 388.975585938 397.451171875 c 0
 419.950195312 365.116210938 439.4453125 358.334960938 508.516601562 355.826171875 c 2
 550.899414062 354.2890625 l 1
 550.901367188 494.795898438 l 2
89.6904296875 -9.46875 m 1
 73.6191363059 -7.10749726346 66.4025690318 -2.75263178851 66.4025690318 2.19002565888 c 0
 66.4025690318 11.4911799088 91.9580072724 22.8738336972 132.15234375 26.9697265625 c 0
 207.569335938 34.6552734375 234.028320312 63.0126953125 266.971679688 171.466796875 c 0
 292.15234375 254.3671875 331.94140625 301.915039062 387.892578125 315.952148438 c 0
 405.418065874 320.350384099 414.034248203 325.522692922 414.034248203 330.657819454 c 0
 414.034248203 336.897109702 401.31436978 343.081508559 376.400390625 347.755859375 c 0
 342.618164062 354.096679688 281.83984375 406.165039062 278.709960938 431.4375 c 0
 278.190429688 435.629882812 275.870117188 451.76953125 273.552734375 467.309570312 c 0
 272.255629409 476.003640235 271.621223151 484.677382054 271.621223151 493.27754066 c 0
 271.621223151 560.26507165 310.110741693 622.78829857 373.719726562 655.680664062 c 0
 399.087574565 668.798248082 502.718096232 676.42925154 587.624015498 676.42925154 c 0
 650.379769472 676.42925154 706.397108092 673.406708198 706.397108092 660.96295817 c 0
 706.397108092 653.82595747 693.729585829 648.06704505 673.083984375 646.0859375 c 2
 635.666015625 642.491210938 l 1
 632.66015625 335.278320312 l 1
 629.65234375 28.0654296875 l 1
 660.913085938 24.47265625 l 2
 678.106445312 22.494140625 692.174804688 15.7919921875 692.174804688 9.5751953125 c 0
 692.174804688 3.087890625 647.625 -3.1162109375 587.630859375 -4.9814453125 c 0
 574.023586295 -5.40295971708 561.620551244 -5.61041079414 550.496051122 -5.61041079414 c 0
 507.032940786 -5.61041079414 483.0859375 -2.44378832907 483.0859375 3.4951171875 c 0
 483.0859375 9.94921875 492.635742188 15.2265625 504.305664062 15.2265625 c 0
 515.977539062 15.2265625 530.25 21.5791015625 536.0234375 29.3544921875 c 0
 540.956951667 35.9938108814 544.065305466 118.968789707 544.065305466 196.400400658 c 0
 544.065305466 242.73568293 542.95224827 287.085964169 540.451171875 311.90625 c 0
 539.825000538 318.114886613 531.68048997 320.908018743 519.776479799 320.908018743 c 0
 497.074915995 320.908018743 460.700629227 310.74982594 436.723632812 294.75 c 0
 406.936523438 274.869140625 392.826171875 252.68359375 373.829101562 195.856445312 c 0
 339.135742188 92.0810546875 315.198242188 51.9921875 271.963867188 25.2744140625 c 0
 239.545434487 5.23299080361 165.095189637 -11.0122163719 113.94409127 -11.0122163719 c 0
 105.037115522 -11.0122163719 96.8366047308 -10.5196374018 89.6875 -9.46875 c 1
 89.6904296875 -9.46875 l 1
EndSplineSet
Validated: 524289
Colour: ff0000
EndChar

StartChar: uni0430
Encoding: 208 1072 129
Width: 481
VWidth: 0
Flags: HW
LayerCount: 2
Fore
SplineSet
241 52 m 1
 251.083356494 67.7300361312 255.961000185 83.6227507875 255.961000185 97.3160463587 c 0
 255.961000185 117.572992403 245.286635168 133.016671299 225 136 c 0
 217.885145078 137.002092243 211.101672481 137.482006277 204.688827513 137.482006277 c 0
 163.330882889 137.482006277 137.388317205 117.521118033 137.388317205 88.9363118869 c 0
 137.388317205 77.7231516083 141.380390278 65.1829325159 150 52 c 0
 162 34 178.75 25 195.5 25 c 0
 212.25 25 229 34 241 52 c 1
 241 52 l 1
102 8 m 1
 83 21 77 37 77 69 c 0
 77 128 102 152 185 152 c 1
 252 155 l 1
 252 224 l 2
 252 277 247 300 230 317 c 0
 216.090805445 332.454660617 200.079761383 339.310845982 184.949431861 339.310845982 c 0
 155.047324941 339.310845982 128.585087567 312.532154141 128.585087567 272.423480379 c 0
 128.585087567 267.167783554 129.039458527 261.683203713 130 256 c 2
 135 222 l 1
 111 249 l 2
 99.8135491554 262.337691392 94.1805013803 275.490269348 94.1805013803 289.094891514 c 0
 94.1805013803 307.110680614 104.058683829 325.919180048 124 347 c 0
 137.240658239 360.749914325 165.263796868 367.756942858 195.126421599 367.756942858 c 0
 223.903498083 367.756942858 254.388755616 361.250085675 275 348 c 0
 310 325 325 256 325 161 c 0
 325 144.407407407 324.956104252 129.987654321 324.956104252 117.461108571 c 0
 324.956104252 45.4334705075 326.407407407 36 346 36 c 0
 357 36 372 42 380 49 c 0
 387 57 397 59 402 54 c 0
 403.024091039 52.8905680411 403.501951632 51.5116623956 403.501951632 49.9173574015 c 0
 403.501951632 32.8300616391 348.610454242 -9 323 -9 c 0
 310 -9 290 -1 278 10 c 0
 268.5 18.5 262.75 22.75 254.75 22.75 c 0
 246.75 22.75 236.5 18.5 218 10 c 0
 192.456264654 -2.26099296617 171.088416766 -8.25815474416 152.029770466 -8.25815474416 c 0
 133.782505862 -8.25815474416 117.652009378 -2.76075644767 102 8 c 1
 102 8 l 1
EndSplineSet
Validated: 524289
Colour: ff0000
EndChar

StartChar: uni0431
Encoding: 209 1073 130
Width: 503
VWidth: 0
Flags: HW
LayerCount: 2
Fore
SplineSet
297.498046875 17.4189453125 m 0
 339.043688882 33.2161392598 359.519932408 77.2472530954 359.519932408 151.118091901 c 0
 359.519932408 160.592298742 359.183118552 170.557339403 358.510742188 181.016601562 c 0
 352.616210938 272.709960938 336.701466548 304.588196468 284.459960938 329.37890625 c 0
 268.367287428 337.015531457 254.693158962 341.035462621 242.040178751 341.035462621 c 0
 218.683501176 341.035462621 198.80639116 327.337527969 173.619140625 297.405273438 c 0
 153.092621362 273.011781247 146.69477504 262.094108808 146.69477504 227.557310979 c 0
 146.69477504 214.969696452 147.544652942 199.244561622 148.870117188 178.5859375 c 0
 154.584960937 89.5146484375 175.4439031 47.0601242117 226.400390625 20.888671875 c 0
 243.865449265 11.9185490905 252.746856924 7.66433243516 262.54394729 7.66433243516 c 0
 271.250114008 7.66433243516 280.679391353 11.023868708 297.498046875 17.4189453125 c 0
182.8359375 4.580078125 m 1
 162.583007812 15.384765625 132.134276904 44.421599807 115.166015625 69.103515625 c 0
 87.1725885951 109.822561498 84.1760634894 125.328085347 84.1760634894 217.992844658 c 0
 84.1760634894 333.542267837 97.0489277549 364.825600915 174.795898438 441.47265625 c 0
 215.065026372 481.172081835 246.923434676 499.75577258 279.982496993 499.75577258 c 0
 297.755178309 499.75577258 315.874870209 494.384752024 335.834960938 484.036132812 c 0
 357.165883416 472.976784578 374.057692472 467.464413107 385.932873437 467.464413107 c 0
 399.142353267 467.464413107 406.14453125 474.285120762 406.14453125 487.87890625 c 0
 406.14453125 496.682617188 411.23046875 503.89453125 417.446289062 503.89453125 c 0
 424.556515972 503.89453125 428.119475042 500.241642904 428.119475042 492.775658459 c 0
 428.119475042 483.475953338 422.591386024 468.260060504 411.504882812 446.818359375 c 0
 400.302004922 425.151585376 387.091776169 414.582629316 366.629553984 414.582629316 c 0
 349.883672097 414.582629316 328.280792962 421.661150688 298.946289062 435.528320312 c 0
 277.099527464 445.855842805 265.08397141 450.813603916 254.583136815 450.813603916 c 0
 245.215026748 450.813603916 237.052477465 446.867741571 224.190429688 439.268554688 c 0
 196.036772251 422.634741161 160.188227374 373.1251619 160.188227374 354.25969863 c 0
 160.188227374 351.834122913 160.780833662 349.915119942 162.05859375 348.637695312 c 0
 163.250876651 347.445725429 166.189647585 346.880106206 170.344164135 346.880106206 c 0
 179.151055948 346.880106206 193.421147117 349.42183083 208.098632812 353.926757812 c 0
 220.403681752 357.703518229 235.215904418 359.480672069 251.01379622 359.480672069 c 0
 289.201733161 359.480672069 333.149176714 349.09632613 361.365234375 331.469726562 c 0
 373.61328125 323.818359375 394.317397568 294.828190485 407.375976562 267.047851562 c 0
 420.942755907 238.186385974 427.552809325 201.57814958 427.552809325 165.847189837 c 0
 427.552809325 122.397104688 417.778257138 80.244283852 398.852539062 54.896484375 c 0
 365.256826269 9.90070731721 313.097038253 -14.7062724929 260.466270798 -14.7062724929 c 0
 233.93672732 -14.7062724929 207.287514723 -8.45399189686 182.8359375 4.5908203125 c 1
 182.8359375 4.580078125 l 1
EndSplineSet
Validated: 524289
Colour: ff0000
EndChar

StartChar: uni0432
Encoding: 210 1074 131
Width: 416
VWidth: 0
Flags: HW
LayerCount: 2
Fore
SplineSet
259.030273438 249.579101562 m 2
 282.1328125 280.66015625 l 1
 259.012695312 311.740234375 l 2
 242.516820698 333.915427848 215.506635695 348.098792214 196.399744062 348.098792214 c 0
 187.948426796 348.098792214 181.043349279 345.32388804 177.278320312 339.23828125 c 0
 174.708356337 335.084318464 173.264183801 319.517068742 173.264183801 299.994960208 c 0
 173.264183801 290.571172851 173.600708227 280.225815142 174.309570312 269.797851562 c 0
 177.438341651 223.770966739 179.243226806 214.136996169 195.733853037 214.136996169 c 0
 198.930918809 214.136996169 202.679966321 214.499100867 207.09765625 215.028320312 c 0
 222.953125 216.927734375 246.320775584 232.480349051 259.030273438 249.579101562 c 2
263.90234375 38.2978515625 m 0
 282.028228122 51.0000756176 288.850052829 66.8429610276 288.850052829 96.6597232758 c 0
 288.850052829 119.72888243 284.986821458 144.902509289 280.37109375 151.81640625 c 0
 268.049804688 170.272460938 225.938476562 190.243164062 199.34765625 190.243164062 c 0
 177.828125 190.243164062 176 183.608398438 176 105.477539062 c 2
 176 20.712890625 l 1
 207.391601562 20.712890625 l 2
 224.65625 20.712890625 250.089887796 28.6183839748 263.90234375 38.2978515625 c 0
62.9794921875 -0.6826171875 m 0
 62.9794921875 3.408203125 73.1535667679 9.42419933667 85.583984375 12.6767578125 c 0
 106.875976562 18.248046875 108.1875 28.0927734375 108.1875 182.3203125 c 0
 108.1875 317.436523438 105.222800159 347.178881894 91.234375 352.552734375 c 0
 81.91015625 356.134765625 74.28125 364.305664062 74.28125 370.71484375 c 0
 74.28125 377.823242188 112.163085938 382.377929688 171.21875 382.377929688 c 0
 263.291015625 382.377929688 269.818473542 380.720817152 301.192382812 349.341796875 c 0
 323.856287561 326.674200035 335.159654729 305.041611223 335.159654729 285.317950619 c 0
 335.159654729 263.306163672 321.081575832 243.67190207 293.004882812 227.629882812 c 2
 251.78125 204.076171875 l 1
 304.306640625 180.83984375 l 2
 343.477483042 163.511337736 357.279708883 150.979388306 358.590820312 131.540039062 c 0
 359.129766932 123.549283036 359.403941556 115.985991305 359.403941556 108.8338871 c 0
 359.403941556 43.9311914182 336.825962793 12.8893361956 284.643554688 3.544921875 c 0
 252.740330702 -2.1680560021 179.270254585 -5.61222843331 125.629724372 -5.61222843331 c 0
 89.9074130065 -5.61222843331 62.9794921875 -4.08474022879 62.9794921875 -0.6826171875 c 0
EndSplineSet
Validated: 524289
Colour: ff0000
EndChar

StartChar: uni0433
Encoding: 211 1075 132
Width: 345
VWidth: 0
Flags: HW
LayerCount: 2
Fore
SplineSet
28.775390625 5.599609375 m 1
 28.775390625 11.091796875 38.947265625 18.24609375 51.37890625 21.4892578125 c 0
 72.681640625 27.0615234375 73.9833984375 36.9052734375 73.9833984375 192.342773438 c 0
 73.9833984375 349.747070312 72.955078125 357.28515625 51.37890625 357.28515625 c 0
 38.947265625 357.28515625 28.775390625 362.37109375 28.775390625 368.587890625 c 0
 28.775390625 375.357421875 73.67578125 379.889648438 140.87109375 379.889648438 c 0
 202.524414062 379.889648438 260.40625 382.737304688 269.498046875 386.23046875 c 0
 271.219295909 386.891415187 272.897512708 387.223728822 274.536385171 387.223728822 c 0
 283.573770074 387.223728822 291.414752053 377.118563952 298.677734375 356.291015625 c 0
 307.194078736 331.860068114 311.529643739 315.182370321 311.529643739 305.950412474 c 0
 311.529643739 300.151861193 309.819246129 297.290683888 306.360097167 297.290683888 c 0
 301.150770507 297.290683888 291.975443781 303.779559147 278.703125 316.497070312 c 0
 253.1484375 340.9765625 234.170898438 348.17578125 191.112304688 349.690429688 c 2
 136.14453125 351.634765625 l 1
 135.73828125 199.056640625 l 2
 135.703485878 186.194677795 135.681940205 174.241392219 135.681940205 163.133098954 c 0
 135.681940205 29.8946843411 138.781673249 18.2236328125 159.296875 18.2236328125 c 0
 165.756570233 18.2236328125 181.826059118 12.8391948026 181.826059118 5.44796735298 c 0
 181.826059118 -0.781217620645 155.299926674 -4.380859375 108.561523438 -4.380859375 c 0
 64.681640625 -4.380859375 28.7802734375 0.1064453125 28.7802734375 5.599609375 c 1
 28.775390625 5.599609375 l 1
EndSplineSet
Validated: 524289
Colour: ff0000
EndChar

StartChar: uni0434
Encoding: 212 1076 133
Width: 484
VWidth: 0
Flags: HW
LayerCount: 2
Fore
SplineSet
298.884765625 25.134765625 m 2
 338.079101562 41.51171875 l 1
 338.079101562 188.065429688 l 2
 338.079101562 294.158203125 334.233398438 335.908203125 324.150390625 339.275390625 c 0
 321.29308207 340.226973373 316.915407549 340.663287034 311.423420951 340.663287034 c 0
 279.209528482 340.663287034 208.657207292 325.651711257 181.711914062 311.5625 c 0
 143.576171875 291.615234375 123.33984375 244.553710938 123.33984375 175.814453125 c 0
 123.33984375 100.938476562 161.907226562 37.205078125 216.810546875 21.3369140625 c 0
 236.92473203 15.5293454511 254.822355124 9.7430475095 256.77897264 9.7430475095 c 0
 259.72092674 9.7430475095 278.154018477 16.4720668982 298.884765625 25.134765625 c 2
31.1455078125 -466.923828125 m 0
 -61.009765625 -436.927734375 -114.002929688 -369.454101562 -114.002929688 -282.111328125 c 0
 -114.002929688 -196.1484375 -75.634765625 -131.647460938 -0.982421875 -92.1357421875 c 0
 16.970703125 -82.6298828125 75.306640625 -76.4140625 159.021484375 -75.080078125 c 0
 231.482421875 -73.9384765625 296.817382812 -69.2607421875 304.208984375 -64.6826171875 c 0
 313.081054688 -59.201171875 316.306640625 -63.3486328125 313.69921875 -76.888671875 c 0
 311.52734375 -88.16796875 292.63671875 -107.381835938 271.721679688 -119.599609375 c 0
 251.814578549 -131.226848565 240.289282376 -136.482490082 219.413090673 -136.482490082 c 0
 203.235216778 -136.482490082 181.441776778 -133.326278757 145.780273438 -127.533203125 c 0
 111.239913193 -121.925804771 83.4816143841 -118.928703583 60.573254985 -118.928703583 c 0
 11.221435724 -118.928703583 -15.6214628658 -132.83846764 -39.2734375 -164.525390625 c 0
 -70.3389487145 -206.151796339 -85.6288670396 -245.530124283 -85.6288670396 -284.707955031 c 0
 -85.6288670396 -299.896903755 -83.330709343 -315.055716663 -78.7626953125 -330.303710938 c 0
 -56.8484249602 -403.449734556 9.01274864389 -447.455770583 90.5116125016 -447.455770583 c 0
 105.20882407 -447.455770583 120.414592349 -446.024640757 135.962890625 -443.075195312 c 0
 285.106445312 -414.797851562 326.916992188 -346.782226562 335.565429688 -118.389648438 c 0
 336.710432688 -88.1521552418 337.369341465 -63.7044545607 337.369341465 -44.3034086034 c 0
 337.369341465 0.661580478728 333.829987577 18.5182692343 324.599844167 18.5182692343 c 0
 320.047968084 18.5182692343 314.112090736 14.1755185981 306.534179688 6.599609375 c 0
 299.413012793 -0.530949720136 270.416493069 -6.05181815399 241.032641621 -6.05181815399 c 0
 239.864371108 -6.05181815399 238.695488312 -6.04309091661 237.52734375 -6.025390625 c 0
 171.484375 -5.0078125 101.595703125 30.3232421875 74.2880859375 76.5478515625 c 0
 61.8910527186 97.5371346667 55.7872665479 129.872309173 55.7872665479 164.3251888 c 0
 55.7872665479 202.799860929 63.399254855 243.915508047 78.359375 274.8203125 c 0
 112.859375 346.090820312 163.750976562 364.7734375 323.411132812 364.7734375 c 0
 399.801267791 364.7734375 448.231018047 360.576593858 448.231018047 354.020793893 c 0
 448.231018047 347.769727969 439.42950938 341.891309306 434.146484375 341.276367188 c 0
 427.930664062 340.59765625 417.758789062 339.185546875 411.54296875 338.235351562 c 0
 404.345703125 337.106445312 400.240234375 230.821289062 400.240234375 45.490234375 c 0
 400.240234375 -234.26953125 399.234375 -247.719726562 374.259765625 -301.913085938 c 0
 342.916992188 -369.90625 313.677734375 -402.659179688 251.8046875 -439.052734375 c 0
 215.35103414 -460.501973875 145.896038443 -474.157233246 89.8846323199 -474.157233246 c 0
 67.0073491228 -474.157233246 46.3727659667 -471.879221812 31.1455078125 -466.923828125 c 0
EndSplineSet
Validated: 524289
Colour: ff0000
EndChar

StartChar: uni0435
Encoding: 213 1077 134
Width: 482
VWidth: 0
Flags: HW
LayerCount: 2
Fore
SplineSet
304.42578125 289.75390625 m 0
 304.42578125 319.127929688 270.084960938 349.983398438 237.375976562 349.983398438 c 0
 203.280273438 349.983398438 162.982421875 324.8359375 145.88671875 292.884765625 c 0
 143.110946228 287.699676771 141.248069851 283.7323627 141.248069851 280.697691057 c 0
 141.248069851 271.488581449 158.403274628 270.868164062 219.26171875 270.868164062 c 0
 291.307617188 270.868164062 304.42578125 273.772460938 304.42578125 289.75390625 c 0
157.50390625 1.0087890625 m 0
 87.1244896408 29.0749565566 44.3957982911 100.008376636 44.3957982911 175.161218974 c 0
 44.3957982911 200.665404101 49.3167791415 226.65553194 59.748046875 251.62109375 c 0
 89.3595820022 322.497872138 185.991182161 381.054076449 262.185424004 381.054076449 c 0
 274.07806548 381.054076449 285.47281271 379.627532137 296.037109375 376.598632812 c 0
 331.004882812 366.563476562 383.540039062 306.2890625 383.540039062 276.203125 c 0
 383.540039062 266.44921875 344.888671875 259.859375 254.696289062 254.220703125 c 2
 125.8515625 246.173828125 l 1
 121.047851562 213.442382812 l 2
 120.170678413 207.465684939 119.748626023 201.397364609 119.748626023 195.28655528 c 0
 119.748626023 125.30353608 175.103293699 49.747833379 236.142578125 42.419921875 c 0
 243.832654819 41.4966065194 251.63572639 41.0481486009 259.460371274 41.0481486009 c 0
 307.191764696 41.0481486009 355.725936701 57.7360086799 384.310546875 85.119140625 c 0
 398.703615099 98.9098625684 411.029998671 107.5749873 415.576809738 107.5749873 c 0
 416.787204453 107.5749873 417.446289062 106.960921318 417.446289062 105.666015625 c 0
 417.446289062 86.1357421875 345.610351562 24.0419921875 301.962890625 5.8349609375 c 0
 276.151270622 -4.92729679072 247.998518974 -10.3652320222 220.922220989 -10.3652320222 c 0
 198.379142523 -10.3652320222 176.582243388 -6.59574800738 157.50390625 1.0087890625 c 0
EndSplineSet
Validated: 524289
Colour: ff0000
EndChar

StartChar: uni0436
Encoding: 214 1078 135
Width: 540
VWidth: 0
Flags: HW
LayerCount: 2
Fore
SplineSet
25.9990234375 2.623046875 m 0
 22.4345703125 8.3876953125 29.1298828125 16.1630859375 40.876953125 19.8818359375 c 0
 56.32421875 24.7861328125 65.8427734375 45.005859375 75.2705078125 92.9150390625 c 0
 89.234375 163.892578125 132.547851562 234.462890625 182.068359375 266.91015625 c 0
 200.73969085 279.144304994 210.168452706 288.226139546 210.168452706 296.799011992 c 0
 210.168452706 305.918964918 199.497894571 314.462923898 177.932617188 325.61328125 c 0
 163.501487314 333.076087307 155.123505488 337.226166134 149.386480162 337.226166134 c 0
 141.969187653 337.226166134 138.966364699 330.289135314 133.00390625 314.60546875 c 0
 126.009747277 296.209432269 115.229182519 286.705751868 103.427082254 286.705751868 c 0
 94.7889608428 286.705751868 85.6036049252 291.796854252 76.955078125 302.21875 c 0
 72.2112259342 307.935119871 70.0962856679 314.706667553 70.0962856679 321.652743262 c 0
 70.0962856679 342.585603808 89.3040244567 365.103515625 113.65234375 365.103515625 c 0
 127.51171875 365.103515625 157.848632812 354.919921875 181.06640625 342.4765625 c 2
 223.282226562 319.849609375 l 1
 223.282226562 348.126953125 l 2
 223.282226562 369.725585938 217.41015625 376.405273438 198.41796875 376.405273438 c 0
 180.98828125 376.405273438 177.116210938 379.965820312 185.46875 388.317382812 c 0
 190.729074669 393.577707481 212.918308105 396.784190249 240.33766218 396.784190249 c 0
 247.914228172 396.784190249 255.890133497 396.53936326 264.018554688 396.025390625 c 0
 298.718950589 393.825219787 314.287493561 391.597580722 314.287493561 388.189741856 c 0
 314.287493561 386.661982889 311.158536892 384.897028056 305.221679688 382.791015625 c 0
 288.907584336 377.001930751 279.562021752 365.892501766 279.562021752 354.904269943 c 0
 279.562021752 349.59001773 281.747941169 344.304113433 286.388671875 339.662109375 c 0
 287.027390413 339.023390837 288.177840542 338.71923809 289.754549189 338.71923809 c 0
 297.133566371 338.71923809 313.848720549 345.380950612 331.138671875 355.586914062 c 0
 352.564746349 368.226520418 372.180495746 374.418436952 387.903264346 374.418436952 c 0
 408.199762059 374.418436952 422.008923289 364.10011068 424.850585938 344.013671875 c 0
 425.485659122 339.526490264 425.786328124 335.350238532 425.786328124 331.505023425 c 0
 425.786328124 312.135712551 418.157185821 301.166088756 407.210751049 301.166088756 c 0
 399.602292009 301.166088756 390.391208424 306.46564811 381.025390625 317.927734375 c 0
 370.111213057 331.282329208 357.608241586 337.92084521 344.694011741 337.92084521 c 0
 330.13112689 337.92084521 315.045277114 329.479166587 301.125 312.70703125 c 0
 295.870883873 306.375534379 293.09238002 301.882329652 293.09238002 298.029492438 c 0
 293.09238002 292.900135083 298.017032589 288.905772559 308.581054688 283.219726562 c 0
 320.720703125 276.6875 351.817382812 249.584960938 377.686523438 222.991210938 c 0
 414.451171875 185.208007812 427.870117188 160.276367188 439.1484375 108.817382812 c 0
 450.924186551 55.0910898623 462.652020859 30.326520814 476.899861082 30.326520814 c 0
 479.670215965 30.326520814 482.535844825 31.2627960007 485.515625 33.1044921875 c 0
 490.474609375 36.16796875 494.532226562 30.7421875 494.532226562 21.056640625 c 0
 494.532226562 7.302734375 481.313476562 3.4365234375 434.25390625 3.4365234375 c 0
 385.141712751 3.4365234375 364.130444208 7.35429522453 364.130444208 18.6201912443 c 0
 364.130444208 22.6260469921 366.786953925 27.5609453335 371.78125 33.5791015625 c 0
 377.213325901 40.126985979 379.750689462 52.7314675092 379.750689462 68.5199466789 c 0
 379.750689462 98.787442847 370.425555188 140.756535889 354.29296875 174.188476562 c 0
 332.91875081 218.486138187 299.443536294 263.922377769 289.025397278 263.922377769 c 0
 288.266284309 263.922377769 287.629586935 263.681145775 287.12890625 263.180664062 c 0
 285.759484867 261.812125323 285.08869915 249.911200209 285.08869915 231.397971618 c 0
 285.08869915 208.944887317 286.075368173 176.765664185 287.999023438 141.853515625 c 0
 292.779296875 55.109375 298.223632812 26.041015625 309.69140625 26.041015625 c 0
 318.111328125 26.041015625 325.000976562 20.955078125 325.000976562 14.7392578125 c 0
 325.000976562 8.48901092859 295.345377263 3.78154631462 256.670448869 3.78154631462 c 0
 255.904551227 3.78154631462 255.13511641 3.78339247528 254.362304688 3.787109375 c 0
 211.567559115 4.02488073655 195.375514147 5.09204447098 195.375514147 10.1669492958 c 0
 195.375514147 12.3455449569 198.359516534 15.2627199022 203.50390625 19.169921875 c 0
 219.375258557 31.2100013912 222.899731739 50.7745561909 222.899731739 138.155942287 c 0
 222.899731739 142.471901862 222.891133469 146.953306714 222.875 151.607421875 c 2
 222.46875 269.03515625 l 1
 196.041015625 236.723632812 l 2
 165.350585938 199.200195312 148.860351562 148.16015625 138.006835938 57.1220703125 c 2
 130.260742188 -7.8642578125 l 1
 81.3701171875 -7.8642578125 l 2
 54.4814453125 -7.8642578125 29.5634765625 -3.15234375 25.9990234375 2.623046875 c 0
EndSplineSet
Validated: 524289
Colour: ff0000
EndChar

StartChar: uni0437
Encoding: 215 1079 136
Width: 300
VWidth: 0
Flags: HW
LayerCount: 2
Fore
SplineSet
41.8486328125 44.900390625 m 2
 41.8486328125 77.2236328125 46.9345703125 103.670898438 53.1513671875 103.670898438 c 0
 59.3671875 103.670898438 64.453125 96.923828125 64.453125 88.6845703125 c 0
 64.453125 68.13671875 112.594726562 24.556640625 135.288085938 24.556640625 c 0
 165.948242188 24.556640625 209.142578125 48.6748046875 214.38671875 68.736328125 c 0
 215.756575828 73.9738919334 216.441918969 79.1255651441 216.441918969 84.1924543546 c 0
 216.441918969 114.047864862 192.647705824 140.959686305 144.889648438 165.154296875 c 0
 82.2504411898 196.896609862 52.1138376346 241.169443263 52.1138376346 283.725149208 c 0
 52.1138376346 307.580643432 61.583958969 330.896547808 80.107421875 351.163085938 c 0
 97.6165132426 370.318848891 115.293229639 374.289308083 134.538464986 374.289308083 c 0
 141.97783504 374.289308083 149.651582445 373.696018657 157.640625 373.157226562 c 0
 161.366488736 372.906972803 165.170088632 372.787776262 168.94668762 372.787776262 c 0
 186.156118865 372.787776262 202.804877109 375.262888762 208.982421875 379.090820312 c 0
 211.031849382 380.355774955 212.832172486 380.999943471 214.396006129 380.999943471 c 0
 220.1266865 380.999943471 222.681640625 372.349651564 222.681640625 353.8984375 c 0
 222.681640625 335.397460938 225.770507812 312.205078125 229.541992188 302.372070312 c 0
 231.482284201 297.318126466 232.326159791 293.407068149 232.326159791 290.554368289 c 0
 232.326159791 286.477070401 230.602263452 284.561821387 227.891832676 284.561821387 c 0
 221.731435391 284.561821387 210.474760799 294.455687953 202.779296875 311.345703125 c 0
 193.255899416 332.241853335 165.084114328 345.121715615 140.637874415 345.121715615 c 0
 126.938093324 345.121715615 114.408331329 341.076754645 106.986328125 332.130859375 c 0
 98.5360224688 321.953059829 92.2371785003 302.771787868 92.2371785003 285.00121549 c 0
 92.2371785003 271.710144796 95.7607083389 259.208209711 104.54296875 251.852539062 c 0
 147.387695312 215.96875 230.482421875 197.251953125 249.377929688 170.274414062 c 0
 261.922615117 152.363143142 268.071284239 132.050206724 268.071284239 111.723132044 c 0
 268.071284239 84.4374963034 256.992311042 57.1263855517 235.432617188 35.564453125 c 0
 206.741271524 6.87099625139 176.607644598 -7.27235805885 143.561156922 -7.27235805885 c 0
 130.749640936 -7.27235805885 117.500330597 -5.14665375556 103.727539062 -0.9189453125 c 0
 91.0561983833 2.97049833191 81.0079196842 4.92172561946 73.0448066251 4.92172561946 c 0
 64.5790104994 4.92172561946 58.4699475053 2.71637468347 54.0712890625 -1.7099609375 c 0
 52.3746758335 -3.40600686378 50.8768216781 -4.27951685241 49.5643679773 -4.27951685241 c 0
 44.0989951217 -4.27951685241 41.8486328125 10.867931586 41.8486328125 44.84375 c 2
 41.8486328125 44.900390625 l 2
EndSplineSet
Validated: 524289
Colour: ff0000
EndChar

StartChar: uni0438
Encoding: 216 1080 137
Width: 241
VWidth: 0
Flags: HW
LayerCount: 2
Fore
SplineSet
103.907226562 -1.0302734375 m 0
 64.8533196079 2.5485702994 47.4438051463 5.55743617422 47.4438051463 9.36788093856 c 0
 47.4438051463 10.9246757095 50.3498214496 12.6152709564 55.873046875 14.533203125 c 0
 80.7216796875 23.15625 81.302734375 27.236328125 81.302734375 192.890625 c 0
 81.302734375 334.628071633 80.7452533453 357.857747906 66.4773275111 357.857747906 c 0
 64.2392283904 357.857747906 61.6637732285 357.286163852 58.7001953125 356.510742188 c 0
 46.2666015625 353.254882812 36.0947265625 355.2109375 36.0947265625 360.838867188 c 0
 36.0947265625 365.961913207 66.5113557841 369.657493073 105.858260856 369.657493073 c 0
 109.833460562 369.657493073 113.899811307 369.619772408 118.03515625 369.541992188 c 0
 154.714036728 368.805998356 178.386022943 366.789821318 178.386022943 364.614883092 c 0
 178.386022943 364.117530115 177.148166471 363.61187519 174.544921875 363.111328125 c 0
 149.52734375 358.295898438 149.115234375 355.470703125 149.115234375 189.465820312 c 0
 149.115234375 28.2529296875 150.12109375 20.7265625 171.719726562 20.7265625 c 0
 185.731864623 20.7265625 194.826467245 13.476120965 194.826467245 6.33170348131 c 0
 194.826467245 2.39583349116 192.066324344 -1.50785900376 185.84765625 -4.1494140625 c 0
 184.415132579 -4.75735142251 179.941337148 -5.04507241671 173.258344117 -5.04507241671 c 0
 158.191717857 -5.04507241671 131.896518337 -3.5826879458 103.907226562 -1.0302734375 c 0
EndSplineSet
Validated: 524289
Colour: ff0000
EndChar

StartChar: uni043A
Encoding: 218 1082 139
Width: 502
VWidth: 0
Flags: HW
LayerCount: 2
Fore
SplineSet
101.86328125 -6.572265625 m 0
 62.0566427612 -4.01178894828 35.0503169873 5.57922322811 35.0503169873 12.2792680345 c 0
 35.0503169873 16.1687529326 44.151424971 19.083984375 65.1328125 19.083984375 c 2
 93.3876953125 19.083984375 l 1
 93.3876953125 188.615234375 l 2
 93.3876953125 331.767578125 90.751953125 358.145507812 76.43359375 358.145507812 c 0
 67.109375 358.145507812 59.4814453125 363.232421875 59.4814453125 369.448242188 c 0
 59.4814453125 375.720703125 89.619140625 380.75 127.293945312 380.75 c 0
 164.966796875 380.75 195.106445312 375.720703125 195.106445312 369.448242188 c 0
 195.106445312 363.232421875 187.4765625 358.145507812 178.15234375 358.145507812 c 0
 164.669921875 358.145507812 161.200195312 341.666992188 161.200195312 277.641601562 c 0
 161.200195312 232.051899213 162.454128447 208.830379572 171.83850111 208.830379572 c 0
 181.715028113 208.830379572 200.597142472 234.551427364 236.500976562 286.98828125 c 0
 258.356594498 318.915771855 269.242239014 339.599524613 269.242239014 349.248274431 c 0
 269.242239014 352.407958556 268.07489357 354.384280466 265.743164062 355.184570312 c 0
 255.158251751 358.813026178 250.317317017 362.72055489 250.317317017 366.362267237 c 0
 250.317317017 374.166517104 272.549406504 380.75 308.125976562 380.75 c 0
 344.03373429 380.75 364.259360925 375.130091869 364.259360925 368.098799884 c 0
 364.259360925 363.523057474 355.693818787 358.34959475 337.310546875 353.73828125 c 0
 314.10546875 347.90625 206.743164062 230.116210938 206.4921875 210.201171875 c 0
 206.4921875 206.540039062 219.38671875 197.622070312 235.25 190.400390625 c 0
 251.11328125 183.166992188 271.268554688 160.088867188 280.040039062 139.08984375 c 0
 308.154459478 71.8053309523 356.011691048 29.1069341977 395.118483969 29.1069341977 c 0
 408.044656385 29.1069341977 420.014812473 33.7718848497 430 43.755859375 c 0
 437.35546875 51.11328125 447.2734375 53.2158203125 452.0390625 48.435546875 c 0
 453.469222202 46.9999160997 454.137878356 45.2891855225 454.137878356 43.3690490766 c 0
 454.137878356 27.4669197921 408.27627603 -2.79788097057 369.29296875 -10.109375 c 0
 358.775239956 -12.0830603942 348.967051657 -13.0995684398 339.773256047 -13.0995684398 c 0
 292.895945468 -13.0995684398 261.991459592 13.3273489121 234.447265625 74.0458984375 c 0
 195.045898438 160.90234375 189.846679688 169.638671875 174.51953125 174.747070312 c 0
 173.94769868 174.937740642 173.396116279 175.034056268 172.864438404 175.034056268 c 0
 164.665818997 175.034056268 161.200195312 152.131654551 161.200195312 99.13671875 c 0
 161.200195312 25.548828125 163.100585938 19.083984375 184.745117188 19.083984375 c 0
 198.556640625 19.083984375 206.345703125 13.2412109375 203.586914062 4.9560546875 c 0
 200.059220469 -5.64227823672 195.402506286 -9.73158000738 168.269004402 -9.73158000738 c 0
 153.707286999 -9.73158000738 132.671941519 -8.55380411219 101.86328125 -6.572265625 c 0
EndSplineSet
Validated: 524289
Colour: ff0000
EndChar

StartChar: uni043B
Encoding: 219 1083 140
Width: 496
VWidth: 0
Flags: HW
LayerCount: 2
Fore
SplineSet
38.458984375 2.8681640625 m 0
 32.8250491906 9.65713344939 30.2187794509 16.1551478557 30.2187794509 21.8148883778 c 0
 30.2187794509 33.3054711599 40.9614048444 41.340823588 58.920295117 41.340823588 c 0
 61.6574216545 41.340823588 64.5621749025 41.1541702821 67.6220703125 40.7646484375 c 0
 70.0492740769 40.455335452 72.2928352018 40.2576053891 74.4028738591 40.2576053891 c 0
 94.4233710987 40.2576053891 102.423348619 58.0584906122 141.21484375 167.24609375 c 0
 179.025553357 273.672220792 193.991402408 317.851544694 193.991402408 335.925107227 c 0
 193.991402408 346.319220382 189.041590351 348.079101563 180.640625 348.079101562 c 0
 170.591796875 348.079101562 162.370117188 353.165039062 162.370117188 359.381835938 c 0
 162.370117188 365.59765625 183.00390625 370.682617188 208.220703125 370.682617188 c 2
 254.073242188 370.682617188 l 1
 294.551757812 283.091796875 l 2
 316.81640625 234.912109375 348.81640625 159.899414062 365.666992188 116.38671875 c 0
 385.317382812 65.6298828125 405.016601562 33.271484375 420.612304688 26.1171875 c 0
 436.137455131 18.9909539316 443.777106927 12.9695819181 443.777106927 8.33054773033 c 0
 443.777106927 1.54310619664 427.422857331 -2.28515625 395.484375 -2.28515625 c 2
 346.046875 -2.28515625 l 1
 286.00390625 145.275390625 l 2
 253.628789293 224.841242438 222.025045822 297.782337997 217.789682143 297.782337997 c 0
 212.6844324 297.782337997 188.271662157 240.445471509 162.692382812 168.150390625 c 0
 116.171526444 36.6815460882 90.7955719171 -15.1859797828 65.7211858532 -15.1859797828 c 0
 56.8990583801 -15.1859797828 48.1142621082 -8.76529169007 38.458984375 2.8681640625 c 0
EndSplineSet
Validated: 524289
Colour: ff0000
EndChar

StartChar: uni043C
Encoding: 220 1084 141
Width: 549
VWidth: 0
Flags: HW
LayerCount: 2
Fore
SplineSet
37.666015625 -4.4560546875 m 2
 37.666015625 1.037109375 47.8369140625 8.19140625 60.26953125 11.4345703125 c 0
 81.46875 16.984375 82.875 26.8505859375 82.875 170.171875 c 2
 82.875 322.987304688 l 1
 46.1416015625 351.931640625 l 1
 9.4111328125 380.876953125 l 1
 65.919921875 380.876953125 l 1
 122.430664062 380.876953125 l 1
 184.592773438 285.1484375 l 2
 218.000574409 233.694564828 250.328571499 192.924036768 257.588113024 192.924036768 c 0
 266.180160978 192.924036768 347.808436299 327.799303516 367.857421875 371.224609375 c 0
 372.023265798 380.245090665 431.688297553 387.880300176 469.733704404 387.880300176 c 0
 487.840138697 387.880300176 501.049804688 386.150952323 501.049804688 382.018554688 c 0
 501.049804688 375.349609375 488.635742188 369.90234375 473.462890625 369.90234375 c 0
 458.2890625 369.90234375 442.51953125 364.466796875 438.419921875 357.83203125 c 0
 436.49043222 354.710852032 435.538649917 335.612240337 435.538649917 306.919349893 c 0
 435.538649917 274.619074001 436.744800383 230.160404589 439.120117188 182.649414062 c 0
 447.155273438 21.912109375 447.65625 19.5380859375 473.495117188 19.5380859375 c 0
 486.159941396 19.5380859375 507.122869748 14.5370500855 507.122869748 6.91026697885 c 0
 507.122869748 0.544272561947 476.541100597 -3.0654296875 421.9375 -3.0654296875 c 0
 367.333078036 -3.0654296875 336.752119285 0.544260204662 336.752119285 6.91023428928 c 0
 336.752119285 14.2421268762 353.418747084 19.5380859375 360.443359375 19.5380859375 c 0
 373.79296875 19.5380859375 376.728515625 46.1884765625 376.728515625 167.403320312 c 0
 376.728515625 271.783082949 373.458104176 311.017981242 364.505882726 311.017981242 c 0
 364.142875063 311.017981242 363.770525038 310.953468948 363.388671875 310.826171875 c 0
 356.05078125 308.384765625 327.76171875 265.991210938 300.5234375 216.646484375 c 0
 273.28515625 167.290039062 246.732421875 122.579101562 241.517578125 117.278320312 c 0
 241.161273605 116.917012453 240.687662369 116.740617274 240.104269766 116.740617274 c 0
 232.147577089 116.740617274 203.770121503 149.55241633 174.063476562 193.567382812 c 0
 142.1796875 240.821289062 113.704101562 279.485351562 110.786132812 279.485351562 c 0
 107.868164062 279.485351562 105.478515625 220.5234375 105.478515625 148.44921875 c 0
 105.478515625 27.1669921875 107.153320312 16.984375 127.956054688 11.537109375 c 0
 140.318359375 8.3037109375 147.646484375 1.1494140625 144.2421875 -4.3544921875 c 0
 140.20773942 -10.8841528585 113.54252262 -14.1532000522 87.8965115811 -14.1532000522 c 0
 62.2725360664 -14.1532000522 37.666015625 -10.889768096 37.666015625 -4.3544921875 c 2
 37.666015625 -4.4560546875 l 2
EndSplineSet
Validated: 524293
Colour: ff0000
EndChar

StartChar: uni043E
Encoding: 222 1086 142
Width: 481
VWidth: 0
Flags: HW
LayerCount: 2
Fore
SplineSet
292 31 m 0
 324 48 353 115 353 172 c 3
 353 178 353 184 352 190 c 0
 344 288 289 349 228 349 c 3
 200 349 172 336 146 308 c 0
 116 275 101 237 101 194 c 3
 101 176 104 156 109 136 c 0
 130 64 175 18 227 18 c 0
 250 18 279 24 292 31 c 0
143 9 m 0
 66 49 35 122 35 192 c 3
 35 288 111 380 230 380 c 0
 285 380 355 340 388 291 c 0
 405 266 414 229 414 190 c 3
 414 154 409 118 396 90 c 0
 372 40 309 -2 244 -10 c 0
 235 -12 227 -12 220 -12 c 3
 194 -12 174 -7 143 9 c 0
EndSplineSet
Validated: 1
Colour: ff0000
EndChar

StartChar: uni043F
Encoding: 223 1087 143
Width: 531
VWidth: 0
Flags: HW
LayerCount: 2
Fore
SplineSet
50.9580078125 5.31640625 m 2
 50.9580078125 11.5322265625 63.080078125 16.6181640625 77.8955078125 16.6181640625 c 0
 108.040592203 16.6181640625 115.541938723 30.8840230977 115.541938723 124.522597943 c 0
 115.541938723 139.618412316 115.346979973 156.777110386 115.020507812 176.271484375 c 0
 113.37109375 274.825195312 110.197265625 291.834960938 90.8408203125 305.985351562 c 0
 81.0775476735 313.116609592 68.601279375 317.636524072 59.9120203778 317.636524072 c 0
 57.6945010154 317.636524072 55.7236229119 317.342149987 54.107421875 316.721679688 c 0
 46.1591796875 313.670898438 39.6572265625 315.705078125 39.6572265625 321.220703125 c 0
 39.6572265625 331.52180691 157.097114272 407.07120474 171.954673561 407.07120474 c 0
 172.550013328 407.07120474 172.980647863 406.94990333 173.232421875 406.698242188 c 0
 175.364257812 404.573242188 171.434570312 392.208984375 164.497070312 379.245117188 c 0
 159.928063499 370.71003239 157.649869989 362.933137631 157.649869989 355.298641268 c 0
 157.649869989 348.193369885 159.623161128 341.211438986 163.559570312 333.856445312 c 0
 168.810678606 324.044247777 172.021482822 318.818913429 178.933279287 318.818913429 c 0
 186.948891926 318.818913429 199.941987008 325.846490959 226.8671875 340.897460938 c 0
 258.888324945 358.790739999 278.281700222 365.56039155 304.659462597 365.56039155 c 0
 312.48708625 365.56039155 320.929762522 364.964248774 330.5 363.885742188 c 0
 413.72265625 354.504882812 423.373046875 333.459960938 423.674804688 160.719726562 c 2
 423.935546875 16.6181640625 l 1
 464.159179688 16.6181640625 l 2
 485.201958016 16.6181640625 498.14643654 13.081383296 498.14643654 7.65814925456 c 0
 498.14643654 6.91185762943 497.90131301 6.12984312182 497.3984375 5.31640625 c 0
 492.89523068 -1.97352696837 442.071565621 -5.7931003489 394.6218715 -5.7931003489 c 0
 351.366010876 -5.7931003489 310.9140625 -2.61887366541 310.9140625 3.994140625 c 0
 310.9140625 9.486328125 320.28125 16.4267578125 331.729492188 19.4208984375 c 0
 349.76171875 24.134765625 353.470703125 41.234375 359.482421875 147.39453125 c 0
 361.028647031 174.695890803 361.874718325 197.928393224 361.874718325 217.81122322 c 0
 361.874718325 290.239069094 350.647770621 318.218418271 321.140625 336.512695312 c 0
 314.208146278 340.814702712 305.731610173 342.88296282 296.237931739 342.88296282 c 0
 270.61673575 342.88296282 237.587360362 327.819149746 207.506835938 300.944335938 c 2
 172.086914062 269.298828125 l 1
 173.534179688 153.4296875 l 2
 174.325195312 89.6982421875 177.89453125 32.8486328125 181.454101562 27.083984375 c 0
 185.012695312 21.3203125 197.797851562 16.607421875 209.86328125 16.607421875 c 0
 221.928710938 16.607421875 231.799804688 11.521484375 231.799804688 5.3046875 c 0
 231.799804688 -1.2841796875 194.126953125 -5.9970703125 141.3828125 -5.9970703125 c 0
 88.640625 -5.9970703125 50.966796875 -1.2841796875 50.966796875 5.3046875 c 1
 50.9580078125 5.31640625 l 2
EndSplineSet
Validated: 524289
Colour: ff0000
EndChar

StartChar: uni0440
Encoding: 224 1088 144
Width: 515
VWidth: 0
Flags: HW
LayerCount: 2
Fore
SplineSet
319.219726562 37.458984375 m 0
 369.290096716 71.2027439848 385.878111676 106.424638985 385.878111676 178.111117143 c 0
 385.878111676 289.364773683 345.855033199 339.450195313 257.069335938 339.450195312 c 0
 189.232421875 339.450195312 171.302734375 308.131835938 171.302734375 189.641601562 c 0
 171.302734375 75.76171875 180.828125 50.21875 231.528320312 28.1572265625 c 0
 252.464439502 19.0528281311 263.337922396 13.8623503645 273 13.8623503645 c 3
 284.818984802 13.8623503645 294.825341239 21.0173158901 319.219726562 37.458984375 c 0
117.618164062 -307.649414062 m 2
 60.119140625 -305.603515625 13.07421875 -299.026367188 13.07421875 -293.046875 c 0
 13.07421875 -287.057617188 30.08984375 -282.163085938 50.88671875 -282.163085938 c 2
 88.7001953125 -282.163085938 l 1
 96.048828125 -138.061523438 l 2
 100.7235529 -46.4160697038 102.997207325 52.5567989768 102.997207325 134.629371547 c 0
 102.997207325 231.706782396 99.8161995346 305.139450665 93.6650390625 314.833984375 c 0
 89.2846857669 321.746296555 80.8205636579 325.092111637 66.7096720324 325.092111637 c 0
 59.4315675634 325.092111637 50.6512632283 324.202030511 40.154296875 322.452148438 c 0
 27.7565477252 320.386796649 18.9932094014 318.985561492 14.4611099004 318.985561492 c 0
 12.1192758388 318.985561492 10.9071880144 319.359693091 10.9071880144 320.209653108 c 0
 10.9071880144 323.412683198 28.1202896217 333.373047824 66.953125 355.533203125 c 0
 105.911132812 377.763671875 140.241210938 395.9609375 143.2421875 395.9609375 c 0
 146.245117188 395.9609375 148.698242188 384.262695312 148.698242188 369.965820312 c 0
 148.698242188 343.31480178 157.628090253 328.104184076 170.99999926 327.234860178 c 1
 178.337156531 326.757862753 187.011689242 330.598612062 196.282226562 339.236328125 c 0
 219.173150069 360.562102893 249.313496198 371.131236372 280.999997844 371.131236372 c 3
 342.413009727 371.131236372 409.634005217 336.377476836 441.140625 275.198242188 c 0
 449.861625553 258.266386764 453.973276097 224.177482911 453.973276097 188.000001615 c 3
 453.973276097 141.903864781 447.241191864 92.4169215962 434.783203125 70.7099609375 c 0
 404.99487889 18.8017611898 352.141536885 -10.2042723251 298.000002453 -10.2042723251 c 3
 270.755052977 -10.2042723251 243.183897733 -2.98064166715 218.061523438 12.3349609375 c 0
 199.044421051 23.932683645 182.022945207 32.3320692808 177.827895327 32.3320692808 c 0
 177.411807843 32.3320692808 177.121903317 32.2494383647 176.96875 32.0791015625 c 0
 175.272460938 30.19140625 172.029296875 -39.9150390625 169.766601562 -123.708007812 c 2
 165.653320312 -276.048828125 l 1
 198.626953125 -281.9375 l 2
 216.76171875 -285.169921875 233.71484375 -294.177734375 236.299804688 -301.942382812 c 0
 238.884765625 -309.717773438 236.763671875 -315.018554688 231.581054688 -313.73046875 c 0
 226.401367188 -312.44140625 175.118164062 -309.706054688 117.619140625 -307.649414062 c 2
 117.618164062 -307.649414062 l 2
EndSplineSet
Validated: 524289
Colour: ff0000
EndChar

StartChar: uni0441
Encoding: 225 1089 145
Width: 426
VWidth: 0
Flags: HW
LayerCount: 2
Fore
SplineSet
169.481445312 -8.36328125 m 0
 101.530273438 17.16796875 45.158203125 98.080078125 45.158203125 170.084960938 c 0
 45.158203125 275.844593421 142.20818436 365.920201948 234.999997448 365.920201948 c 3
 253.23068078 365.920201948 271.296999098 362.081161636 288.430664062 354.275390625 c 0
 299.661301978 349.155406713 307.266118479 346.53267022 313 346.516830368 c 1
 319.531454196 346.498787221 323.635286552 349.863309097 327.905273438 356.772460938 c 0
 331.969547401 363.346610508 335.221530301 367.778941144 338 367.778941144 c 3
 344.536022874 367.778941144 348.451764623 352.010086439 354.157226562 308.422851562 c 0
 355.441396205 298.611853468 356.009289209 289.671825916 355.996223621 282.000001144 c 1
 355.966965409 264.82022641 353.024423626 254.000000137 348.688138102 254.000000137 c 3
 344.523246675 254.000000137 339.072611096 259.344880651 333.682617188 276.32421875 c 0
 325.532226562 302.002929688 289.2109375 327.229492188 244.5234375 338.237304688 c 0
 237.886444499 339.873572303 232.245220548 340.815930073 227 340.815930073 c 3
 210.178541787 340.815930073 197.42993616 330.684366596 168.971679688 300.771484375 c 0
 132.583266272 262.521652294 114.097716006 215.639042787 114.097716006 166.000004184 c 3
 114.097716006 146.73111653 117.173523885 127.046879664 123.092773438 107.291015625 c 0
 140.293563621 49.8861701537 176.900933142 19.8183073318 229.999990091 19.8183073318 c 3
 235.873727606 19.8183073318 241.949264837 20.1287873349 248.22265625 20.830078125 c 0
 299.891601562 26.60546875 350.314453125 67.078125 350.314453125 102.79296875 c 0
 350.314453125 111.766601562 355.400390625 119.11328125 361.616210938 119.11328125 c 0
 370.704126502 119.11328125 374.12740942 113.652327596 374.12740942 105.000000572 c 3
 374.12740942 78.2351570766 333.434353255 20.932272022 293.473632812 0.271484375 c 0
 273.682000147 -9.96376945287 243.702398205 -15.3891000814 216.000001193 -15.3891000814 c 3
 198.552425456 -15.3891000814 182.008161349 -13.0669321714 169.481445312 -8.36328125 c 0
EndSplineSet
Validated: 524289
Colour: ff0000
EndChar

StartChar: uni0442
Encoding: 226 1090 146
Width: 673
VWidth: 0
Flags: HW
LayerCount: 2
Fore
SplineSet
63 -3 m 0
 48 11 55 23 78 23 c 0
 79.4117647059 23 80.7370242215 22.9757785467 81.9814777122 22.9757785467 c 0
 101.892733564 22.9757785467 101.117647059 29.1764705882 103 240 c 0
 103.051064685 244.136239509 103.078660952 248.089946872 103.078660952 251.867779909 c 0
 103.078660952 308.525646469 96.8716109323 325.625236442 70.533125193 325.625236442 c 0
 64.236184254 325.625236442 56.7885690953 324.647856705 48 323 c 0
 38.2498266296 321.289443268 30.664896465 320.456687836 25.2001636386 320.456687836 c 0
 18.0584384418 320.456687836 14.5378480056 321.87897037 14.5378480056 324.622991113 c 0
 14.5378480056 332.054126222 40.3575389712 349.178769486 90 374 c 2
 157 408 l 1
 151 382 l 2
 149.879560443 377.238131882 149.308351736 372.633186865 149.308351736 368.273076372 c 0
 149.308351736 357.067472622 153.081208782 347.479010996 161 341 c 0
 167.157731059 336.073815153 172.135801839 333.506950862 177.594562224 333.506950862 c 0
 185.433135709 333.506950862 194.262885098 338.799792674 209 350 c 0
 228.54135831 365.407609437 256.414823273 372.341890073 283.598388413 372.341890073 c 0
 328.750909889 372.341890073 372 353.210232394 372 322 c 0
 372 312.679932127 372.71788153 307.487683053 376.510597343 307.487683053 c 0
 381.67057898 307.487683053 392.521938503 317.098299054 415 339 c 0
 445.665292095 366.877538268 475.359137765 381.154826588 504.420056196 381.154826588 c 0
 517.05710715 381.154826588 529.574476725 378.455107779 542 373 c 0
 587 355 598 312 598 159 c 0
 598 31 599 26 623 18 c 0
 646 11 645 9 609 -0 c 0
 594.482822175 -3.95923031591 577.244202563 -5.74130720204 560.660249809 -5.74130720204 c 0
 526.9800307 -5.74130720204 496 1.60890961421 496 13 c 0
 496 19 504 23 513 23 c 0
 527 23 530 47 530 168 c 0
 530 266 525 317 516 326 c 0
 506.52317076 335.85590241 493.741322758 340.538731974 479.833315016 340.538731974 c 0
 457.051815673 340.538731974 431.248731742 327.974292725 412 305 c 0
 385 272 383 263 383 147 c 0
 383 42 386 23 401 23 c 0
 411 23 417 17 414 10 c 0
 410.871507192 0.614521577166 377.293116282 -4.14909731223 345.018923005 -4.14909731223 c 0
 315.39584767 -4.14909731223 286.871507192 -0.135937045101 284 8 c 0
 282 16 288 23 299 25 c 0
 312.654996541 28.2129403626 316.632193919 39.813306666 316.632193919 108.515332338 c 0
 316.632193919 125.344960441 316.393529819 145.601151239 316 170 c 0
 313.814814815 298.925925926 304.732357872 347.737387593 267.883960778 347.737387593 c 0
 254.143880506 347.737387593 236.543209877 340.950617284 214 329 c 0
 177.377155081 309.773006417 166.74069508 279.648496579 166.74069508 178.761763307 c 0
 166.74069508 169.458549846 166.831142246 159.553609628 167 149 c 0
 167 55 171 28 185 21 c 0
 195 15 200 6 196 0 c 0
 192.122224491 -6.64761515876 155.101358507 -10.226425644 120.977812741 -10.226425644 c 0
 93.5029447286 -10.226425644 67.9063527711 -7.90635277113 63 -3 c 0
EndSplineSet
Validated: 524289
Colour: ff0000
EndChar

StartChar: uni0443
Encoding: 227 1091 147
Width: 570
VWidth: 0
Flags: HW
LayerCount: 2
Fore
SplineSet
31 -307 m 1
 19.975 -295.45 14.4625 -288.034375 14.4625 -279.977921875 c 0
 14.4625 -272.68875 18.975 -264.875 28 -253 c 0
 34.528205458 -244.023717495 44.552374965 -239.875194868 54.1329324734 -239.875194868 c 0
 68.0333945379 -239.875194868 81 -248.608333869 81 -264 c 0
 81 -276.084592328 83.9757711272 -281.880762651 89.4749739987 -281.880762651 c 0
 107.183781695 -281.880762651 151.060600934 -221.774420459 206 -118 c 0
 243.633174947 -47.2496311002 256.90674916 -17.8539332122 256.90674916 1.31324504495 c 0
 256.90674916 7.61186695522 255.473365011 12.8059334776 253 18 c 0
 246 32 209 114 171 201 c 0
 133 288 99 361 97 364 c 0
 95 366 80 369 65 369 c 0
 42.9548417649 369.78732708 33.1523911596 373.674073813 33.1523911596 378.2809896 c 0
 33.1523911596 385.376747086 56.4071394746 394.18099062 94 396 c 2
 157 400 l 1
 189 317 l 2
 247 168 288 82 302 82 c 0
 319 82 409 305 409 346 c 0
 409 370 404 376 381 376 c 0
 365 376 353 381 353 387 c 0
 353 394 387 399 432 399 c 0
 477 399 511 394 511 387 c 0
 511 381 501 376 490 376 c 0
 460 376 449 359 415 263 c 0
 398 216 337 81 279 -38 c 0
 202 -196 162 -263 133 -289 c 0
 106.623104158 -312.446129637 85.3998426436 -323.86711251 66.9135598861 -323.86711251 c 0
 53.8615324094 -323.86711251 42.1738624947 -318.173862495 31 -307 c 1
 31 -307 l 1
EndSplineSet
Validated: 524289
Colour: ff0000
EndChar

StartChar: uni0444
Encoding: 228 1092 148
Width: 450
VWidth: 0
Flags: HW
LayerCount: 2
Fore
SplineSet
333 118 m 0
 357 137 362 151 362 191 c 0
 362 218 359 248 355 258 c 0
 347 280 293 310 261 310 c 0
 239 310 238 303 238 202 c 2
 238 95 l 1
 270 95 l 2
 288 95 316 105 333 118 c 0
213 194 m 0
 213 210 214 223 214 235 c 0
 214 288 208 308 188 308 c 1
 178 308 163 302 144 293 c 0
 105 274 86 247 86 210 c 3
 86 199 87 187 91 175 c 0
 105 122 143 87 184 87 c 0
 187 87 190 87 193 87 c 0
 200 88 205 96 208 117 c 0
 210 133 212 158 213 194 c 0
159 3 m 1
 159 7 169 20 181 30 c 0
 195.222222222 41.5555555556 202.333333333 50.7407407407 202.333333333 57.5555555556 c 0
 202.333333333 58.4074074074 202.222222222 59.2222222222 202 60 c 1
 201 69 185 72 156 73 c 0
 86 73 35 124 35 193 c 0
 35 270 84 321 158 321 c 0
 184.28125 321 197.421875 326.749023438 197.421875 336.014190674 c 0
 197.421875 336.97265625 197.28125 337.96875 197 339 c 1
 196 345 189 353 176 362 c 0
 163 370 156 377 156 382 c 3
 156 391 177 396 221 399 c 0
 230 399 237 399 244 399 c 3
 274 399 287 395 287 386 c 3
 287 382 282 376 273 370 c 0
 257 359 250 350 250 342 c 1
 250 330 267 322 301 318 c 0
 360 311 390 288 408 235 c 0
 413 220 415 208 415 196 c 3
 415 184 413 173 408 160 c 0
 389 105 364 85 304 77 c 0
 269 72 253 68 252 60 c 1
 251.937253933 59.6235235992 251.906004418 59.2391730605 251.906004418 58.8462072773 c 0
 251.906004418 52.9763775866 258.878444935 45.1843011315 272 33 c 0
 284 22 295 9 295 4 c 0
 295 -0 264 -4 227 -4 c 0
 189 -4 159 -1 159 3 c 1
 159 3 l 1
EndSplineSet
Validated: 524293
Colour: ff0000
EndChar

StartChar: uni0446
Encoding: 230 1094 149
Width: 483
VWidth: 0
Flags: HW
LayerCount: 2
Fore
SplineSet
408 -179 m 1
 370.875 -156.21875 345.140625 -144.828125 328.394165039 -144.828125 c 0
 325.29296875 -144.828125 322.5 -145.21875 320 -146 c 0
 308 -150 298 -151 298 -148 c 0
 298 -145 328 -113 366 -77 c 0
 403 -42 433 -9 433 -4 c 0
 433 -1.527864045 402.4427191 0.180339887499 355.728303927 0.180339887499 c 0
 326.857207586 0.180339887499 291.814635114 -0.472135955 254 -2 c 2
 75 -8 l 1
 68 29 l 2
 64 49 60 129 60 206 c 0
 60 338 59 346 38 346 c 0
 25 346 15 350 15 356 c 0
 15 364 80.3333333333 370.666666667 126.259259259 370.666666667 c 0
 149.222222222 370.666666667 167.333333333 369 170 365 c 0
 172 361 163 352 149 347 c 0
 130.925981454 340.048454405 125.416199308 337.446067565 125.416199308 284.100911012 c 0
 125.416199308 260.707512339 126.475772797 227.555888722 128 180 c 2
 134 23 l 1
 224 23 l 1
 315 23 l 1
 315 119 l 2
 315.133974596 126.100653599 315.196152423 133.57824024 315.196152423 141.293285245 c 0
 315.196152423 191.16412012 312.598076211 250.95706006 310 283 c 0
 304 343 300 352 278 355 c 0
 264 357 255 363 259 369 c 0
 263.339490186 375.750318067 303.946428658 379.01338149 344.83812473 379.01338149 c 0
 388.754839071 379.01338149 433 375.249681933 433 368 c 0
 433 362 420 357 405 357 c 2
 376 357 l 1
 379 190 l 1
 382 23 l 1
 425 27 l 2
 429.800379508 27.417424305 434.426515966 27.617044797 438.742034465 27.617044797 c 0
 455.103407306 27.617044797 467 24.7477270849 467 20 c 0
 467 14 444 -17 415 -49 c 0
 387.516752427 -79.7550627605 375.876571291 -95.0952500685 375.876571291 -102.02537076 c 0
 375.876571291 -105.685885991 379.124171637 -107 385 -107 c 0
 397 -107 429 -122 456 -142 c 0
 485.524318639 -163.709057823 506.754053106 -172.599212835 526.891907698 -172.599212835 c 0
 529.944666394 -172.599212835 532.972333197 -172.394913061 536 -172 c 0
 575 -166 580 -182 544 -196 c 0
 515.714285714 -206.285714286 498.448979592 -211.979591837 482.915451895 -211.979591837 c 0
 462.204081633 -211.979591837 444.571428571 -201.857142857 408 -179 c 1
 408 -179 l 1
EndSplineSet
Validated: 524289
Colour: ff0000
EndChar

StartChar: uni0447
Encoding: 231 1095 150
Width: 394
VWidth: 0
Flags: HW
LayerCount: 2
Fore
SplineSet
205 8 m 0
 205 14 215 19 228 19 c 0
 249 19 250 26 250 114 c 2
 250 209 l 1
 184 203 l 2
 169.422835534 201.691792933 157.395316341 200.802705636 147.414838262 200.802705636 c 0
 103.99142617 200.802705636 99.3180194847 217.632918429 92 290 c 0
 87 344 83 353 61 356 c 0
 45.8538359511 358.065386007 39.2393106153 361.671206781 39.2393106153 365.512193641 c 0
 39.2393106153 372.829373382 63.2442430589 381 98 381 c 2
 149 381 l 1
 149 321 l 2
 149 251.74919743 163.493591496 223.421476729 201.140085291 223.421476729 c 0
 204.265494923 223.421476729 207.550481542 223.616720171 211 224 c 0
 243 228 245 231 248 287 c 0
 248.624297731 296.572565203 248.945458395 304.802666256 248.945458395 311.888562741 c 0
 248.945458395 338.85322965 244.294709834 349.248595461 234 354 c 0
 224.247556236 357.728875557 219.760726832 361.540026338 219.760726832 365.079459182 c 0
 219.760726832 373.879571135 247.497031458 381 291 381 c 0
 329.341616678 381 352.16572679 374.87466846 352.16572679 367.582057786 c 0
 352.16572679 363.462613405 344.882814436 358.970703609 329 355 c 0
 308 349 307 339 307 184 c 0
 307 48 310 19 323 19 c 0
 332 19 343 14 346 8 c 0
 346.421402127 7.32575659723 346.629708551 6.67992595485 346.629708551 6.06250807285 c 0
 346.629708551 -0.645830642383 322.038820009 -4 279 -4 c 0
 237 -4 205 1 205 8 c 0
EndSplineSet
Validated: 524289
Colour: ff0000
EndChar

StartChar: uni0448
Encoding: 232 1096 151
Width: 673
VWidth: 0
Flags: HW
LayerCount: 2
Fore
SplineSet
168 -4 m 1
 86 -0 l 1
 86 180 l 1
 86 360 l 1
 58 360 l 2
 43 360 30 366 30 372 c 0
 30 378 64 383 109 383 c 0
 154 383 188 378 188 372 c 0
 188 366 180 360 171 360 c 0
 157 360 154 334 154 191 c 2
 154 21 l 1
 228 21 l 1
 301 21 l 1
 302 165 l 2
 302.471656916 205.798323201 302.832083708 237.086470884 302.832083708 261.290831672 c 0
 302.832083708 339.721924692 299.047602386 343.773255325 283 356 c 0
 273.563052429 363.41474452 268.442593658 368.898428261 268.442593658 372.910462635 c 0
 268.442593658 380.802379366 288.255335086 383 334 383 c 0
 380.274564584 383 410.330505615 375.844724903 410.330505615 367.793913566 c 0
 410.330505615 364.188119068 404.301398849 360.402683426 391 357 c 0
 370 352 369 341 369 186 c 2
 369 21 l 1
 448 21 l 1
 527 21 l 1
 527 186 l 2
 527 342 526 352 505 357 c 0
 492 360 482 368 482 373 c 0
 482 379.750318067 515.477644572 383.01338149 551.158258634 383.01338149 c 0
 589.478394156 383.01338149 630.339490186 379.249681933 635 372 c 0
 638 366 631 360 618 360 c 0
 596 360 595 355 595 180 c 2
 595 -1 l 1
 445 -1 l 2
 363 -2 285 -3 273 -5 c 0
 267.156633344 -5.89897948557 254.443871706 -6.3938769134 238.13106841 -6.3938769134 c 0
 218.152046236 -6.3938769134 192.772961575 -5.65153077165 168 -4 c 1
 168 -4 l 1
EndSplineSet
Validated: 524293
Colour: ff0000
EndChar

StartChar: uni0449
Encoding: 233 1097 152
Width: 722
VWidth: 0
Flags: HW
LayerCount: 2
Fore
SplineSet
586.875976562 -151.973632812 m 2
 586.875976562 -149.045898438 599.58984375 -117.88671875 615.131835938 -82.748046875 c 0
 630.671875 -47.6103515625 643.385742188 -13.986328125 643.385742188 -8.0302734375 c 0
 643.385742188 -4.10138412087 608.917612056 -2.10915293765 545.673699285 -2.10915293765 c 0
 498.847074718 -2.10915293765 436.245231439 -3.20131724238 360.178710938 -5.408203125 c 2
 76.96875 -13.625 l 1
 78.3056640625 103.848632812 l 2
 79.0301659052 167.472036562 79.6074141849 215.455306248 79.6074141849 251.642173613 c 0
 79.6074141849 360.346000318 74.3984624211 362.601886268 52.3246900448 362.601886268 c 0
 51.3688414813 362.601886268 50.3813696469 362.59765625 49.361328125 362.59765625 c 0
 32.9580078125 362.59765625 23.462890625 367.4921875 27.423828125 373.900390625 c 0
 31.2646484375 380.116210938 66.8671875 385.202148438 106.538085938 385.202148438 c 0
 146.209960938 385.202148438 181.811523438 380.116210938 185.653320312 373.900390625 c 0
 189.493164062 367.68359375 182.166992188 362.59765625 169.3671875 362.59765625 c 0
 146.907226562 362.59765625 146.095703125 356.67578125 146.095703125 193.067382812 c 2
 146.095703125 23.5361328125 l 1
 225.209960938 23.5361328125 l 1
 304.32421875 23.5361328125 l 1
 304.32421875 193.067382812 l 2
 304.32421875 355.059570312 303.319335938 362.59765625 281.720703125 362.59765625 c 0
 269.288085938 362.59765625 259.116210938 367.68359375 259.116210938 373.900390625 c 0
 259.116210938 381.243786731 296.913407485 385.018108882 334.873803929 385.018108882 c 0
 370.818591826 385.018108882 406.909708671 381.633960962 411.1953125 374.69140625 c 0
 414.76171875 368.916015625 406.162109375 362.564453125 392.083007812 360.563476562 c 0
 378.004882812 358.563476562 367.7578125 353.116210938 369.311523438 348.447265625 c 0
 370.8671875 343.791992188 372.134765625 268.768554688 372.134765625 181.7421875 c 2
 372.134765625 23.513671875 l 1
 451.25 23.513671875 l 1
 530.36328125 23.513671875 l 1
 530.36328125 192.219726562 l 2
 530.36328125 343.384765625 528.30859375 361.456054688 510.584960938 366.08984375 c 0
 509.097312997 366.479418132 508.383842582 366.870033591 508.383842582 367.255972608 c 0
 508.383842582 369.692084007 536.810964046 371.941869835 578.397460938 372.567382812 c 0
 582.661168743 372.63257466 586.817028986 372.664521414 590.853857906 372.664521414 c 0
 635.79853305 372.664521414 665.98828125 368.70445436 665.98828125 362.576171875 c 0
 665.98828125 356.359375 650.73046875 351.2734375 632.08203125 351.2734375 c 2
 598.17578125 351.2734375 l 1
 598.17578125 187.393554688 l 1
 598.17578125 23.513671875 l 1
 637.06640625 23.513671875 l 2
 658.45703125 23.513671875 678.18359375 19.705078125 680.904296875 15.037109375 c 0
 681.258811868 14.4296123362 681.428474752 13.4974883595 681.428474752 12.272641262 c 0
 681.428474752 -12.5263076131 611.879675411 -157.319335937 598.845703125 -157.319335938 c 0
 592.260742188 -157.319335938 586.875 -154.923828125 586.875 -151.985351562 c 2
 586.875976562 -151.973632812 l 2
EndSplineSet
Validated: 524289
Colour: ff0000
EndChar

StartChar: uni044A
Encoding: 234 1098 153
Width: 533
VWidth: 0
Flags: HW
LayerCount: 2
Fore
SplineSet
360.469726562 40.4501953125 m 0
 389.388671875 64.4560546875 421.025390625 137.919921875 421.025390625 181.059570312 c 0
 421.025390625 270.748594614 356.660488436 343.166289137 294.300652014 343.166289137 c 0
 277.607295032 343.166289137 261.057621269 337.976829704 245.924804688 326.540039062 c 0
 225.73668876 311.279094648 213.25348261 239.768970183 213.25348261 151.106785591 c 0
 213.25348261 128.339890343 214.076590767 104.442035595 215.803710938 80.0751953125 c 2
 220.51171875 13.6533203125 l 1
 281.990234375 20.0048828125 l 2
 315.8046875 23.4970703125 351.12109375 32.697265625 360.469726562 40.4501953125 c 0
197.388671875 -8.509765625 m 1
 129.540800952 -6.63026117485 87.5872510986 -1.5206550952 87.5872510986 4.7387842282 c 0
 87.5872510986 11.708872313 109.04805534 16.5126953125 122.1875 16.5126953125 c 2
 149.775390625 16.5126953125 l 1
 149.775390625 309.700195312 l 2
 149.775390625 470.95703125 145.272460938 605.677734375 139.771484375 609.068359375 c 0
 136.992624848 610.786533406 133.216212864 611.568677936 128.770842486 611.568677936 c 0
 104.587021373 611.568677936 60.6046655604 588.420279276 49.73046875 566.900390625 c 0
 44.3487022379 556.251591238 41.298629107 550.584554252 39.8071812551 550.584554252 c 0
 38.9797590215 550.584554252 38.6320480816 552.328746188 38.6320480816 555.934139789 c 0
 38.6320480816 560.045893133 39.0842861283 566.578353186 39.79296875 575.705078125 c 0
 43.1337890625 618.732421875 79.302734375 637.7421875 158.251953125 637.96875 c 2
 217.587890625 638.194335938 l 1
 217.587890625 489.9453125 l 1
 217.587890625 341.6953125 l 1
 243.016601562 350.126953125 l 2
 257.002929688 354.76171875 291.333984375 360.649414062 319.306640625 363.2265625 c 0
 326.022798915 363.843690942 332.59033725 363.852083831 338.999994447 363.852083831 c 7
 430.662920237 363.852083831 490.037330866 278.239710701 490.037330866 189.000002825 c 3
 490.037330866 135.451017829 470.876811593 79.6087880086 425.2421875 37.41015625 c 0
 387.417011879 2.42819599144 347.547104078 -9.23780134661 247.827776792 -9.23780134661 c 0
 232.498956549 -9.23780134661 215.755910607 -8.96213696449 197.388671875 -8.453125 c 1
 197.388671875 -8.509765625 l 1
EndSplineSet
Validated: 524289
Colour: ff0000
EndChar

StartChar: uni044B
Encoding: 235 1099 154
Width: 648
VWidth: 0
Flags: HW
LayerCount: 2
Fore
SplineSet
283.401367188 23.82421875 m 1
 327.345633932 46.0222908143 350.630749935 108.148763006 350.630749935 172.195698233 c 0
 350.630749935 224.139099629 335.314851757 277.345694917 303.282226562 311.540039062 c 0
 287.387496107 328.512620166 264.639366311 337.018260685 242.007320953 337.018260685 c 0
 219.712343639 337.018260685 197.530018729 328.76408927 182.123046875 312.21875 c 0
 161.666992188 290.270507812 159.078125 272.70703125 159.078125 155.876953125 c 0
 159.078125 83.4990234375 162.469726562 20.8740234375 166.61328125 16.7373046875 c 0
 171.628650404 11.7188242619 186.407353474 9.41229499043 204.274948447 9.41229499043 c 0
 231.273447526 9.41229499043 265.32455475 14.6786000711 283.401367188 23.8125 c 1
 283.401367188 23.82421875 l 1
82.7900390625 -5.2109375 m 0
 59.3013657251 -2.29894406622 46.8694118848 3.78226534092 46.8694118848 10.1471238999 c 0
 46.8694118848 14.9735068203 54.0177555824 19.9629873241 68.9140625 23.857421875 c 0
 85.4145725492 28.1766365181 89.9588969065 33.5199648283 89.9588969065 121.899478872 c 0
 89.9588969065 151.695665512 89.4423765101 190.929973244 88.693359375 242.745117188 c 0
 86.37890625 402.951171875 82.1181640625 455.9921875 71.486328125 457.0546875 c 0
 38.2314453125 460.389648438 34.755859375 461.858398438 34.755859375 472.594726562 c 0
 34.755859375 479.1953125 72.4296875 483.897460938 125.171875 483.897460938 c 0
 177.915039062 483.897460938 215.588867188 479.1953125 215.588867188 472.594726562 c 0
 215.588867188 466.37890625 202.607421875 461.29296875 186.743164062 461.29296875 c 0
 165.592382136 461.29296875 160.00266378 459.915394632 160.00266378 433.892904473 c 0
 160.00266378 425.838554132 160.538156108 415.423232698 161.313476562 401.95703125 c 0
 163.676978148 360.897017956 167.406313658 346.911800853 177.40830475 346.911800853 c 0
 178.721561025 346.911800853 180.142955088 347.152899768 181.68359375 347.60546875 c 0
 191.005859375 350.3515625 225.658203125 354.658203125 258.6875 357.177734375 c 0
 271.464157134 358.151488472 281.609083956 358.831998093 290.107859281 358.831998093 c 0
 319.989443658 358.831998093 329.521031198 350.419425703 361.541015625 316.76171875 c 0
 397.233725784 279.23724519 412.895503899 245.429707566 412.895503899 198.050090122 c 0
 412.895503899 180.386874582 410.718809276 160.837393451 406.591796875 138.505859375 c 0
 387.070141231 32.8684241979 326.169363833 -12.9396892262 192.288235742 -12.9396892262 c 0
 160.142147846 -12.9396892262 123.788566239 -10.2987407065 82.7900390625 -5.2109375 c 0
441.630859375 -2.03515625 m 0
 441.630859375 2.8251953125 449.399414062 9.775390625 458.89453125 13.42578125 c 0
 470.097890159 17.7247794544 473.989347403 34.14224129 473.989347403 103.310122273 c 0
 473.989347403 124.15748731 473.63583418 149.796879991 473.022460938 181.340820312 c 0
 469.956054688 338.903320312 469.297851562 342.711914062 444.455078125 346.23828125 c 0
 425.667481224 348.906350222 417.231796906 352.383709537 417.231796906 355.836598756 c 0
 417.231796906 362.519555553 448.832179199 369.110846475 498.139648438 369.565429688 c 0
 500.178008318 369.586210501 502.19612154 369.596437885 504.191543482 369.596437885 c 0
 545.61246484 369.596437885 577.255859375 365.189523641 577.255859375 359.291992188 c 0
 577.255859375 353.234375 566.682617188 348.272460938 553.759765625 348.272460938 c 0
 538.362811893 348.272460938 533.113844363 346.643717507 533.113844363 299.70992859 c 0
 533.113844363 276.700631866 534.375408527 242.802484806 536.321289062 192.869140625 c 0
 539.653320312 107.40234375 542.595703125 33.6572265625 542.86328125 28.9892578125 c 0
 543.123046875 24.3330078125 555.763671875 20.5126953125 570.936523438 20.5126953125 c 0
 586.110351562 20.5126953125 601.66796875 15.4267578125 605.510742188 9.2109375 c 0
 606.079347085 8.29240055035 606.353659704 7.402370208 606.353659704 6.5504791725 c 0
 606.353659704 1.40659351269 596.352271068 -2.34673989667 580.748046875 -2.5888671875 c 0
 563.286132812 -2.8154296875 524.840820312 -4.837890625 495.315429688 -6.974609375 c 0
 487.721765391 -7.52386667809 480.483272334 -7.78312236926 473.919502122 -7.78312236926 c 0
 454.960587663 -7.78312236926 441.630859375 -5.62016233083 441.630859375 -2.03515625 c 0
EndSplineSet
Validated: 524289
Colour: ff0000
EndChar

StartChar: uni044C
Encoding: 236 1100 155
Width: 1000
VWidth: 0
Flags: HW
LayerCount: 2
Fore
SplineSet
310 59 m 0
 327 76 346 104 352 122 c 0
 359.968595351 142.796090307 363.593152115 164.423214084 363.593152115 185.633290614 c 0
 363.593152115 266.269046248 311.205883626 340.877039747 245.965832962 340.877039747 c 0
 240.07239087 340.877039747 234.074065415 340.26821146 228 339 c 0
 171 326 161 298 161 155 c 2
 161 28 l 1
 221 28 l 2
 272 28 285 33 310 59 c 0
25 3 m 0
 25 10 39 17 55 19 c 0
 96 23 99 39 99 265 c 2
 99 452 l 1
 68 455 l 2
 50 457 36 463 36 468 c 0
 36 475.71210434 134.731078552 484.613739746 190.916905029 484.613739746 c 0
 207.585158325 484.613739746 220.509050415 483.830316528 226 482 c 0
 232.781677349 479.842193571 235.762433404 476.639133785 235.762433404 473.2402775 c 0
 235.762433404 465.613124375 220.75225816 457 200 457 c 0
 174 457 172 453 172 400 c 0
 172 360.63344138 173.191638553 348.078750192 182.013640413 348.078750192 c 0
 184.620681645 348.078750192 187.894079513 349.17514645 192 351 c 0
 203 356 240 362 276 364 c 0
 289.211839416 364.880789294 299.80538832 365.470657421 308.720194297 365.470657421 c 0
 340.290921168 365.470657421 350.807892944 358.072896351 382 330 c 0
 422 294 425 285 430 218 c 0
 430.505903591 208.893735365 430.766106276 200.176497164 430.766106276 191.818245996 c 0
 430.766106276 117.569343151 410.232699065 71.649229119 359 33 c 0
 321 4 311 2 172 -3 c 0
 139.333333333 -4.33333333333 112.111111111 -5 90.3333333333 -5 c 0
 46.7777777778 -5 25 -2.33333333333 25 3 c 0
EndSplineSet
Validated: 524289
Colour: ff0000
EndChar

StartChar: uni044D
Encoding: 237 1101 156
Width: 370
VWidth: 0
Flags: HW
LayerCount: 2
Fore
SplineSet
39 36 m 1
 39 88 l 1
 80 52 l 2
 109 27 122 20 146 20 c 3
 152 20 158 21 166 22 c 0
 236 31 275 83 275 166 c 3
 275 174 274 182 274 191 c 0
 270 233 266 239 242 239 c 0
 218 239 213 232 207 194 c 0
 203 170 191 143 179 135 c 0
 166 126 144 121 122 121 c 3
 97 121 71 127 56 138 c 0
 35 154 36 155 80 148 c 2
 127 140 l 1
 154 195 l 2
 174 238 188 252 217 261 c 0
 240.146658536 267.686812466 251.651942622 275.696508392 251.651942622 286.117810684 c 0
 251.651942622 295.956823825 241.396452033 307.94547588 221 323 c 0
 200 337 178 345 156 345 c 3
 115 345 76 320 56 274 c 0
 49.8905522997 260.151918546 46.2694613463 251.944112385 44.0556615109 251.944112385 c 0
 40.8341095502 251.944112385 40.5927034866 269.325348961 40 312 c 0
 39.8641101056 321.104622922 39.7836184015 329.064349913 39.7836184015 335.972026977 c 0
 39.7836184015 363.485219383 41.0605541374 374.308491222 45.2000063466 374.308491222 c 0
 47.6692510805 374.308491222 51.1570649714 370.457246705 56 364 c 0
 64.0283113388 353.104434612 69.4258560265 348.128094188 77.2842105885 348.128094188 c 0
 83.1294805155 348.128094188 90.3362702479 350.881409719 101 356 c 0
 122 365 146 369 170 369 c 3
 228 369 287 339 313 293 c 0
 324 273 335 229 338 194 c 0
 338 187 338 179 338 172 c 3
 338 96 305 42 240 7 c 0
 214 -6 194 -13 172 -13 c 3
 148 -13 121 -5 81 12 c 0
 67 18 61 16 61 3 c 0
 61 -7 56 -16 50 -16 c 0
 44 -16 39 8 39 36 c 2
 39 36 l 1
EndSplineSet
Validated: 524293
Colour: ff0000
EndChar

StartChar: uni044E
Encoding: 238 1102 157
Width: 618
VWidth: 0
Flags: HW
LayerCount: 2
Fore
SplineSet
464 51 m 0
 498 78 516 133 516 190 c 3
 516 223 509 256 496 285 c 0
 473 335 435 359 398 359 c 3
 351 359 306 321 293 252 c 0
 290 235 289 219 289 204 c 3
 289 108 342 29 404 29 c 3
 423 29 444 35 464 51 c 0
32 6 m 0
 32 13 42 18 54 18 c 0
 78.6011795055 18 84.491694493 30.233896031 84.491694493 134.06451852 c 0
 84.491694493 152.6299808 84.3033669307 174.123911686 84 199 c 0
 82.2476131027 327.800436955 77.4243663673 362.939648851 58.0949238886 362.939648851 c 0
 55.3636644664 362.939648851 52.3427768858 362.238065513 49 361 c 0
 39 357 32 360 32 367 c 0
 32 375 61 379 111 379 c 0
 156 379 190 375 190 368 c 0
 190 362 183 357 173 357 c 0
 160 357 156 341 156 283 c 2
 156 210 l 1
 190 210 l 2
 217 210 224 215 224 233 c 0
 224 266 250 312 291 351 c 0
 322 380 335 385 391 385 c 0
 474 385 524 356 560 290 c 0
 576 260 585 229 585 198 c 3
 585 143 564 89 518 46 c 0
 486 15 476 12 405 12 c 0
 338 12 324 16 297 40 c 0
 264 71 224 142 224 170 c 0
 224 182 212 187 183 187 c 2
 142 187 l 1
 149 135 l 2
 153 106 156 68 156 50 c 0
 156 29 162 18 173 18 c 0
 183 18 190 13 190 6 c 0
 190 -0 156 -5 111 -5 c 0
 66 -5 32 -0 32 6 c 0
EndSplineSet
Validated: 524289
Colour: ff0000
EndChar

StartChar: uni044F
Encoding: 239 1103 158
Width: 442
VWidth: 0
Flags: HW
LayerCount: 2
Fore
SplineSet
271 273 m 0
 271 312 268 347 264 351 c 0
 262.948136735 352.051863265 260.928159181 352.550518366 258.194648304 352.550518366 c 0
 250.533230611 352.550518366 237.266615306 348.633307653 224 342 c 0
 200.330674521 329.757245442 189.65138577 304.024837359 189.65138577 277.851705503 c 0
 189.65138577 239.889437768 212.117876391 201 250 201 c 0
 268 201 271 211 271 273 c 0
33 9 m 1
 33 15 44 20 56 20 c 0
 87 20 124 60 124 93 c 0
 124 111 138 132 165 155 c 0
 187.689935926 172.91310731 197.544695312 181.912897578 197.544695312 187.747318172 c 0
 197.544695312 191.684101133 193.05792846 194.179725039 185 197 c 0
 144 211 124 238 124 277 c 0
 124 322 165 370 205 372 c 0
 252.796639375 374.655368854 286.099589928 375.93971309 310.109674614 375.93971309 c 0
 340.352131111 375.93971309 355.851229514 373.90206967 367 370 c 0
 389 361 388 360 364 353 c 0
 344.592425327 347.028438562 339.671541219 344.399959562 339.671541219 280.233440948 c 0
 339.671541219 258.437158331 340.239335539 229.540332682 341 191 c 0
 344 41 345 37 370 34 c 0
 384 32 395 23 395 14 c 0
 395 1 377 -2 316 -2 c 0
 265.377183544 -2 236.797906782 3.61894149046 236.797906782 11.7310371775 c 0
 236.797906782 15.9578710805 244.557080388 20.8615876213 261 26 c 0
 276.538656776 31.1795522587 281.674712115 36.3591045173 281.674712115 63.0099600969 c 0
 281.674712115 72.3768874725 281.040255852 84.396162217 280 100 c 0
 277 137 271 170 267 175 c 0
 264.0006485 177.9993515 260.565499311 179.411154279 256.842838074 179.411154279 c 0
 239.465857928 179.411154279 215.824216059 148.649080617 201 105 c 0
 178 36 133 -2 76 -2 c 0
 52 -2 33 3 33 9 c 1
 33 9 l 1
EndSplineSet
Validated: 524293
Colour: ff0000
EndChar

StartChar: uni0463
Encoding: 256 1123 159
Width: 555
VWidth: 0
Flags: HW
LayerCount: 2
Fore
SplineSet
360 49 m 0
 393 68 425 129 431 182 c 0
 432 189 431 196 431 203 c 3
 431 273 364 343 305 343 c 3
 299 343 292 342 286 341 c 0
 244.340597826 330.132329868 230.567394538 294.65919013 230.567394538 187.042069298 c 0
 230.567394538 175.829170976 230.716917533 163.833071833 231 151 c 0
 234 48 237 29 254 25 c 0
 259.512548871 23.7749891399 265.692054011 23.1752497828 272.342768968 23.1752497828 c 0
 298.266695627 23.1752497828 331.350065161 32.2875380104 360 49 c 0
98 4 m 0
 98 10 110 17 124 19 c 0
 149 23 149 23 152 280 c 2
 155 537 l 1
 108 537 l 2
 81 537 52 530 41 520 c 0
 16 497 4 515 25 545 c 0
 34.4281865808 558.77965731 43.3303926752 564.143626838 65.8208152108 564.143626838 c 0
 74.3411804291 564.143626838 84.8117658369 563.373774392 98 562 c 2
 155 557 l 1
 155 604 l 2
 155 629 150 651 143 652 c 0
 137 652 127 654 122 654 c 0
 116 655 108 660 103 664 c 0
 102.521791478 664.478208522 102.290561017 664.947269709 102.290561017 665.40455896 c 0
 102.290561017 669.728544293 122.964892839 673 151 673 c 0
 183 673 224 676 244 680 c 0
 251.206060761 681.372583002 257.587878479 682.038671968 262.862617657 682.038671968 c 0
 272.959594929 682.038671968 279 679.597979746 279 675 c 0
 279 668 268 662 254 660 c 0
 232 657 228 648 225 608 c 2
 221 560 l 1
 262 560 l 2
 285 560 313 565 325 571 c 0
 330.447905908 574.204650534 334.868833311 575.971531162 338.855181509 575.971531162 c 0
 347.308093551 575.971531162 353.806975801 568.026978505 364 549 c 0
 371.269630222 534.979998857 374.764437333 526.35260216 374.764437333 521.297705897 c 0
 374.764437333 516.617781334 371.768888381 515 366 515 c 0
 358 515 346 520 339 527 c 0
 334.062746067 531.937253933 314.228756555 535.520259177 292.313381659 535.520259177 c 0
 287.596087635 535.520259177 282.782357301 535.354248689 278 535 c 2
 228 532 l 1
 225 448 l 2
 223.987214069 425.111037971 223.343692862 406.571193787 223.343692862 391.790400467 c 0
 223.343692862 355.885490521 227.140994171 342.162054304 238.666797321 342.162054304 c 0
 245.820569307 342.162054304 255.95164478 347.448827257 270 356 c 0
 295 371 322 378 349 378 c 3
 401 378 452 348 477 299 c 0
 488 279 498 234 501 199 c 0
 502 188 503 178 503 169 c 3
 503 138 497 119 480 91 c 0
 440 21 390 2 231 -3 c 0
 205.056266631 -3.87450786639 182.936353303 -4.32414683923 164.615489938 -4.32414683923 c 0
 120.086615516 -4.32414683923 98 -1.66797902297 98 4 c 0
EndSplineSet
Validated: 524289
EndChar

StartChar: uni0462
Encoding: 257 1122 160
Width: 870
VWidth: 0
Flags: HW
LayerCount: 2
Fore
SplineSet
418 36 m 0
 535 49 589 74 643 137 c 0
 689 190 710 257 710 324 c 3
 710 478 608 634 457 634 c 0
 456.238322254 634.014371278 455.473753038 634.021513879 454.706461535 634.021513879 c 0
 402.083129665 634.021513879 336.655089323 600.425148871 313 561 c 0
 292 527 290 505 290 282 c 0
 290 148 294 36 298 32 c 0
 302.122359024 27.4196010845 302.67810883 24.9372075915 313.505219954 24.9372075915 c 0
 326.316030601 24.9372075915 353.506747094 28.4125584817 418 36 c 0
118 -3 m 1
 115.16169449 -0.161694490215 113.865353551 2.86542300786 113.865353551 5.92504654644 c 0
 113.865353551 20.1130295282 141.740975586 35 173 35 c 2
 211 35 l 1
 213 414 l 2
 215 622 216 809 216 829 c 0
 216.077350269 831.397858345 216.118802154 833.65212315 216.118802154 835.772050249 c 0
 216.118802154 861.058971512 210.220943809 867.232050808 189 870 c 0
 182.557400799 870.972467804 176.085248672 871.442535867 169.644614566 871.442535867 c 0
 123.101414511 871.442535867 78.2041550637 846.894544029 58 810 c 0
 44.0887304837 784.496005887 33.8329033368 771.893573077 27.7310660494 771.893573077 c 0
 23.4313557623 771.893573077 21.1942813877 778.151226894 21.1942813877 790.56187145 c 0
 21.1942813877 798.520277062 22.1141883116 809.008852813 24 822 c 0
 35.005891029 892.268381185 34.5438873984 901.613571991 92.3959885308 901.613571991 c 0
 102.877956193 901.613571991 115.274272214 901.306785996 130 901 c 2
 217 900 l 1
 217 940 l 2
 217 976 214 979 179 983 c 0
 158.486761762 984.86483984 145.798185688 991.076714215 145.798185688 998.39301385 c 0
 145.798185688 998.923285785 145.86483984 999.459359359 146 1000 c 0
 149 1009 190 1014 266 1016 c 0
 290.188764057 1016.76385571 309.515231937 1017.20355834 324.887292963 1017.20355834 c 0
 369.888130447 1017.20355834 381 1013.43534003 381 1003 c 0
 381 992 367 985 344 983 c 0
 310 979 307 976 307 940 c 2
 307 900 l 1
 369 903 l 2
 404 905 443 914 456 923 c 0
 464.237879273 928.372529961 470.0383475 931.564218459 475.606889123 931.564218459 c 0
 485.585608278 931.564218459 494.819565914 921.315084774 516 895 c 0
 539.169581531 865.823489924 550.556896761 845.483679573 550.556896761 835.086431945 c 0
 550.556896761 829.799572141 547.612609662 827.0834464 541.775961063 827.0834464 c 0
 532.338870482 827.0834464 515.340388394 834.184111412 491 849 c 0
 464 866 434 872 378 872 c 2
 302 872 l 1
 302 742 l 2
 302 651.685187625 306.531536297 611.217274516 317.726196653 611.217274516 c 0
 321.405721466 611.217274516 325.805092166 615.58919684 331 624 c 0
 350 656 432 676 510 676 c 3
 541 676 572 672 597 664 c 0
 706 633 774 550 800 420 c 0
 805 391 808 363 808 336 c 3
 808 281 795 228 770 172 c 0
 735 93 700 57 624 22 c 0
 572 -2 549 -4 347 -8 c 0
 315.482201186 -8.51668522645 285.232479583 -8.76640682967 257.630196792 -8.76640682967 c 0
 178.38877135 -8.76640682967 120.966629547 -6.70828693387 118 -3 c 1
 118 -3 l 1
EndSplineSet
Validated: 524289
EndChar

StartChar: uni0472
Encoding: 258 1138 161
Width: 796
VWidth: 0
Flags: HW
LayerCount: 2
Fore
SplineSet
601 365 m 0
 621 375 640 388 644 394 c 0
 646.115546386 397.305541228 647.09472608 402.411786599 647.09472608 408.904964455 c 0
 647.09472608 451.520067273 604.91780414 553.875525754 565 599 c 0
 530 639 463 662 396 662 c 3
 352 662 309 654 276 634 c 0
 222 603 173 540 156 481 c 0
 149.640216339 456.832822089 145.302775089 418.104778821 145.302775089 393.11152268 c 0
 145.302775089 378.805869497 146.723805295 369 150 369 c 0
 152 369 186 381 226 396 c 0
 268.724636825 412.021738809 303.328486078 420.120758036 334.130889041 420.120758036 c 0
 372.539856945 420.120758036 405.038042916 407.527778188 440 382 c 0
 472.40992215 358.271306998 502.140244672 346.600812316 532.486448506 346.600812316 c 0
 554.574416123 346.600812316 576.988670759 352.783709685 601 365 c 0
501 46 m 0
 566 73 605 115 631 185 c 0
 644.676274152 221.709999039 655.243842353 288.988939921 655.243842353 323.809436624 c 0
 655.243842353 337.363916178 653.642549265 346 650 346 c 0
 647 346 616 333 580 316 c 0
 535.568789798 295.716186647 500.000650569 285.461637816 466.874979551 285.461637816 c 0
 431.410087319 285.461637816 398.7448006 297.215605101 361 321 c 0
 315.301641071 349.487288683 285.453391839 362.476692329 256.404363951 362.476692329 c 0
 236.506882604 362.476692329 216.984374327 356.382414935 193 345 c 0
 159.044798304 328.6753838 145.129877283 316.614657106 145.129877283 290.163315519 c 0
 145.129877283 276.106290381 149.05969296 257.985105345 156 233 c 0
 172 178 228 92 263 69 c 0
 306 40 353 26 400 26 c 3
 434 26 468 32 501 46 c 0
309 -5 m 0
 255 8 210 36 159 86 c 0
 87 159 61 221 58 336 c 0
 57.6937742252 349.01459543 57.5047662318 360.481916145 57.5047662318 370.786039779 c 0
 57.5047662318 427.77947553 63.2871608476 449.186773245 87 500 c 0
 120 569 184 636 249 669 c 0
 281 686 335 695 390 695 c 3
 434 695 478 690 512 679 c 0
 595 653 676 581 711 502 c 0
 733 454 738 423 738 345 c 0
 738.081892687 337.711550851 738.130253313 330.919376204 738.130253313 324.552628471 c 0
 738.130253313 253.174366717 732.051863265 235.267511905 699 171 c 0
 668 110 647 85 599 52 c 0
 534 8 458 -14 384 -14 c 3
 359 -14 334 -11 309 -5 c 0
EndSplineSet
Validated: 524289
EndChar

StartChar: uni0473
Encoding: 259 1139 162
Width: 472
VWidth: 0
Flags: HW
LayerCount: 2
Fore
SplineSet
253 209 m 1
 275.788455704 202.11046688 290.431915363 198.591276952 301.246934362 198.591276952 c 0
 310.838994412 198.591276952 317.419497206 201.359569034 324 207 c 0
 334 215 340 227 340 240 c 3
 340 261 328 287 303 313 c 0
 277 341 251 356 226 356 c 3
 200 356 175 342 150 314 c 0
 125 286 115 262 115 235 c 2
 115 197 l 1
 157 212 l 2
 173.99689438 217.66563146 186.3126292 220.6563146 199.314696398 220.6563146 c 0
 213.85144945 220.6563146 229.246117975 216.917960675 253 209 c 1
 253 209 l 1
276 38 m 0
 309 53 336 97 346 153 c 0
 347.744258649 162.593422572 348.585293447 170.618087928 348.585293447 177.001442173 c 0
 348.585293447 188.922394766 345.652118316 195.119145524 340.190809986 195.119145524 c 0
 335.163879187 195.119145524 327.994983376 189.868938246 319 179 c 0
 306 164 281 154 256 154 c 3
 235 154 214 157 199 167 c 0
 182 178 167 183 154 183 c 3
 130 183 115 164 115 138 c 3
 115 114 127 85 154 56 c 0
 173 35 199 26 228 26 c 3
 244 26 260 31 276 38 c 0
154 8 m 0
 106 29 50 100 41 151 c 0
 40 160 39 170 39 180 c 3
 39 262 87 341 159 365 c 0
 180 372 206 374 232 374 c 3
 274 374 315 363 339 346 c 0
 395 304 411 271 411 196 c 0
 411 138 406 119 379 80 c 0
 361 54 331 24 313 13 c 0
 291 -0 260 -7 228 -7 c 3
 202 -7 176 -2 154 8 c 0
EndSplineSet
Validated: 524289
EndChar
